{"glyphs":{"0":{"ha":861,"x_min":69,"x_max":792,"o":"m 418 -17 q 147 135 224 -17 q 69 513 69 287 q 117 800 69 684 q 249 973 164 916 q 447 1031 333 1031 q 716 880 640 1031 q 792 501 792 728 q 746 214 792 331 q 615 41 699 98 q 418 -17 531 -17 m 443 105 q 569 149 525 105 q 637 448 637 215 q 618 710 637 613 q 553 856 600 808 q 419 904 506 904 q 292 860 338 904 q 224 567 224 792 q 243 305 224 404 q 309 155 262 206 q 443 105 357 105 m 428 395 q 492 426 469 395 q 516 517 516 457 q 435 642 516 642 q 369 611 394 642 q 345 520 345 580 q 363 431 345 467 q 428 395 381 395 z "},"1":{"ha":861,"x_min":95,"x_max":783,"o":"m 95 132 l 358 132 l 358 863 l 97 808 l 110 940 l 457 1021 l 516 1021 l 516 132 l 783 132 l 763 0 l 116 0 l 95 132 z "},"2":{"ha":861,"x_min":88,"x_max":799,"o":"m 390 1031 q 242 1014 315 1031 q 102 967 169 998 l 93 817 q 238 874 165 853 q 377 894 311 894 q 519 853 469 894 q 569 737 569 813 q 489 522 569 639 q 269 281 408 406 l 88 117 l 126 0 l 760 0 l 799 131 l 292 131 l 381 208 q 561 384 487 301 q 681 558 635 467 q 726 748 726 650 q 683 906 726 842 q 565 1000 640 969 q 390 1031 489 1031 z "},"3":{"ha":861,"x_min":74,"x_max":756,"o":"m 254 532 l 260 514 q 526 421 438 472 q 615 297 615 371 q 567 205 615 243 q 439 146 520 166 q 256 126 357 126 q 106 139 181 126 l 141 -10 q 249 -17 192 -17 q 524 29 410 -17 q 697 150 639 75 q 756 313 756 226 q 677 482 756 414 q 456 594 599 549 l 699 887 l 673 1014 l 115 1014 l 74 883 l 536 883 l 254 532 z "},"4":{"ha":861,"x_min":45,"x_max":815,"o":"m 519 1021 l 676 1021 l 676 449 l 815 449 l 815 334 l 676 334 l 676 0 l 518 0 l 518 334 l 60 334 l 45 436 l 519 1021 m 518 437 l 518 840 l 185 437 l 518 437 z "},"5":{"ha":861,"x_min":115,"x_max":744,"o":"m 209 1014 l 153 527 q 494 437 377 489 q 611 307 611 385 q 559 215 611 254 q 425 155 508 176 q 251 134 342 134 q 115 147 184 134 l 150 -9 q 248 -17 196 -17 q 492 23 378 -17 q 675 141 606 63 q 744 328 744 219 q 695 469 744 411 q 546 569 647 528 q 284 645 446 611 l 315 883 l 722 883 l 694 1014 l 209 1014 z "},"6":{"ha":861,"x_min":85,"x_max":785,"o":"m 85 463 q 230 884 85 744 q 673 1031 375 1025 l 706 890 q 499 869 585 888 q 364 826 413 851 q 294 777 315 801 q 257 672 271 749 q 241 492 243 595 l 258 492 q 528 599 390 599 q 658 571 600 599 q 750 483 716 542 q 785 333 785 423 q 743 155 785 235 q 624 30 701 76 q 444 -17 547 -17 q 250 37 331 -17 q 128 198 170 91 q 85 463 85 306 m 246 398 q 275 233 246 303 q 355 127 304 164 q 470 91 406 91 q 593 147 551 91 q 635 298 635 203 q 474 482 635 482 q 352 458 410 482 q 246 398 294 433 z "},"7":{"ha":861,"x_min":81,"x_max":758,"o":"m 758 891 q 629 650 689 769 q 505 362 569 531 q 397 0 441 193 l 213 0 q 382 467 272 233 q 607 878 492 701 l 81 878 l 122 1014 l 728 1014 l 758 891 z "},"8":{"ha":861,"x_min":73,"x_max":805,"o":"m 455 1031 q 616 999 550 1031 q 714 912 681 967 q 746 791 746 858 q 698 647 746 712 q 561 531 649 582 q 708 448 656 486 q 782 366 760 410 q 805 261 805 323 q 752 116 805 180 q 609 18 699 53 q 416 -17 520 -17 q 235 18 313 -17 q 115 112 157 53 q 73 244 73 172 q 299 501 73 408 q 126 764 126 607 q 167 905 126 844 q 283 998 208 965 q 455 1031 358 1031 m 231 281 q 259 184 231 225 q 336 122 286 144 q 455 101 387 101 q 547 113 511 101 q 604 142 583 125 q 653 236 653 181 q 631 310 653 278 q 555 375 608 342 q 407 447 502 407 l 365 465 q 265 381 299 426 q 231 281 231 336 m 258 793 q 306 674 258 727 q 461 576 354 621 l 501 558 q 582 642 551 594 q 613 749 613 691 q 586 841 613 803 q 516 898 560 879 q 415 917 471 917 q 342 907 373 917 q 294 881 312 897 q 258 793 258 850 z "},"9":{"ha":861,"x_min":76,"x_max":776,"o":"m 776 551 q 631 130 776 270 q 188 -17 487 -11 l 156 124 q 362 145 276 127 q 497 189 448 164 q 567 238 547 213 q 605 342 591 265 q 621 522 619 419 l 603 522 q 333 415 472 415 q 203 443 261 415 q 111 531 145 472 q 76 681 76 591 q 118 859 76 779 q 238 985 160 939 q 417 1031 315 1031 q 611 977 531 1031 q 733 816 691 924 q 776 551 776 709 m 616 616 q 587 781 616 711 q 507 887 558 851 q 391 924 456 924 q 269 867 311 924 q 226 717 226 811 q 387 532 226 532 q 616 616 499 532 z "}," ":{"ha":861,"x_min":0,"x_max":0,"o":""},"A":{"ha":861,"x_min":32,"x_max":830,"o":"m 664 0 l 587 264 l 267 264 l 191 0 l 32 0 l 345 1014 l 515 1014 l 830 0 l 664 0 m 553 378 l 431 797 l 422 797 l 301 378 l 553 378 z "},"Á":{"ha":861,"x_min":32,"x_max":830,"o":"m 664 0 l 587 264 l 267 264 l 191 0 l 32 0 l 345 1014 l 515 1014 l 830 0 l 664 0 m 497 1135 l 671 1306 l 502 1306 l 362 1135 l 497 1135 m 553 378 l 431 797 l 422 797 l 301 378 l 553 378 z "},"Ă":{"ha":861,"x_min":32,"x_max":830,"o":"m 664 0 l 587 264 l 267 264 l 191 0 l 32 0 l 345 1014 l 515 1014 l 830 0 l 664 0 m 313 1306 q 342 1234 313 1261 q 431 1208 370 1208 q 520 1234 491 1208 q 549 1306 549 1261 l 649 1306 q 597 1174 653 1221 q 431 1126 542 1126 q 264 1174 320 1126 q 213 1306 208 1222 l 313 1306 m 553 378 l 431 797 l 422 797 l 301 378 l 553 378 z "},"Â":{"ha":861,"x_min":32,"x_max":830,"o":"m 664 0 l 587 264 l 267 264 l 191 0 l 32 0 l 345 1014 l 515 1014 l 830 0 l 664 0 m 344 1306 l 518 1306 l 689 1135 l 544 1135 l 431 1258 l 317 1135 l 173 1135 l 344 1306 m 553 378 l 431 797 l 422 797 l 301 378 l 553 378 z "},"Ä":{"ha":861,"x_min":32,"x_max":830,"o":"m 664 0 l 587 264 l 267 264 l 191 0 l 32 0 l 345 1014 l 515 1014 l 830 0 l 664 0 m 248 1140 q 182 1163 207 1140 q 156 1227 156 1187 q 182 1290 156 1267 q 248 1313 207 1313 q 315 1290 290 1313 q 340 1227 340 1267 q 315 1163 340 1187 q 248 1140 290 1140 m 614 1140 q 548 1163 573 1140 q 522 1227 522 1187 q 548 1290 522 1267 q 614 1313 573 1313 q 681 1290 656 1313 q 706 1227 706 1267 q 681 1163 706 1187 q 614 1140 656 1140 m 553 378 l 431 797 l 422 797 l 301 378 l 553 378 z "},"Ạ":{"ha":861,"x_min":32,"x_max":830,"o":"m 664 0 l 587 264 l 267 264 l 191 0 l 32 0 l 345 1014 l 515 1014 l 830 0 l 664 0 m 431 -360 q 352 -333 382 -360 q 322 -260 322 -306 q 352 -187 322 -214 q 431 -160 382 -160 q 509 -187 479 -160 q 539 -260 539 -214 q 509 -333 539 -306 q 431 -360 479 -360 m 553 378 l 431 797 l 422 797 l 301 378 l 553 378 z "},"À":{"ha":861,"x_min":32,"x_max":830,"o":"m 664 0 l 587 264 l 267 264 l 191 0 l 32 0 l 345 1014 l 515 1014 l 830 0 l 664 0 m 365 1135 l 191 1306 l 359 1306 l 500 1135 l 365 1135 m 553 378 l 431 797 l 422 797 l 301 378 l 553 378 z "},"Ā":{"ha":861,"x_min":32,"x_max":830,"o":"m 664 0 l 587 264 l 267 264 l 191 0 l 32 0 l 345 1014 l 515 1014 l 830 0 l 664 0 m 658 1188 l 203 1188 l 203 1290 l 658 1290 l 658 1188 m 553 378 l 431 797 l 422 797 l 301 378 l 553 378 z "},"Ą":{"ha":861,"x_min":32,"x_max":830,"o":"m 830 0 q 755 -76 778 -42 q 732 -138 732 -110 q 750 -178 732 -164 q 810 -192 768 -192 l 830 -192 l 830 -292 l 773 -292 q 635 -258 675 -292 q 596 -171 596 -224 q 620 -86 596 -126 q 697 0 645 -46 l 664 0 l 587 264 l 267 264 l 191 0 l 32 0 l 345 1014 l 515 1014 l 830 0 m 553 378 l 431 797 l 422 797 l 301 378 l 553 378 z "},"Å":{"ha":861,"x_min":32,"x_max":830,"o":"m 664 0 l 587 264 l 267 264 l 191 0 l 32 0 l 343 1006 q 290 1065 309 1028 q 270 1147 270 1101 q 291 1232 270 1194 q 348 1291 311 1269 q 431 1312 384 1312 q 514 1291 477 1312 q 571 1232 551 1269 q 592 1147 592 1194 q 572 1064 592 1101 q 518 1006 552 1027 l 830 0 l 664 0 m 431 1054 q 496 1080 472 1054 q 521 1147 521 1106 q 496 1214 521 1188 q 431 1240 472 1240 q 365 1214 390 1240 q 340 1147 340 1188 q 365 1080 340 1106 q 431 1054 390 1054 m 553 378 l 431 797 l 422 797 l 301 378 l 553 378 z "},"Ã":{"ha":861,"x_min":32,"x_max":830,"o":"m 664 0 l 587 264 l 267 264 l 191 0 l 32 0 l 345 1014 l 515 1014 l 830 0 l 664 0 m 311 1319 q 379 1305 351 1319 q 441 1263 407 1290 q 485 1233 468 1242 q 524 1223 503 1223 q 574 1245 554 1223 q 602 1310 594 1267 l 706 1288 q 655 1168 697 1211 q 550 1126 614 1126 q 482 1140 510 1126 q 420 1181 454 1154 q 376 1212 392 1203 q 338 1222 359 1222 q 287 1199 308 1222 q 259 1134 267 1177 l 155 1156 q 206 1276 165 1234 q 311 1319 247 1319 m 553 378 l 431 797 l 422 797 l 301 378 l 553 378 z "},"Æ":{"ha":861,"x_min":31,"x_max":844,"o":"m 436 260 l 244 260 l 189 0 l 31 0 l 265 1014 l 826 1014 l 844 882 l 584 882 l 584 575 l 747 575 l 747 449 l 584 449 l 584 132 l 844 132 l 826 0 l 436 0 l 436 260 m 436 378 l 436 882 l 376 882 l 269 378 l 436 378 z "},"Ǽ":{"ha":861,"x_min":31,"x_max":844,"o":"m 436 260 l 244 260 l 189 0 l 31 0 l 265 1014 l 826 1014 l 844 882 l 584 882 l 584 575 l 747 575 l 747 449 l 584 449 l 584 132 l 844 132 l 826 0 l 436 0 l 436 260 m 592 1135 l 767 1306 l 598 1306 l 458 1135 l 592 1135 m 436 378 l 436 882 l 376 882 l 269 378 l 436 378 z "},"B":{"ha":861,"x_min":120,"x_max":800,"o":"m 120 1014 l 451 1014 q 666 966 586 1015 q 745 809 745 917 q 676 645 745 705 q 503 558 607 585 l 503 552 q 720 473 641 531 q 800 291 800 414 q 754 134 800 199 q 623 34 708 69 q 423 0 538 0 l 120 0 l 120 1014 m 421 118 q 542 141 493 118 q 615 202 591 163 q 638 288 638 240 q 547 433 638 387 q 308 485 455 480 l 281 486 l 281 118 l 421 118 m 319 566 q 517 639 447 583 q 587 778 587 695 q 546 868 587 839 q 421 897 505 897 l 281 897 l 281 561 l 319 566 z "},"C":{"ha":861,"x_min":92,"x_max":774,"o":"m 592 1030 q 769 1010 677 1030 l 774 862 q 660 881 713 874 q 544 888 608 888 q 423 877 467 888 q 349 842 378 866 q 251 556 251 764 q 346 214 251 310 q 586 118 440 118 q 683 126 635 118 q 773 148 732 134 l 765 11 q 564 -17 668 -17 q 220 106 349 -17 q 92 505 92 229 q 210 894 92 758 q 592 1030 329 1030 z "},"Ć":{"ha":861,"x_min":92,"x_max":774,"o":"m 592 1030 q 769 1010 677 1030 l 774 862 q 660 881 713 874 q 544 888 608 888 q 423 877 467 888 q 349 842 378 866 q 251 556 251 764 q 346 214 251 310 q 586 118 440 118 q 683 126 635 118 q 773 148 732 134 l 765 11 q 564 -17 668 -17 q 220 106 349 -17 q 92 505 92 229 q 210 894 92 758 q 592 1030 329 1030 m 569 1135 l 744 1306 l 575 1306 l 435 1135 l 569 1135 z "},"Č":{"ha":861,"x_min":92,"x_max":774,"o":"m 592 1030 q 769 1010 677 1030 l 774 862 q 660 881 713 874 q 544 888 608 888 q 423 877 467 888 q 349 842 378 866 q 251 556 251 764 q 346 214 251 310 q 586 118 440 118 q 683 126 635 118 q 773 148 732 134 l 765 11 q 564 -17 668 -17 q 220 106 349 -17 q 92 505 92 229 q 210 894 92 758 q 592 1030 329 1030 m 417 1135 l 591 1135 l 762 1306 l 617 1306 l 503 1183 l 390 1306 l 246 1306 l 417 1135 z "},"Ç":{"ha":861,"x_min":92,"x_max":774,"o":"m 592 1030 q 769 1010 677 1030 l 774 862 q 660 881 713 874 q 544 888 608 888 q 423 877 467 888 q 349 842 378 866 q 251 556 251 764 q 346 214 251 310 q 586 118 440 118 q 683 126 635 118 q 773 148 732 134 l 765 11 q 564 -17 668 -17 l 519 -16 l 520 -117 q 611 -167 581 -131 q 642 -269 642 -203 q 623 -350 642 -318 q 559 -400 604 -383 q 434 -417 513 -417 l 379 -417 l 379 -328 l 417 -328 q 500 -311 475 -328 q 524 -260 524 -294 q 499 -205 524 -223 q 424 -182 473 -187 l 424 -3 q 180 155 269 32 q 92 505 92 278 q 210 894 92 758 q 592 1030 329 1030 z "},"Ĉ":{"ha":861,"x_min":92,"x_max":774,"o":"m 592 1030 q 769 1010 677 1030 l 774 862 q 660 881 713 874 q 544 888 608 888 q 423 877 467 888 q 349 842 378 866 q 251 556 251 764 q 346 214 251 310 q 586 118 440 118 q 683 126 635 118 q 773 148 732 134 l 765 11 q 564 -17 668 -17 q 220 106 349 -17 q 92 505 92 229 q 210 894 92 758 q 592 1030 329 1030 m 417 1306 l 591 1306 l 762 1135 l 617 1135 l 503 1258 l 390 1135 l 246 1135 l 417 1306 z "},"Ċ":{"ha":861,"x_min":92,"x_max":774,"o":"m 592 1030 q 769 1010 677 1030 l 774 862 q 660 881 713 874 q 544 888 608 888 q 423 877 467 888 q 349 842 378 866 q 251 556 251 764 q 346 214 251 310 q 586 118 440 118 q 683 126 635 118 q 773 148 732 134 l 765 11 q 564 -17 668 -17 q 220 106 349 -17 q 92 505 92 229 q 210 894 92 758 q 592 1030 329 1030 m 502 1140 q 434 1163 460 1140 q 408 1226 408 1187 q 434 1290 408 1267 q 502 1313 460 1313 q 570 1290 544 1313 q 596 1226 596 1267 q 570 1163 596 1187 q 502 1140 544 1140 z "},"D":{"ha":861,"x_min":118,"x_max":778,"o":"m 118 1014 l 345 1014 q 666 899 554 1014 q 778 530 778 785 q 666 136 778 272 q 321 0 554 0 l 118 0 l 118 1014 m 336 135 q 533 181 474 135 q 589 280 567 208 q 610 505 610 351 q 583 738 610 655 q 498 856 556 822 q 340 890 440 890 l 276 890 l 276 135 l 336 135 z "},"Ď":{"ha":861,"x_min":118,"x_max":778,"o":"m 118 1014 l 345 1014 q 666 899 554 1014 q 778 530 778 785 q 666 136 778 272 q 321 0 554 0 l 118 0 l 118 1014 m 344 1135 l 518 1135 l 689 1306 l 544 1306 l 431 1183 l 317 1306 l 173 1306 l 344 1135 m 336 135 q 533 181 474 135 q 589 280 567 208 q 610 505 610 351 q 583 738 610 655 q 498 856 556 822 q 340 890 440 890 l 276 890 l 276 135 l 336 135 z "},"Đ":{"ha":861,"x_min":19,"x_max":778,"o":"m 456 451 l 276 451 l 276 135 l 336 135 q 533 181 474 135 q 589 280 567 208 q 610 505 610 351 q 583 738 610 655 q 498 856 556 822 q 340 890 440 890 l 276 890 l 276 584 l 456 584 l 456 451 m 118 451 l 19 451 l 19 584 l 118 584 l 118 1014 l 345 1014 q 666 899 554 1014 q 778 530 778 785 q 666 136 778 272 q 321 0 554 0 l 118 0 l 118 451 z "},"Ð":{"ha":861,"x_min":19,"x_max":778,"o":"m 456 451 l 276 451 l 276 135 l 336 135 q 533 181 474 135 q 589 280 567 208 q 610 505 610 351 q 583 738 610 655 q 498 856 556 822 q 340 890 440 890 l 276 890 l 276 584 l 456 584 l 456 451 m 118 451 l 19 451 l 19 584 l 118 584 l 118 1014 l 345 1014 q 666 899 554 1014 q 778 530 778 785 q 666 136 778 272 q 321 0 554 0 l 118 0 l 118 451 z "},"E":{"ha":861,"x_min":125,"x_max":764,"o":"m 125 1014 l 747 1014 l 764 882 l 283 882 l 283 575 l 667 575 l 667 449 l 283 449 l 283 132 l 764 132 l 747 0 l 125 0 l 125 1014 z "},"É":{"ha":861,"x_min":125,"x_max":764,"o":"m 125 1014 l 747 1014 l 764 882 l 283 882 l 283 575 l 667 575 l 667 449 l 283 449 l 283 132 l 764 132 l 747 0 l 125 0 l 125 1014 m 497 1135 l 671 1306 l 502 1306 l 362 1135 l 497 1135 z "},"Ĕ":{"ha":861,"x_min":125,"x_max":764,"o":"m 125 1014 l 747 1014 l 764 882 l 283 882 l 283 575 l 667 575 l 667 449 l 283 449 l 283 132 l 764 132 l 747 0 l 125 0 l 125 1014 m 313 1306 q 342 1234 313 1261 q 431 1208 370 1208 q 520 1234 491 1208 q 549 1306 549 1261 l 649 1306 q 597 1174 653 1221 q 431 1126 542 1126 q 264 1174 320 1126 q 213 1306 208 1222 l 313 1306 z "},"Ě":{"ha":861,"x_min":125,"x_max":764,"o":"m 125 1014 l 747 1014 l 764 882 l 283 882 l 283 575 l 667 575 l 667 449 l 283 449 l 283 132 l 764 132 l 747 0 l 125 0 l 125 1014 m 344 1135 l 518 1135 l 689 1306 l 544 1306 l 431 1183 l 317 1306 l 173 1306 l 344 1135 z "},"Ê":{"ha":861,"x_min":125,"x_max":764,"o":"m 125 1014 l 747 1014 l 764 882 l 283 882 l 283 575 l 667 575 l 667 449 l 283 449 l 283 132 l 764 132 l 747 0 l 125 0 l 125 1014 m 344 1306 l 518 1306 l 689 1135 l 544 1135 l 431 1258 l 317 1135 l 173 1135 l 344 1306 z "},"Ë":{"ha":861,"x_min":125,"x_max":764,"o":"m 125 1014 l 747 1014 l 764 882 l 283 882 l 283 575 l 667 575 l 667 449 l 283 449 l 283 132 l 764 132 l 747 0 l 125 0 l 125 1014 m 248 1140 q 182 1163 207 1140 q 156 1227 156 1187 q 182 1290 156 1267 q 248 1313 207 1313 q 315 1290 290 1313 q 340 1227 340 1267 q 315 1163 340 1187 q 248 1140 290 1140 m 614 1140 q 548 1163 573 1140 q 522 1227 522 1187 q 548 1290 522 1267 q 614 1313 573 1313 q 681 1290 656 1313 q 706 1227 706 1267 q 681 1163 706 1187 q 614 1140 656 1140 z "},"Ė":{"ha":861,"x_min":125,"x_max":764,"o":"m 125 1014 l 747 1014 l 764 882 l 283 882 l 283 575 l 667 575 l 667 449 l 283 449 l 283 132 l 764 132 l 747 0 l 125 0 l 125 1014 m 429 1140 q 361 1163 387 1140 q 335 1226 335 1187 q 361 1290 335 1267 q 429 1313 387 1313 q 497 1290 472 1313 q 523 1226 523 1267 q 497 1163 523 1187 q 429 1140 472 1140 z "},"Ẹ":{"ha":861,"x_min":125,"x_max":764,"o":"m 125 1014 l 747 1014 l 764 882 l 283 882 l 283 575 l 667 575 l 667 449 l 283 449 l 283 132 l 764 132 l 747 0 l 125 0 l 125 1014 m 431 -360 q 352 -333 382 -360 q 322 -260 322 -306 q 352 -187 322 -214 q 431 -160 382 -160 q 509 -187 479 -160 q 539 -260 539 -214 q 509 -333 539 -306 q 431 -360 479 -360 z "},"È":{"ha":861,"x_min":125,"x_max":764,"o":"m 125 1014 l 747 1014 l 764 882 l 283 882 l 283 575 l 667 575 l 667 449 l 283 449 l 283 132 l 764 132 l 747 0 l 125 0 l 125 1014 m 365 1135 l 191 1306 l 359 1306 l 500 1135 l 365 1135 z "},"Ē":{"ha":861,"x_min":125,"x_max":764,"o":"m 125 1014 l 747 1014 l 764 882 l 283 882 l 283 575 l 667 575 l 667 449 l 283 449 l 283 132 l 764 132 l 747 0 l 125 0 l 125 1014 m 658 1188 l 203 1188 l 203 1290 l 658 1290 l 658 1188 z "},"Ę":{"ha":861,"x_min":125,"x_max":764,"o":"m 125 1014 l 747 1014 l 764 882 l 283 882 l 283 575 l 667 575 l 667 449 l 283 449 l 283 132 l 764 132 l 747 0 q 671 -76 694 -42 q 648 -138 648 -110 q 666 -178 648 -164 q 726 -192 684 -192 l 747 -192 l 747 -292 l 690 -292 q 551 -258 591 -292 q 512 -171 512 -224 q 536 -86 512 -127 q 613 0 561 -46 l 125 0 l 125 1014 z "},"Ẽ":{"ha":861,"x_min":125,"x_max":764,"o":"m 125 1014 l 747 1014 l 764 882 l 283 882 l 283 575 l 667 575 l 667 449 l 283 449 l 283 132 l 764 132 l 747 0 l 125 0 l 125 1014 m 311 1319 q 379 1305 351 1319 q 441 1263 407 1290 q 485 1233 468 1242 q 524 1223 503 1223 q 574 1245 554 1223 q 602 1310 594 1267 l 706 1288 q 655 1168 697 1211 q 550 1126 614 1126 q 482 1140 510 1126 q 420 1181 454 1154 q 376 1212 392 1203 q 338 1222 359 1222 q 287 1199 308 1222 q 259 1134 267 1177 l 155 1156 q 206 1276 165 1234 q 311 1319 247 1319 z "},"Ə":{"ha":861,"x_min":77,"x_max":783,"o":"m 418 -13 q 77 542 77 -13 l 623 542 l 623 571 q 600 757 623 687 q 511 866 577 828 q 321 904 446 904 q 98 869 202 904 l 103 988 q 365 1031 223 1031 q 602 982 511 1031 q 738 822 694 933 q 783 522 783 711 q 737 225 783 345 q 610 46 692 106 q 418 -13 528 -13 m 243 417 q 266 250 247 318 q 325 145 284 183 q 435 107 366 107 q 561 150 518 107 q 597 227 581 170 q 619 417 613 283 l 243 417 z "},"F":{"ha":861,"x_min":132,"x_max":780,"o":"m 132 0 l 132 1014 l 763 1014 l 780 884 l 290 884 l 290 543 l 687 543 l 680 419 l 290 419 l 290 0 l 132 0 z "},"G":{"ha":861,"x_min":86,"x_max":773,"o":"m 768 866 q 658 882 707 876 q 553 888 609 888 q 419 876 468 888 q 338 838 370 864 q 272 735 299 808 q 245 531 245 662 q 322 205 245 302 q 532 108 399 108 q 635 118 581 108 l 635 417 l 449 417 l 466 542 l 772 542 l 773 18 q 534 -17 644 -17 q 203 106 320 -17 q 86 495 86 229 q 208 893 86 756 q 597 1030 330 1030 q 761 1013 685 1030 l 768 866 z "},"Ğ":{"ha":861,"x_min":86,"x_max":773,"o":"m 768 866 q 658 882 707 876 q 553 888 609 888 q 419 876 468 888 q 338 838 370 864 q 272 735 299 808 q 245 531 245 662 q 322 205 245 302 q 532 108 399 108 q 635 118 581 108 l 635 417 l 449 417 l 466 542 l 772 542 l 773 18 q 534 -17 644 -17 q 203 106 320 -17 q 86 495 86 229 q 208 893 86 756 q 597 1030 330 1030 q 761 1013 685 1030 l 768 866 m 390 1306 q 418 1234 390 1261 q 507 1208 447 1208 q 596 1234 567 1208 q 625 1306 625 1261 l 725 1306 q 674 1174 729 1221 q 507 1126 618 1126 q 341 1174 397 1126 q 290 1306 285 1222 l 390 1306 z "},"Ǧ":{"ha":861,"x_min":86,"x_max":773,"o":"m 768 866 q 658 882 707 876 q 553 888 609 888 q 419 876 468 888 q 338 838 370 864 q 272 735 299 808 q 245 531 245 662 q 322 205 245 302 q 532 108 399 108 q 635 118 581 108 l 635 417 l 449 417 l 466 542 l 772 542 l 773 18 q 534 -17 644 -17 q 203 106 320 -17 q 86 495 86 229 q 208 893 86 756 q 597 1030 330 1030 q 761 1013 685 1030 l 768 866 m 420 1135 l 594 1135 l 765 1306 l 621 1306 l 507 1183 l 393 1306 l 249 1306 l 420 1135 z "},"Ĝ":{"ha":861,"x_min":86,"x_max":773,"o":"m 768 866 q 658 882 707 876 q 553 888 609 888 q 419 876 468 888 q 338 838 370 864 q 272 735 299 808 q 245 531 245 662 q 322 205 245 302 q 532 108 399 108 q 635 118 581 108 l 635 417 l 449 417 l 466 542 l 772 542 l 773 18 q 534 -17 644 -17 q 203 106 320 -17 q 86 495 86 229 q 208 893 86 756 q 597 1030 330 1030 q 761 1013 685 1030 l 768 866 m 420 1306 l 594 1306 l 765 1135 l 621 1135 l 507 1258 l 393 1135 l 249 1135 l 420 1306 z "},"Ģ":{"ha":861,"x_min":86,"x_max":773,"o":"m 768 866 q 658 882 707 876 q 553 888 609 888 q 419 876 468 888 q 338 838 370 864 q 272 735 299 808 q 245 531 245 662 q 322 205 245 302 q 532 108 399 108 q 635 118 581 108 l 635 417 l 449 417 l 466 542 l 772 542 l 773 18 q 534 -17 644 -17 q 203 106 320 -17 q 86 495 86 229 q 208 893 86 756 q 597 1030 330 1030 q 761 1013 685 1030 l 768 866 m 492 -356 q 415 -329 444 -356 q 385 -258 385 -303 q 415 -186 385 -212 q 491 -160 444 -160 q 576 -194 543 -160 q 608 -292 608 -228 q 556 -434 608 -373 q 426 -532 504 -495 l 376 -471 q 462 -415 429 -441 q 510 -354 495 -389 q 492 -356 498 -356 z "},"Ġ":{"ha":861,"x_min":86,"x_max":773,"o":"m 768 866 q 658 882 707 876 q 553 888 609 888 q 419 876 468 888 q 338 838 370 864 q 272 735 299 808 q 245 531 245 662 q 322 205 245 302 q 532 108 399 108 q 635 118 581 108 l 635 417 l 449 417 l 466 542 l 772 542 l 773 18 q 534 -17 644 -17 q 203 106 320 -17 q 86 495 86 229 q 208 893 86 756 q 597 1030 330 1030 q 761 1013 685 1030 l 768 866 m 506 1140 q 438 1163 463 1140 q 412 1226 412 1187 q 438 1290 412 1267 q 506 1313 463 1313 q 574 1290 548 1313 q 599 1226 599 1267 q 574 1163 599 1187 q 506 1140 548 1140 z "},"H":{"ha":861,"x_min":118,"x_max":744,"o":"m 118 0 l 118 1014 l 278 1014 l 278 581 l 583 581 l 583 1014 l 744 1014 l 744 0 l 583 0 l 583 452 l 278 452 l 278 0 l 118 0 z "},"Ħ":{"ha":861,"x_min":28,"x_max":833,"o":"m 833 758 l 744 758 l 744 0 l 583 0 l 583 452 l 278 452 l 278 0 l 118 0 l 118 758 l 28 758 l 28 870 l 118 870 l 118 1014 l 278 1014 l 278 870 l 583 870 l 583 1014 l 744 1014 l 744 870 l 833 870 l 833 758 m 583 581 l 583 758 l 278 758 l 278 581 l 583 581 z "},"Ĥ":{"ha":861,"x_min":118,"x_max":744,"o":"m 118 0 l 118 1014 l 278 1014 l 278 581 l 583 581 l 583 1014 l 744 1014 l 744 0 l 583 0 l 583 452 l 278 452 l 278 0 l 118 0 m 344 1306 l 518 1306 l 689 1135 l 544 1135 l 431 1258 l 317 1135 l 173 1135 l 344 1306 z "},"I":{"ha":861,"x_min":99,"x_max":761,"o":"m 99 132 l 349 132 l 349 882 l 99 882 l 117 1014 l 744 1014 l 761 882 l 507 882 l 507 132 l 761 132 l 744 0 l 117 0 l 99 132 z "},"Ĳ":{"ha":861,"x_min":114,"x_max":700,"o":"m 700 306 q 658 114 700 185 q 538 14 615 43 q 344 -16 460 -16 q 228 -9 276 -16 q 135 12 180 -1 l 114 156 q 235 127 179 137 q 360 117 291 117 q 454 127 415 117 q 510 151 493 137 q 536 193 528 165 q 544 272 544 222 l 544 888 l 404 888 l 422 1014 l 700 1014 l 700 306 m 128 378 l 128 1014 l 278 1014 l 278 378 l 128 378 z "},"Í":{"ha":861,"x_min":99,"x_max":761,"o":"m 99 132 l 349 132 l 349 882 l 99 882 l 117 1014 l 744 1014 l 761 882 l 507 882 l 507 132 l 761 132 l 744 0 l 117 0 l 99 132 m 497 1135 l 671 1306 l 502 1306 l 362 1135 l 497 1135 z "},"Ĭ":{"ha":861,"x_min":99,"x_max":761,"o":"m 99 132 l 349 132 l 349 882 l 99 882 l 117 1014 l 744 1014 l 761 882 l 507 882 l 507 132 l 761 132 l 744 0 l 117 0 l 99 132 m 313 1306 q 342 1234 313 1261 q 431 1208 370 1208 q 520 1234 491 1208 q 549 1306 549 1261 l 649 1306 q 597 1174 653 1221 q 431 1126 542 1126 q 264 1174 320 1126 q 213 1306 208 1222 l 313 1306 z "},"Î":{"ha":861,"x_min":99,"x_max":761,"o":"m 99 132 l 349 132 l 349 882 l 99 882 l 117 1014 l 744 1014 l 761 882 l 507 882 l 507 132 l 761 132 l 744 0 l 117 0 l 99 132 m 344 1306 l 518 1306 l 689 1135 l 544 1135 l 431 1258 l 317 1135 l 173 1135 l 344 1306 z "},"Ï":{"ha":861,"x_min":99,"x_max":761,"o":"m 99 132 l 349 132 l 349 882 l 99 882 l 117 1014 l 744 1014 l 761 882 l 507 882 l 507 132 l 761 132 l 744 0 l 117 0 l 99 132 m 248 1140 q 182 1163 207 1140 q 156 1227 156 1187 q 182 1290 156 1267 q 248 1313 207 1313 q 315 1290 290 1313 q 340 1227 340 1267 q 315 1163 340 1187 q 248 1140 290 1140 m 614 1140 q 548 1163 573 1140 q 522 1227 522 1187 q 548 1290 522 1267 q 614 1313 573 1313 q 681 1290 656 1313 q 706 1227 706 1267 q 681 1163 706 1187 q 614 1140 656 1140 z "},"İ":{"ha":861,"x_min":99,"x_max":761,"o":"m 99 132 l 349 132 l 349 882 l 99 882 l 117 1014 l 744 1014 l 761 882 l 507 882 l 507 132 l 761 132 l 744 0 l 117 0 l 99 132 m 429 1140 q 361 1163 387 1140 q 335 1226 335 1187 q 361 1290 335 1267 q 429 1313 387 1313 q 497 1290 472 1313 q 523 1226 523 1267 q 497 1163 523 1187 q 429 1140 472 1140 z "},"Ị":{"ha":861,"x_min":99,"x_max":761,"o":"m 99 132 l 349 132 l 349 882 l 99 882 l 117 1014 l 744 1014 l 761 882 l 507 882 l 507 132 l 761 132 l 744 0 l 117 0 l 99 132 m 431 -360 q 352 -333 382 -360 q 322 -260 322 -306 q 352 -187 322 -214 q 431 -160 382 -160 q 509 -187 479 -160 q 539 -260 539 -214 q 509 -333 539 -306 q 431 -360 479 -360 z "},"Ì":{"ha":861,"x_min":99,"x_max":761,"o":"m 99 132 l 349 132 l 349 882 l 99 882 l 117 1014 l 744 1014 l 761 882 l 507 882 l 507 132 l 761 132 l 744 0 l 117 0 l 99 132 m 365 1135 l 191 1306 l 359 1306 l 500 1135 l 365 1135 z "},"Ī":{"ha":861,"x_min":99,"x_max":761,"o":"m 99 132 l 349 132 l 349 882 l 99 882 l 117 1014 l 744 1014 l 761 882 l 507 882 l 507 132 l 761 132 l 744 0 l 117 0 l 99 132 m 658 1188 l 203 1188 l 203 1290 l 658 1290 l 658 1188 z "},"Į":{"ha":861,"x_min":99,"x_max":761,"o":"m 744 1014 l 761 882 l 507 882 l 507 132 l 761 132 l 744 0 l 510 0 q 435 -76 458 -42 q 412 -138 412 -110 q 430 -178 412 -164 q 490 -192 448 -192 l 510 -192 l 510 -292 l 453 -292 q 315 -258 355 -292 q 276 -171 276 -224 q 300 -86 276 -126 q 377 0 325 -46 l 117 0 l 99 132 l 349 132 l 349 882 l 99 882 l 117 1014 l 744 1014 z "},"Ĩ":{"ha":861,"x_min":99,"x_max":761,"o":"m 99 132 l 349 132 l 349 882 l 99 882 l 117 1014 l 744 1014 l 761 882 l 507 882 l 507 132 l 761 132 l 744 0 l 117 0 l 99 132 m 311 1319 q 379 1305 351 1319 q 441 1263 407 1290 q 485 1233 468 1242 q 524 1223 503 1223 q 574 1245 554 1223 q 602 1310 594 1267 l 706 1288 q 655 1168 697 1211 q 550 1126 614 1126 q 482 1140 510 1126 q 420 1181 454 1154 q 376 1212 392 1203 q 338 1222 359 1222 q 287 1199 308 1222 q 259 1134 267 1177 l 155 1156 q 206 1276 165 1234 q 311 1319 247 1319 z "},"J":{"ha":861,"x_min":114,"x_max":700,"o":"m 700 306 q 658 114 700 185 q 538 14 615 43 q 344 -16 460 -16 q 228 -9 276 -16 q 135 12 180 -1 l 114 156 q 235 127 179 137 q 360 117 291 117 q 448 127 410 117 q 503 151 486 137 q 529 193 521 165 q 538 272 538 222 l 538 888 l 142 888 l 160 1014 l 700 1014 l 700 306 z "},"Ĵ":{"ha":861,"x_min":114,"x_max":700,"o":"m 700 306 q 658 114 700 185 q 538 14 615 43 q 344 -16 460 -16 q 228 -9 276 -16 q 135 12 180 -1 l 114 156 q 235 127 179 137 q 360 117 291 117 q 448 127 410 117 q 503 151 486 137 q 529 193 521 165 q 538 272 538 222 l 538 888 l 142 888 l 160 1014 l 700 1014 l 700 306 m 353 1306 l 528 1306 l 699 1135 l 555 1135 l 441 1258 l 327 1135 l 183 1135 l 353 1306 z "},"K":{"ha":861,"x_min":118,"x_max":844,"o":"m 118 0 l 118 1014 l 278 1014 l 278 578 l 383 578 q 515 794 458 691 q 626 1014 572 897 l 796 1014 q 670 768 739 885 q 513 532 602 651 l 513 521 q 686 281 603 408 q 844 0 769 154 l 651 0 q 525 232 590 126 q 383 448 460 339 l 278 448 l 278 0 l 118 0 z "},"Ķ":{"ha":861,"x_min":118,"x_max":844,"o":"m 118 0 l 118 1014 l 278 1014 l 278 578 l 383 578 q 515 794 458 691 q 626 1014 572 897 l 796 1014 q 670 768 739 885 q 513 532 602 651 l 513 521 q 686 281 603 408 q 844 0 769 154 l 651 0 q 525 232 590 126 q 383 448 460 339 l 278 448 l 278 0 l 118 0 m 429 -356 q 352 -329 382 -356 q 322 -258 322 -303 q 352 -186 322 -212 q 428 -160 382 -160 q 513 -194 481 -160 q 546 -292 546 -228 q 494 -434 546 -373 q 363 -532 442 -495 l 313 -471 q 400 -415 367 -441 q 448 -354 433 -389 q 429 -356 435 -356 z "},"L":{"ha":861,"x_min":135,"x_max":787,"o":"m 135 1014 l 293 1014 l 293 132 l 787 133 l 766 0 l 135 0 l 135 1014 z "},"Ĺ":{"ha":861,"x_min":135,"x_max":787,"o":"m 135 1014 l 293 1014 l 293 132 l 787 133 l 766 0 l 135 0 l 135 1014 m 281 1135 l 455 1306 l 287 1306 l 146 1135 l 281 1135 z "},"Ľ":{"ha":861,"x_min":135,"x_max":787,"o":"m 135 1014 l 293 1014 l 293 132 l 787 133 l 766 0 l 135 0 l 135 1014 m 433 1106 l 569 1106 l 541 852 l 422 852 l 433 1106 z "},"Ļ":{"ha":861,"x_min":135,"x_max":787,"o":"m 135 1014 l 293 1014 l 293 132 l 787 133 l 766 0 l 135 0 l 135 1014 m 429 -356 q 352 -329 382 -356 q 322 -258 322 -303 q 352 -186 322 -212 q 428 -160 382 -160 q 513 -194 481 -160 q 546 -292 546 -228 q 494 -434 546 -373 q 363 -532 442 -495 l 313 -471 q 400 -415 367 -441 q 448 -354 433 -389 q 429 -356 435 -356 z "},"Ŀ":{"ha":861,"x_min":135,"x_max":787,"o":"m 647 484 q 581 509 606 484 q 556 576 556 534 q 581 642 556 617 q 647 666 606 666 q 713 642 688 666 q 738 576 738 617 q 713 509 738 534 q 647 484 688 484 m 135 1014 l 293 1014 l 293 132 l 787 133 l 766 0 l 135 0 l 135 1014 z "},"Ł":{"ha":861,"x_min":7,"x_max":787,"o":"m 550 650 l 293 525 l 293 132 l 787 133 l 766 0 l 135 0 l 135 448 l 7 385 l 7 522 l 135 585 l 135 1014 l 293 1014 l 293 662 l 550 787 l 550 650 z "},"M":{"ha":861,"x_min":73,"x_max":788,"o":"m 261 1014 l 428 533 l 437 533 l 612 1014 l 748 1014 l 788 0 l 653 0 l 628 767 l 617 767 l 456 272 l 403 272 l 235 767 l 226 767 l 206 0 l 73 0 l 114 1014 l 261 1014 z "},"N":{"ha":861,"x_min":118,"x_max":744,"o":"m 118 1014 l 284 1014 l 603 265 l 611 265 l 611 1014 l 744 1014 l 744 0 l 578 0 l 259 756 l 251 756 l 251 0 l 118 0 l 118 1014 z "},"Ń":{"ha":861,"x_min":118,"x_max":744,"o":"m 118 1014 l 284 1014 l 603 265 l 611 265 l 611 1014 l 744 1014 l 744 0 l 578 0 l 259 756 l 251 756 l 251 0 l 118 0 l 118 1014 m 497 1135 l 671 1306 l 502 1306 l 362 1135 l 497 1135 z "},"Ň":{"ha":861,"x_min":118,"x_max":744,"o":"m 118 1014 l 284 1014 l 603 265 l 611 265 l 611 1014 l 744 1014 l 744 0 l 578 0 l 259 756 l 251 756 l 251 0 l 118 0 l 118 1014 m 344 1135 l 518 1135 l 689 1306 l 544 1306 l 431 1183 l 317 1306 l 173 1306 l 344 1135 z "},"Ņ":{"ha":861,"x_min":118,"x_max":744,"o":"m 118 1014 l 284 1014 l 603 265 l 611 265 l 611 1014 l 744 1014 l 744 0 l 578 0 l 259 756 l 251 756 l 251 0 l 118 0 l 118 1014 m 429 -356 q 352 -329 382 -356 q 322 -258 322 -303 q 352 -186 322 -212 q 428 -160 382 -160 q 513 -194 481 -160 q 546 -292 546 -228 q 494 -434 546 -373 q 363 -532 442 -495 l 313 -471 q 400 -415 367 -441 q 448 -354 433 -389 q 429 -356 435 -356 z "},"Ɲ":{"ha":861,"x_min":-51,"x_max":744,"o":"m 61 -269 q -30 -248 16 -269 l -51 -117 q 44 -141 2 -141 q 99 -124 81 -141 q 115 -87 113 -111 q 118 0 118 -64 l 118 1014 l 284 1014 l 603 265 l 611 265 l 611 1014 l 744 1014 l 744 0 l 578 0 l 259 756 l 251 756 l 251 -25 q 226 -155 251 -100 q 158 -240 201 -210 q 61 -269 115 -269 z "},"Ñ":{"ha":861,"x_min":118,"x_max":744,"o":"m 118 1014 l 284 1014 l 603 265 l 611 265 l 611 1014 l 744 1014 l 744 0 l 578 0 l 259 756 l 251 756 l 251 0 l 118 0 l 118 1014 m 311 1319 q 379 1305 351 1319 q 441 1263 407 1290 q 485 1233 468 1242 q 524 1223 503 1223 q 574 1245 554 1223 q 602 1310 594 1267 l 706 1288 q 655 1168 697 1211 q 550 1126 614 1126 q 482 1140 510 1126 q 420 1181 454 1154 q 376 1212 392 1203 q 338 1222 359 1222 q 287 1199 308 1222 q 259 1134 267 1177 l 155 1156 q 206 1276 165 1234 q 311 1319 247 1319 z "},"Ŋ":{"ha":861,"x_min":118,"x_max":744,"o":"m 533 -269 q 440 -248 489 -269 l 419 -117 q 513 -141 469 -141 q 569 -124 551 -141 q 585 -92 581 -112 q 588 -24 588 -71 l 259 756 l 251 756 l 251 0 l 118 0 l 118 1014 l 284 1014 l 603 265 l 611 265 l 611 1015 l 744 1015 l 744 -25 q 716 -155 744 -100 q 640 -240 688 -210 q 533 -269 592 -269 z "},"O":{"ha":861,"x_min":77,"x_max":784,"o":"m 418 -13 q 153 138 228 -13 q 77 513 77 288 q 124 794 77 678 q 253 968 170 910 q 447 1026 337 1026 q 710 876 635 1026 q 784 501 784 726 q 738 219 784 334 q 610 45 692 103 q 418 -13 527 -13 m 435 107 q 561 150 518 107 q 619 435 619 208 q 604 705 619 606 q 546 852 588 803 q 425 901 504 901 q 350 889 381 901 q 300 858 319 877 q 259 771 276 835 q 242 583 242 708 q 257 310 242 412 q 315 158 273 209 q 435 107 357 107 z "},"Ó":{"ha":861,"x_min":77,"x_max":784,"o":"m 418 -13 q 153 138 228 -13 q 77 513 77 288 q 124 794 77 678 q 253 968 170 910 q 447 1026 337 1026 q 710 876 635 1026 q 784 501 784 726 q 738 219 784 334 q 610 45 692 103 q 418 -13 527 -13 m 435 107 q 561 150 518 107 q 619 435 619 208 q 604 705 619 606 q 546 852 588 803 q 425 901 504 901 q 350 889 381 901 q 300 858 319 877 q 259 771 276 835 q 242 583 242 708 q 257 310 242 412 q 315 158 273 209 q 435 107 357 107 m 497 1135 l 671 1306 l 502 1306 l 362 1135 l 497 1135 z "},"Ŏ":{"ha":861,"x_min":77,"x_max":784,"o":"m 418 -13 q 153 138 228 -13 q 77 513 77 288 q 124 794 77 678 q 253 968 170 910 q 447 1026 337 1026 q 710 876 635 1026 q 784 501 784 726 q 738 219 784 334 q 610 45 692 103 q 418 -13 527 -13 m 435 107 q 561 150 518 107 q 619 435 619 208 q 604 705 619 606 q 546 852 588 803 q 425 901 504 901 q 350 889 381 901 q 300 858 319 877 q 259 771 276 835 q 242 583 242 708 q 257 310 242 412 q 315 158 273 209 q 435 107 357 107 m 313 1306 q 342 1234 313 1261 q 431 1208 370 1208 q 520 1234 491 1208 q 549 1306 549 1261 l 649 1306 q 597 1174 653 1221 q 431 1126 542 1126 q 264 1174 320 1126 q 213 1306 208 1222 l 313 1306 z "},"Ô":{"ha":861,"x_min":77,"x_max":784,"o":"m 418 -13 q 153 138 228 -13 q 77 513 77 288 q 124 794 77 678 q 253 968 170 910 q 447 1026 337 1026 q 710 876 635 1026 q 784 501 784 726 q 738 219 784 334 q 610 45 692 103 q 418 -13 527 -13 m 435 107 q 561 150 518 107 q 619 435 619 208 q 604 705 619 606 q 546 852 588 803 q 425 901 504 901 q 350 889 381 901 q 300 858 319 877 q 259 771 276 835 q 242 583 242 708 q 257 310 242 412 q 315 158 273 209 q 435 107 357 107 m 344 1306 l 518 1306 l 689 1135 l 544 1135 l 431 1258 l 317 1135 l 173 1135 l 344 1306 z "},"Ö":{"ha":861,"x_min":77,"x_max":784,"o":"m 418 -13 q 153 138 228 -13 q 77 513 77 288 q 124 794 77 678 q 253 968 170 910 q 447 1026 337 1026 q 710 876 635 1026 q 784 501 784 726 q 738 219 784 334 q 610 45 692 103 q 418 -13 527 -13 m 435 107 q 561 150 518 107 q 619 435 619 208 q 604 705 619 606 q 546 852 588 803 q 425 901 504 901 q 350 889 381 901 q 300 858 319 877 q 259 771 276 835 q 242 583 242 708 q 257 310 242 412 q 315 158 273 209 q 435 107 357 107 m 248 1140 q 182 1163 207 1140 q 156 1227 156 1187 q 182 1290 156 1267 q 248 1313 207 1313 q 315 1290 290 1313 q 340 1227 340 1267 q 315 1163 340 1187 q 248 1140 290 1140 m 614 1140 q 548 1163 573 1140 q 522 1227 522 1187 q 548 1290 522 1267 q 614 1313 573 1313 q 681 1290 656 1313 q 706 1227 706 1267 q 681 1163 706 1187 q 614 1140 656 1140 z "},"Ọ":{"ha":861,"x_min":77,"x_max":784,"o":"m 418 -13 q 153 138 228 -13 q 77 513 77 288 q 124 794 77 678 q 253 968 170 910 q 447 1026 337 1026 q 710 876 635 1026 q 784 501 784 726 q 738 219 784 334 q 610 45 692 103 q 418 -13 527 -13 m 435 107 q 561 150 518 107 q 619 435 619 208 q 604 705 619 606 q 546 852 588 803 q 425 901 504 901 q 350 889 381 901 q 300 858 319 877 q 259 771 276 835 q 242 583 242 708 q 257 310 242 412 q 315 158 273 209 q 435 107 357 107 m 431 -360 q 352 -333 382 -360 q 322 -260 322 -306 q 352 -187 322 -214 q 431 -160 382 -160 q 509 -187 479 -160 q 539 -260 539 -214 q 509 -333 539 -306 q 431 -360 479 -360 z "},"Ò":{"ha":861,"x_min":77,"x_max":784,"o":"m 418 -13 q 153 138 228 -13 q 77 513 77 288 q 124 794 77 678 q 253 968 170 910 q 447 1026 337 1026 q 710 876 635 1026 q 784 501 784 726 q 738 219 784 334 q 610 45 692 103 q 418 -13 527 -13 m 435 107 q 561 150 518 107 q 619 435 619 208 q 604 705 619 606 q 546 852 588 803 q 425 901 504 901 q 350 889 381 901 q 300 858 319 877 q 259 771 276 835 q 242 583 242 708 q 257 310 242 412 q 315 158 273 209 q 435 107 357 107 m 365 1135 l 191 1306 l 359 1306 l 500 1135 l 365 1135 z "},"Ő":{"ha":861,"x_min":77,"x_max":784,"o":"m 418 -13 q 153 138 228 -13 q 77 513 77 288 q 124 794 77 678 q 253 968 170 910 q 447 1026 337 1026 q 710 876 635 1026 q 784 501 784 726 q 738 219 784 334 q 610 45 692 103 q 418 -13 527 -13 m 435 107 q 561 150 518 107 q 619 435 619 208 q 604 705 619 606 q 546 852 588 803 q 425 901 504 901 q 350 889 381 901 q 300 858 319 877 q 259 771 276 835 q 242 583 242 708 q 257 310 242 412 q 315 158 273 209 q 435 107 357 107 m 333 1306 l 463 1306 l 345 1135 l 238 1135 l 333 1306 m 605 1306 l 735 1306 l 617 1135 l 510 1135 l 605 1306 z "},"Ō":{"ha":861,"x_min":77,"x_max":784,"o":"m 418 -13 q 153 138 228 -13 q 77 513 77 288 q 124 794 77 678 q 253 968 170 910 q 447 1026 337 1026 q 710 876 635 1026 q 784 501 784 726 q 738 219 784 334 q 610 45 692 103 q 418 -13 527 -13 m 435 107 q 561 150 518 107 q 619 435 619 208 q 604 705 619 606 q 546 852 588 803 q 425 901 504 901 q 350 889 381 901 q 300 858 319 877 q 259 771 276 835 q 242 583 242 708 q 257 310 242 412 q 315 158 273 209 q 435 107 357 107 m 658 1188 l 203 1188 l 203 1290 l 658 1290 l 658 1188 z "},"Ǫ":{"ha":861,"x_min":77,"x_max":784,"o":"m 435 107 q 561 150 518 107 q 619 435 619 208 q 604 705 619 606 q 546 852 588 803 q 425 901 504 901 q 350 889 381 901 q 300 858 319 877 q 259 771 276 835 q 242 583 242 708 q 257 310 242 412 q 315 158 273 209 q 435 107 357 107 m 77 513 q 124 794 77 678 q 253 968 170 910 q 447 1026 337 1026 q 710 876 635 1026 q 784 501 784 726 q 751 256 784 360 q 658 87 718 151 q 515 0 597 23 q 440 -76 463 -42 q 417 -138 417 -110 q 435 -178 417 -164 q 495 -192 453 -192 l 515 -192 l 515 -292 l 458 -292 q 320 -258 360 -292 q 281 -171 281 -224 q 302 -91 281 -129 q 371 -10 324 -52 q 143 157 208 10 q 77 513 77 303 z "},"Ø":{"ha":861,"x_min":76,"x_max":786,"o":"m 418 -13 q 294 10 349 -13 l 208 -183 l 76 -125 l 177 101 q 100 281 124 174 q 77 513 77 388 q 124 794 77 678 q 253 968 170 910 q 447 1026 337 1026 q 569 1005 514 1026 l 655 1198 l 786 1140 l 685 913 q 784 501 784 781 q 738 219 784 334 q 610 45 692 103 q 418 -13 527 -13 m 435 107 q 561 150 518 107 q 619 435 619 208 q 613 624 619 546 q 592 756 607 702 l 336 138 q 435 107 375 107 m 242 583 q 248 392 242 472 q 269 257 254 313 l 524 872 q 425 901 485 901 q 350 889 381 901 q 300 858 319 877 q 259 771 276 835 q 242 583 242 708 z "},"Ǿ":{"ha":861,"x_min":76,"x_max":786,"o":"m 418 -13 q 294 10 349 -13 l 208 -183 l 76 -125 l 177 101 q 100 281 124 174 q 77 513 77 388 q 124 794 77 678 q 253 968 170 910 q 447 1026 337 1026 q 569 1005 514 1026 l 655 1198 l 786 1140 l 685 913 q 784 501 784 781 q 738 219 784 334 q 610 45 692 103 q 418 -13 527 -13 m 435 107 q 561 150 518 107 q 619 435 619 208 q 613 624 619 546 q 592 756 607 702 l 336 138 q 435 107 375 107 m 465 1135 l 640 1306 l 471 1306 l 331 1135 l 465 1135 m 242 583 q 248 392 242 472 q 269 257 254 313 l 524 872 q 425 901 485 901 q 350 889 381 901 q 300 858 319 877 q 259 771 276 835 q 242 583 242 708 z "},"Õ":{"ha":861,"x_min":77,"x_max":784,"o":"m 418 -13 q 153 138 228 -13 q 77 513 77 288 q 124 794 77 678 q 253 968 170 910 q 447 1026 337 1026 q 710 876 635 1026 q 784 501 784 726 q 738 219 784 334 q 610 45 692 103 q 418 -13 527 -13 m 435 107 q 561 150 518 107 q 619 435 619 208 q 604 705 619 606 q 546 852 588 803 q 425 901 504 901 q 350 889 381 901 q 300 858 319 877 q 259 771 276 835 q 242 583 242 708 q 257 310 242 412 q 315 158 273 209 q 435 107 357 107 m 311 1319 q 379 1305 351 1319 q 441 1263 407 1290 q 485 1233 468 1242 q 524 1223 503 1223 q 574 1245 554 1223 q 602 1310 594 1267 l 706 1288 q 655 1168 697 1211 q 550 1126 614 1126 q 482 1140 510 1126 q 420 1181 454 1154 q 376 1212 392 1203 q 338 1222 359 1222 q 287 1199 308 1222 q 259 1134 267 1177 l 155 1156 q 206 1276 165 1234 q 311 1319 247 1319 z "},"Œ":{"ha":861,"x_min":77,"x_max":844,"o":"m 418 0 q 153 149 229 0 q 77 513 77 297 q 123 785 77 672 q 252 955 169 897 q 444 1014 335 1013 l 826 1014 l 844 882 l 591 882 l 591 575 l 754 575 l 754 449 l 591 449 l 591 132 l 844 132 l 826 0 l 418 0 m 242 583 q 257 320 242 419 q 315 171 273 222 q 435 120 357 120 l 444 120 l 444 888 l 425 888 q 350 876 381 888 q 300 846 319 865 q 259 761 276 822 q 242 583 242 699 z "},"P":{"ha":861,"x_min":120,"x_max":783,"o":"m 120 0 l 120 1014 l 465 1014 q 697 948 612 1014 q 783 742 783 882 q 660 475 783 572 q 303 353 538 378 l 281 350 l 281 0 l 120 0 m 298 471 q 536 548 449 485 q 622 724 622 612 q 574 851 622 806 q 423 897 525 897 l 281 897 l 281 469 l 298 471 z "},"Þ":{"ha":861,"x_min":120,"x_max":783,"o":"m 120 0 l 120 1014 l 281 1014 l 281 853 l 465 853 q 697 787 612 853 q 783 581 783 721 q 660 314 783 410 q 303 192 538 217 l 281 189 l 281 0 l 120 0 m 298 310 q 536 387 449 324 q 622 563 622 451 q 574 690 622 644 q 423 736 525 736 l 281 736 l 281 308 l 298 310 z "},"Q":{"ha":861,"x_min":71,"x_max":863,"o":"m 444 1026 q 244 972 328 1026 q 116 811 160 917 q 71 555 71 706 q 155 194 71 349 q 401 -57 238 40 q 798 -191 563 -155 l 863 -69 q 644 -12 739 -44 q 477 65 549 21 q 395 127 431 94 q 356 106 383 119 l 424 40 q 477 65 449 50 q 704 273 617 139 q 792 601 792 407 q 759 807 792 711 q 649 964 727 902 q 444 1026 572 1026 m 234 583 q 253 770 234 708 q 298 854 273 833 q 419 894 341 894 q 581 813 534 894 q 627 594 627 732 q 566 301 627 411 q 395 127 505 192 q 273 314 313 203 q 234 583 234 425 z "},"R":{"ha":861,"x_min":118,"x_max":822,"o":"m 118 0 l 118 1014 l 450 1014 q 687 962 598 1014 q 776 783 776 910 q 706 592 776 674 q 510 454 636 510 l 822 0 l 631 0 l 336 460 l 335 488 q 539 604 471 540 q 608 758 608 668 q 565 864 608 831 q 435 897 522 897 l 278 897 l 278 0 l 118 0 z "},"Ŕ":{"ha":861,"x_min":118,"x_max":822,"o":"m 118 0 l 118 1014 l 450 1014 q 687 962 598 1014 q 776 783 776 910 q 706 592 776 674 q 510 454 636 510 l 822 0 l 631 0 l 336 460 l 335 488 q 539 604 471 540 q 608 758 608 668 q 565 864 608 831 q 435 897 522 897 l 278 897 l 278 0 l 118 0 m 497 1135 l 671 1306 l 502 1306 l 362 1135 l 497 1135 z "},"Ř":{"ha":861,"x_min":118,"x_max":822,"o":"m 118 0 l 118 1014 l 450 1014 q 687 962 598 1014 q 776 783 776 910 q 706 592 776 674 q 510 454 636 510 l 822 0 l 631 0 l 336 460 l 335 488 q 539 604 471 540 q 608 758 608 668 q 565 864 608 831 q 435 897 522 897 l 278 897 l 278 0 l 118 0 m 344 1135 l 518 1135 l 689 1306 l 544 1306 l 431 1183 l 317 1306 l 173 1306 l 344 1135 z "},"Ŗ":{"ha":861,"x_min":118,"x_max":822,"o":"m 118 0 l 118 1014 l 450 1014 q 687 962 598 1014 q 776 783 776 910 q 706 592 776 674 q 510 454 636 510 l 822 0 l 631 0 l 336 460 l 335 488 q 539 604 471 540 q 608 758 608 668 q 565 864 608 831 q 435 897 522 897 l 278 897 l 278 0 l 118 0 m 429 -356 q 352 -329 382 -356 q 322 -258 322 -303 q 352 -186 322 -212 q 428 -160 382 -160 q 513 -194 481 -160 q 546 -292 546 -228 q 494 -434 546 -373 q 363 -532 442 -495 l 313 -471 q 400 -415 367 -441 q 448 -354 433 -389 q 429 -356 435 -356 z "},"S":{"ha":861,"x_min":97,"x_max":765,"o":"m 737 868 q 489 894 614 894 q 293 856 340 894 q 268 825 277 843 q 259 780 259 808 q 285 706 259 739 q 356 647 312 674 q 473 586 399 621 l 494 576 q 642 499 590 531 q 728 417 694 467 q 765 290 763 367 q 716 129 765 198 q 576 23 667 60 q 362 -14 485 -14 q 101 33 237 -14 l 97 175 q 251 135 167 150 q 415 119 335 119 q 577 158 533 119 q 602 192 592 171 q 613 244 613 214 q 590 319 613 289 q 523 374 567 349 q 371 451 478 399 q 229 532 283 493 q 146 622 175 571 q 117 744 117 674 q 175 912 117 847 q 327 1004 233 976 q 535 1032 422 1032 q 728 1010 631 1032 l 737 868 z "},"Ś":{"ha":861,"x_min":97,"x_max":765,"o":"m 737 868 q 489 894 614 894 q 293 856 340 894 q 268 825 277 843 q 259 780 259 808 q 285 706 259 739 q 356 647 312 674 q 473 586 399 621 l 494 576 q 642 499 590 531 q 728 417 694 467 q 765 290 763 367 q 716 129 765 198 q 576 23 667 60 q 362 -14 485 -14 q 101 33 237 -14 l 97 175 q 251 135 167 150 q 415 119 335 119 q 577 158 533 119 q 602 192 592 171 q 613 244 613 214 q 590 319 613 289 q 523 374 567 349 q 371 451 478 399 q 229 532 283 493 q 146 622 175 571 q 117 744 117 674 q 175 912 117 847 q 327 1004 233 976 q 535 1032 422 1032 q 728 1010 631 1032 l 737 868 m 497 1135 l 671 1306 l 502 1306 l 362 1135 l 497 1135 z "},"Š":{"ha":861,"x_min":97,"x_max":765,"o":"m 737 868 q 489 894 614 894 q 293 856 340 894 q 268 825 277 843 q 259 780 259 808 q 285 706 259 739 q 356 647 312 674 q 473 586 399 621 l 494 576 q 642 499 590 531 q 728 417 694 467 q 765 290 763 367 q 716 129 765 198 q 576 23 667 60 q 362 -14 485 -14 q 101 33 237 -14 l 97 175 q 251 135 167 150 q 415 119 335 119 q 577 158 533 119 q 602 192 592 171 q 613 244 613 214 q 590 319 613 289 q 523 374 567 349 q 371 451 478 399 q 229 532 283 493 q 146 622 175 571 q 117 744 117 674 q 175 912 117 847 q 327 1004 233 976 q 535 1032 422 1032 q 728 1010 631 1032 l 737 868 m 344 1135 l 518 1135 l 689 1306 l 544 1306 l 431 1183 l 317 1306 l 173 1306 l 344 1135 z "},"Ş":{"ha":861,"x_min":97,"x_max":765,"o":"m 737 868 q 489 894 614 894 q 293 856 340 894 q 268 825 277 843 q 259 780 259 808 q 285 706 259 739 q 356 647 312 674 q 473 586 399 621 l 494 576 q 642 499 590 531 q 728 417 694 467 q 765 290 763 367 q 730 152 765 213 q 631 51 696 92 q 477 -4 567 11 l 478 -117 q 570 -167 540 -131 q 600 -269 600 -203 q 581 -350 600 -318 q 517 -400 563 -383 q 392 -417 472 -417 l 338 -417 l 338 -328 l 375 -328 q 458 -311 433 -328 q 483 -260 483 -294 q 457 -205 483 -223 q 383 -182 431 -187 l 383 -14 l 362 -14 q 101 33 237 -14 l 97 175 q 251 135 167 150 q 415 119 335 119 q 577 158 533 119 q 602 192 592 171 q 613 244 613 214 q 590 319 613 289 q 523 374 567 349 q 371 451 478 399 q 229 532 283 493 q 146 622 175 571 q 117 744 117 674 q 175 912 117 847 q 327 1004 233 976 q 535 1032 422 1032 q 728 1010 631 1032 l 737 868 z "},"Ŝ":{"ha":861,"x_min":97,"x_max":765,"o":"m 737 868 q 489 894 614 894 q 293 856 340 894 q 268 825 277 843 q 259 780 259 808 q 285 706 259 739 q 356 647 312 674 q 473 586 399 621 l 494 576 q 642 499 590 531 q 728 417 694 467 q 765 290 763 367 q 716 129 765 198 q 576 23 667 60 q 362 -14 485 -14 q 101 33 237 -14 l 97 175 q 251 135 167 150 q 415 119 335 119 q 577 158 533 119 q 602 192 592 171 q 613 244 613 214 q 590 319 613 289 q 523 374 567 349 q 371 451 478 399 q 229 532 283 493 q 146 622 175 571 q 117 744 117 674 q 175 912 117 847 q 327 1004 233 976 q 535 1032 422 1032 q 728 1010 631 1032 l 737 868 m 344 1306 l 518 1306 l 689 1135 l 544 1135 l 431 1258 l 317 1135 l 173 1135 l 344 1306 z "},"Ș":{"ha":861,"x_min":97,"x_max":765,"o":"m 737 868 q 489 894 614 894 q 293 856 340 894 q 268 825 277 843 q 259 780 259 808 q 285 706 259 739 q 356 647 312 674 q 473 586 399 621 l 494 576 q 642 499 590 531 q 728 417 694 467 q 765 290 763 367 q 716 129 765 198 q 576 23 667 60 q 362 -14 485 -14 q 101 33 237 -14 l 97 175 q 251 135 167 150 q 415 119 335 119 q 577 158 533 119 q 602 192 592 171 q 613 244 613 214 q 590 319 613 289 q 523 374 567 349 q 371 451 478 399 q 229 532 283 493 q 146 622 175 571 q 117 744 117 674 q 175 912 117 847 q 327 1004 233 976 q 535 1032 422 1032 q 728 1010 631 1032 l 737 868 m 429 -356 q 352 -329 382 -356 q 322 -258 322 -303 q 352 -186 322 -212 q 428 -160 382 -160 q 513 -194 481 -160 q 546 -292 546 -228 q 494 -434 546 -373 q 363 -532 442 -495 l 313 -471 q 400 -415 367 -441 q 448 -354 433 -389 q 429 -356 435 -356 z "},"ẞ":{"ha":861,"x_min":112,"x_max":821,"o":"m 112 0 l 112 1014 l 749 1014 l 749 917 l 617 573 q 764 483 708 545 q 821 319 821 421 q 776 165 821 233 q 651 53 732 97 q 463 -10 571 8 l 427 -15 l 404 105 l 457 113 q 563 149 517 120 q 635 223 610 178 q 661 319 661 267 q 609 448 661 401 q 478 525 556 495 l 478 599 l 588 890 l 265 890 l 265 0 l 112 0 z "},"T":{"ha":861,"x_min":64,"x_max":797,"o":"m 349 0 l 349 882 l 64 882 l 81 1014 l 780 1014 l 797 882 l 507 882 l 507 0 l 349 0 z "},"Ŧ":{"ha":861,"x_min":64,"x_max":797,"o":"m 181 583 l 349 583 l 349 882 l 64 882 l 81 1014 l 780 1014 l 797 882 l 507 882 l 507 583 l 681 583 l 681 451 l 507 451 l 507 0 l 349 0 l 349 451 l 181 451 l 181 583 z "},"Ť":{"ha":861,"x_min":64,"x_max":797,"o":"m 349 0 l 349 882 l 64 882 l 81 1014 l 780 1014 l 797 882 l 507 882 l 507 0 l 349 0 m 344 1135 l 518 1135 l 689 1306 l 544 1306 l 431 1183 l 317 1306 l 173 1306 l 344 1135 z "},"Ţ":{"ha":861,"x_min":64,"x_max":797,"o":"m 476 0 l 477 -117 q 568 -167 538 -131 q 599 -269 599 -203 q 580 -350 599 -318 q 516 -400 561 -383 q 391 -417 470 -417 l 336 -417 l 336 -328 l 374 -328 q 457 -311 432 -328 q 481 -260 481 -294 q 456 -205 481 -223 q 381 -182 430 -187 l 381 0 l 349 0 l 349 882 l 64 882 l 81 1014 l 780 1014 l 797 882 l 507 882 l 507 0 l 476 0 z "},"Ț":{"ha":861,"x_min":64,"x_max":797,"o":"m 349 0 l 349 882 l 64 882 l 81 1014 l 780 1014 l 797 882 l 507 882 l 507 0 l 349 0 m 428 -356 q 351 -329 381 -356 q 321 -258 321 -303 q 351 -186 321 -212 q 427 -160 381 -160 q 512 -194 479 -160 q 544 -292 544 -228 q 492 -434 544 -373 q 362 -532 440 -495 l 312 -471 q 398 -415 365 -441 q 447 -354 431 -389 q 428 -356 434 -356 z "},"U":{"ha":861,"x_min":100,"x_max":762,"o":"m 411 -13 q 238 26 307 -13 q 134 136 168 65 q 100 303 100 207 l 100 1014 l 260 1014 l 260 333 q 301 174 260 227 q 442 121 342 121 q 563 151 530 121 q 592 196 582 167 q 603 281 603 225 l 603 1014 l 762 1014 l 762 315 q 667 63 762 139 q 411 -13 572 -13 z "},"Ú":{"ha":861,"x_min":100,"x_max":762,"o":"m 411 -13 q 238 26 307 -13 q 134 136 168 65 q 100 303 100 207 l 100 1014 l 260 1014 l 260 333 q 301 174 260 227 q 442 121 342 121 q 563 151 530 121 q 592 196 582 167 q 603 281 603 225 l 603 1014 l 762 1014 l 762 315 q 667 63 762 139 q 411 -13 572 -13 m 497 1135 l 671 1306 l 502 1306 l 362 1135 l 497 1135 z "},"Ŭ":{"ha":861,"x_min":100,"x_max":762,"o":"m 411 -13 q 238 26 307 -13 q 134 136 168 65 q 100 303 100 207 l 100 1014 l 260 1014 l 260 333 q 301 174 260 227 q 442 121 342 121 q 563 151 530 121 q 592 196 582 167 q 603 281 603 225 l 603 1014 l 762 1014 l 762 315 q 667 63 762 139 q 411 -13 572 -13 m 313 1306 q 342 1234 313 1261 q 431 1208 370 1208 q 520 1234 491 1208 q 549 1306 549 1261 l 649 1306 q 597 1174 653 1221 q 431 1126 542 1126 q 264 1174 320 1126 q 213 1306 208 1222 l 313 1306 z "},"Û":{"ha":861,"x_min":100,"x_max":762,"o":"m 411 -13 q 238 26 307 -13 q 134 136 168 65 q 100 303 100 207 l 100 1014 l 260 1014 l 260 333 q 301 174 260 227 q 442 121 342 121 q 563 151 530 121 q 592 196 582 167 q 603 281 603 225 l 603 1014 l 762 1014 l 762 315 q 667 63 762 139 q 411 -13 572 -13 m 344 1306 l 518 1306 l 689 1135 l 544 1135 l 431 1258 l 317 1135 l 173 1135 l 344 1306 z "},"Ü":{"ha":861,"x_min":100,"x_max":762,"o":"m 411 -13 q 238 26 307 -13 q 134 136 168 65 q 100 303 100 207 l 100 1014 l 260 1014 l 260 333 q 301 174 260 227 q 442 121 342 121 q 563 151 530 121 q 592 196 582 167 q 603 281 603 225 l 603 1014 l 762 1014 l 762 315 q 667 63 762 139 q 411 -13 572 -13 m 248 1140 q 182 1163 207 1140 q 156 1227 156 1187 q 182 1290 156 1267 q 248 1313 207 1313 q 315 1290 290 1313 q 340 1227 340 1267 q 315 1163 340 1187 q 248 1140 290 1140 m 614 1140 q 548 1163 573 1140 q 522 1227 522 1187 q 548 1290 522 1267 q 614 1313 573 1313 q 681 1290 656 1313 q 706 1227 706 1267 q 681 1163 706 1187 q 614 1140 656 1140 z "},"Ụ":{"ha":861,"x_min":100,"x_max":762,"o":"m 411 -13 q 238 26 307 -13 q 134 136 168 65 q 100 303 100 207 l 100 1014 l 260 1014 l 260 333 q 301 174 260 227 q 442 121 342 121 q 563 151 530 121 q 592 196 582 167 q 603 281 603 225 l 603 1014 l 762 1014 l 762 315 q 667 63 762 139 q 411 -13 572 -13 m 431 -360 q 352 -333 382 -360 q 322 -260 322 -306 q 352 -187 322 -214 q 431 -160 382 -160 q 509 -187 479 -160 q 539 -260 539 -214 q 509 -333 539 -306 q 431 -360 479 -360 z "},"Ù":{"ha":861,"x_min":100,"x_max":762,"o":"m 411 -13 q 238 26 307 -13 q 134 136 168 65 q 100 303 100 207 l 100 1014 l 260 1014 l 260 333 q 301 174 260 227 q 442 121 342 121 q 563 151 530 121 q 592 196 582 167 q 603 281 603 225 l 603 1014 l 762 1014 l 762 315 q 667 63 762 139 q 411 -13 572 -13 m 365 1135 l 191 1306 l 359 1306 l 500 1135 l 365 1135 z "},"Ű":{"ha":861,"x_min":100,"x_max":762,"o":"m 411 -13 q 238 26 307 -13 q 134 136 168 65 q 100 303 100 207 l 100 1014 l 260 1014 l 260 333 q 301 174 260 227 q 442 121 342 121 q 563 151 530 121 q 592 196 582 167 q 603 281 603 225 l 603 1014 l 762 1014 l 762 315 q 667 63 762 139 q 411 -13 572 -13 m 333 1306 l 463 1306 l 345 1135 l 238 1135 l 333 1306 m 605 1306 l 735 1306 l 617 1135 l 510 1135 l 605 1306 z "},"Ū":{"ha":861,"x_min":100,"x_max":762,"o":"m 411 -13 q 238 26 307 -13 q 134 136 168 65 q 100 303 100 207 l 100 1014 l 260 1014 l 260 333 q 301 174 260 227 q 442 121 342 121 q 563 151 530 121 q 592 196 582 167 q 603 281 603 225 l 603 1014 l 762 1014 l 762 315 q 667 63 762 139 q 411 -13 572 -13 m 658 1188 l 203 1188 l 203 1290 l 658 1290 l 658 1188 z "},"Ų":{"ha":861,"x_min":100,"x_max":762,"o":"m 100 1014 l 260 1014 l 260 333 q 301 174 260 227 q 442 121 342 121 q 563 151 530 121 q 592 196 582 167 q 603 281 603 225 l 603 1014 l 762 1014 l 762 315 q 535 0 762 52 q 460 -76 483 -42 q 438 -138 438 -110 q 456 -178 438 -164 q 516 -192 474 -192 l 536 -192 l 536 -292 l 479 -292 q 341 -258 381 -292 q 301 -171 301 -224 q 323 -92 301 -130 q 389 -12 344 -53 q 173 78 245 -6 q 100 303 100 162 l 100 1014 z "},"Ů":{"ha":861,"x_min":100,"x_max":762,"o":"m 411 -13 q 238 26 307 -13 q 134 136 168 65 q 100 303 100 207 l 100 1014 l 260 1014 l 260 333 q 301 174 260 227 q 442 121 342 121 q 563 151 530 121 q 592 196 582 167 q 603 281 603 225 l 603 1014 l 762 1014 l 762 315 q 667 63 762 139 q 411 -13 572 -13 m 431 982 q 348 1003 384 982 q 291 1063 311 1025 q 270 1147 270 1100 q 291 1232 270 1194 q 348 1291 311 1269 q 431 1312 384 1312 q 514 1291 477 1312 q 571 1232 551 1269 q 592 1147 592 1194 q 571 1063 592 1100 q 514 1003 551 1025 q 431 982 477 982 m 431 1054 q 496 1080 472 1054 q 521 1147 521 1106 q 496 1214 521 1188 q 431 1240 472 1240 q 365 1214 390 1240 q 340 1147 340 1188 q 365 1080 340 1106 q 431 1054 390 1054 z "},"Ũ":{"ha":861,"x_min":100,"x_max":762,"o":"m 411 -13 q 238 26 307 -13 q 134 136 168 65 q 100 303 100 207 l 100 1014 l 260 1014 l 260 333 q 301 174 260 227 q 442 121 342 121 q 563 151 530 121 q 592 196 582 167 q 603 281 603 225 l 603 1014 l 762 1014 l 762 315 q 667 63 762 139 q 411 -13 572 -13 m 311 1319 q 379 1305 351 1319 q 441 1263 407 1290 q 485 1233 468 1242 q 524 1223 503 1223 q 574 1245 554 1223 q 602 1310 594 1267 l 706 1288 q 655 1168 697 1211 q 550 1126 614 1126 q 482 1140 510 1126 q 420 1181 454 1154 q 376 1212 392 1203 q 338 1222 359 1222 q 287 1199 308 1222 q 259 1134 267 1177 l 155 1156 q 206 1276 165 1234 q 311 1319 247 1319 z "},"V":{"ha":861,"x_min":71,"x_max":790,"o":"m 235 1014 q 431 200 289 544 l 444 200 q 640 1014 585 541 l 790 1014 q 689 489 756 740 q 506 0 622 238 l 360 0 q 175 486 242 239 q 71 1014 108 733 l 235 1014 z "},"W":{"ha":861,"x_min":23,"x_max":839,"o":"m 561 0 q 493 293 522 143 q 438 612 464 444 l 426 612 q 367 294 398 444 q 294 0 335 143 l 198 0 q 82 500 126 244 q 23 1014 39 756 l 172 1014 q 207 664 183 844 q 267 314 232 483 l 278 314 q 386 845 331 512 l 490 845 q 590 314 534 546 l 603 314 q 664 663 638 481 q 701 1014 689 844 l 839 1014 q 780 501 824 758 q 665 0 737 245 l 561 0 z "},"Ẃ":{"ha":861,"x_min":23,"x_max":839,"o":"m 561 0 q 493 293 522 143 q 438 612 464 444 l 426 612 q 367 294 398 444 q 294 0 335 143 l 198 0 q 82 500 126 244 q 23 1014 39 756 l 172 1014 q 207 664 183 844 q 267 314 232 483 l 278 314 q 386 845 331 512 l 490 845 q 590 314 534 546 l 603 314 q 664 663 638 481 q 701 1014 689 844 l 839 1014 q 780 501 824 758 q 665 0 737 245 l 561 0 m 497 1135 l 671 1306 l 502 1306 l 362 1135 l 497 1135 z "},"Ŵ":{"ha":861,"x_min":23,"x_max":839,"o":"m 561 0 q 493 293 522 143 q 438 612 464 444 l 426 612 q 367 294 398 444 q 294 0 335 143 l 198 0 q 82 500 126 244 q 23 1014 39 756 l 172 1014 q 207 664 183 844 q 267 314 232 483 l 278 314 q 386 845 331 512 l 490 845 q 590 314 534 546 l 603 314 q 664 663 638 481 q 701 1014 689 844 l 839 1014 q 780 501 824 758 q 665 0 737 245 l 561 0 m 344 1306 l 518 1306 l 689 1135 l 544 1135 l 431 1258 l 317 1135 l 173 1135 l 344 1306 z "},"Ẅ":{"ha":861,"x_min":23,"x_max":839,"o":"m 561 0 q 493 293 522 143 q 438 612 464 444 l 426 612 q 367 294 398 444 q 294 0 335 143 l 198 0 q 82 500 126 244 q 23 1014 39 756 l 172 1014 q 207 664 183 844 q 267 314 232 483 l 278 314 q 386 845 331 512 l 490 845 q 590 314 534 546 l 603 314 q 664 663 638 481 q 701 1014 689 844 l 839 1014 q 780 501 824 758 q 665 0 737 245 l 561 0 m 248 1140 q 182 1163 207 1140 q 156 1227 156 1187 q 182 1290 156 1267 q 248 1313 207 1313 q 315 1290 290 1313 q 340 1227 340 1267 q 315 1163 340 1187 q 248 1140 290 1140 m 614 1140 q 548 1163 573 1140 q 522 1227 522 1187 q 548 1290 522 1267 q 614 1313 573 1313 q 681 1290 656 1313 q 706 1227 706 1267 q 681 1163 706 1187 q 614 1140 656 1140 z "},"Ẁ":{"ha":861,"x_min":23,"x_max":839,"o":"m 561 0 q 493 293 522 143 q 438 612 464 444 l 426 612 q 367 294 398 444 q 294 0 335 143 l 198 0 q 82 500 126 244 q 23 1014 39 756 l 172 1014 q 207 664 183 844 q 267 314 232 483 l 278 314 q 386 845 331 512 l 490 845 q 590 314 534 546 l 603 314 q 664 663 638 481 q 701 1014 689 844 l 839 1014 q 780 501 824 758 q 665 0 737 245 l 561 0 m 365 1135 l 191 1306 l 359 1306 l 500 1135 l 365 1135 z "},"X":{"ha":861,"x_min":47,"x_max":815,"o":"m 231 1014 l 447 638 l 642 1014 l 807 1014 l 520 511 l 815 0 l 638 0 l 419 382 l 221 0 l 47 0 l 340 519 l 57 1014 l 231 1014 z "},"Y":{"ha":861,"x_min":47,"x_max":815,"o":"m 352 0 l 352 448 q 47 1014 140 724 l 213 1014 q 431 580 276 799 l 444 580 q 663 1014 599 799 l 815 1014 q 694 728 771 872 q 510 444 617 584 l 510 0 l 352 0 z "},"Ý":{"ha":861,"x_min":47,"x_max":815,"o":"m 352 0 l 352 448 q 47 1014 140 724 l 213 1014 q 431 580 276 799 l 444 580 q 663 1014 599 799 l 815 1014 q 694 728 771 872 q 510 444 617 584 l 510 0 l 352 0 m 497 1135 l 671 1306 l 503 1306 l 362 1135 l 497 1135 z "},"Ŷ":{"ha":861,"x_min":47,"x_max":815,"o":"m 352 0 l 352 448 q 47 1014 140 724 l 213 1014 q 431 580 276 799 l 444 580 q 663 1014 599 799 l 815 1014 q 694 728 771 872 q 510 444 617 584 l 510 0 l 352 0 m 344 1306 l 518 1306 l 689 1135 l 545 1135 l 431 1258 l 317 1135 l 173 1135 l 344 1306 z "},"Ÿ":{"ha":861,"x_min":47,"x_max":815,"o":"m 352 0 l 352 448 q 47 1014 140 724 l 213 1014 q 431 580 276 799 l 444 580 q 663 1014 599 799 l 815 1014 q 694 728 771 872 q 510 444 617 584 l 510 0 l 352 0 m 249 1140 q 182 1163 207 1140 q 156 1227 156 1187 q 182 1290 156 1267 q 249 1313 207 1313 q 315 1290 290 1313 q 340 1227 340 1267 q 315 1163 340 1187 q 249 1140 290 1140 m 615 1140 q 548 1163 573 1140 q 522 1227 522 1187 q 548 1290 522 1267 q 615 1313 573 1313 q 681 1290 656 1313 q 706 1227 706 1267 q 681 1163 706 1187 q 615 1140 656 1140 z "},"Ỳ":{"ha":861,"x_min":47,"x_max":815,"o":"m 352 0 l 352 448 q 47 1014 140 724 l 213 1014 q 431 580 276 799 l 444 580 q 663 1014 599 799 l 815 1014 q 694 728 771 872 q 510 444 617 584 l 510 0 l 352 0 m 365 1135 l 191 1306 l 360 1306 l 500 1135 l 365 1135 z "},"Ȳ":{"ha":861,"x_min":47,"x_max":815,"o":"m 352 0 l 352 448 q 47 1014 140 724 l 213 1014 q 431 580 276 799 l 444 580 q 663 1014 599 799 l 815 1014 q 694 728 771 872 q 510 444 617 584 l 510 0 l 352 0 m 659 1188 l 203 1188 l 203 1290 l 659 1290 l 659 1188 z "},"Ỹ":{"ha":861,"x_min":47,"x_max":815,"o":"m 352 0 l 352 448 q 47 1014 140 724 l 213 1014 q 431 580 276 799 l 444 580 q 663 1014 599 799 l 815 1014 q 694 728 771 872 q 510 444 617 584 l 510 0 l 352 0 m 311 1319 q 379 1305 351 1319 q 442 1263 408 1290 q 485 1233 468 1242 q 524 1223 503 1223 q 575 1245 554 1223 q 603 1310 595 1267 l 707 1288 q 655 1168 697 1210 q 550 1126 614 1126 q 482 1140 510 1126 q 420 1181 454 1154 q 376 1212 394 1202 q 338 1222 359 1222 q 288 1199 308 1222 q 260 1134 267 1177 l 156 1156 q 206 1276 165 1233 q 311 1319 247 1319 z "},"Z":{"ha":861,"x_min":81,"x_max":788,"o":"m 717 1014 l 733 933 l 301 137 l 788 137 l 738 0 l 115 0 l 101 85 l 536 885 l 81 885 l 126 1014 l 717 1014 z "},"Ź":{"ha":861,"x_min":81,"x_max":788,"o":"m 717 1014 l 733 933 l 301 137 l 788 137 l 738 0 l 115 0 l 101 85 l 536 885 l 81 885 l 126 1014 l 717 1014 m 497 1135 l 671 1306 l 502 1306 l 362 1135 l 497 1135 z "},"Ž":{"ha":861,"x_min":81,"x_max":788,"o":"m 717 1014 l 733 933 l 301 137 l 788 137 l 738 0 l 115 0 l 101 85 l 536 885 l 81 885 l 126 1014 l 717 1014 m 344 1135 l 518 1135 l 689 1306 l 544 1306 l 431 1183 l 317 1306 l 173 1306 l 344 1135 z "},"Ż":{"ha":861,"x_min":81,"x_max":788,"o":"m 717 1014 l 733 933 l 301 137 l 788 137 l 738 0 l 115 0 l 101 85 l 536 885 l 81 885 l 126 1014 l 717 1014 m 429 1140 q 361 1163 387 1140 q 335 1226 335 1187 q 361 1290 335 1267 q 429 1313 387 1313 q 497 1290 472 1313 q 523 1226 523 1267 q 497 1163 523 1187 q 429 1140 472 1140 z "},"a":{"ha":861,"x_min":88,"x_max":736,"o":"m 579 0 l 579 61 l 567 61 q 438 2 503 21 q 315 -16 372 -16 q 192 9 244 -16 q 115 78 141 34 q 88 177 88 122 q 236 361 88 308 q 579 420 383 414 l 579 501 q 542 580 579 556 q 440 604 504 604 q 114 540 292 604 l 135 688 q 289 725 208 711 q 450 739 370 739 q 667 689 597 739 q 736 532 736 639 l 736 0 l 579 0 m 246 204 q 283 126 246 156 q 383 97 320 97 q 477 111 424 97 q 579 148 529 124 l 579 313 l 535 314 q 328 294 397 314 q 264 260 283 282 q 246 204 246 238 z "},"á":{"ha":861,"x_min":88,"x_max":736,"o":"m 579 0 l 579 61 l 567 61 q 438 2 503 21 q 315 -16 372 -16 q 192 9 244 -16 q 115 78 141 34 q 88 177 88 122 q 236 361 88 308 q 579 420 383 414 l 579 501 q 542 580 579 556 q 440 604 504 604 q 114 540 292 604 l 135 688 q 289 725 208 711 q 450 739 370 739 q 667 689 597 739 q 736 532 736 639 l 736 0 l 579 0 m 497 885 l 671 1125 l 502 1125 l 362 885 l 497 885 m 246 204 q 283 126 246 156 q 383 97 320 97 q 477 111 424 97 q 579 148 529 124 l 579 313 l 535 314 q 328 294 397 314 q 264 260 283 282 q 246 204 246 238 z "},"ă":{"ha":861,"x_min":88,"x_max":736,"o":"m 579 0 l 579 61 l 567 61 q 438 2 503 21 q 315 -16 372 -16 q 192 9 244 -16 q 115 78 141 34 q 88 177 88 122 q 236 361 88 308 q 579 420 383 414 l 579 501 q 542 580 579 556 q 440 604 504 604 q 114 540 292 604 l 135 688 q 289 725 208 711 q 450 739 370 739 q 667 689 597 739 q 736 532 736 639 l 736 0 l 579 0 m 313 1125 q 341 1017 313 1054 q 431 980 369 980 q 520 1017 492 980 q 549 1125 549 1054 l 649 1125 q 598 942 653 1005 q 431 879 542 879 q 264 942 319 879 q 213 1125 208 1006 l 313 1125 m 246 204 q 283 126 246 156 q 383 97 320 97 q 477 111 424 97 q 579 148 529 124 l 579 313 l 535 314 q 328 294 397 314 q 264 260 283 282 q 246 204 246 238 z "},"â":{"ha":861,"x_min":88,"x_max":736,"o":"m 579 0 l 579 61 l 567 61 q 438 2 503 21 q 315 -16 372 -16 q 192 9 244 -16 q 115 78 141 34 q 88 177 88 122 q 236 361 88 308 q 579 420 383 414 l 579 501 q 542 580 579 556 q 440 604 504 604 q 114 540 292 604 l 135 688 q 289 725 208 711 q 450 739 370 739 q 667 689 597 739 q 736 532 736 639 l 736 0 l 579 0 m 347 1125 l 515 1125 l 689 885 l 551 885 l 431 1063 l 310 885 l 173 885 l 347 1125 m 246 204 q 283 126 246 156 q 383 97 320 97 q 477 111 424 97 q 579 148 529 124 l 579 313 l 535 314 q 328 294 397 314 q 264 260 283 282 q 246 204 246 238 z "},"ä":{"ha":861,"x_min":88,"x_max":736,"o":"m 579 0 l 579 61 l 567 61 q 438 2 503 21 q 315 -16 372 -16 q 192 9 244 -16 q 115 78 141 34 q 88 177 88 122 q 236 361 88 308 q 579 420 383 414 l 579 501 q 542 580 579 556 q 440 604 504 604 q 114 540 292 604 l 135 688 q 289 725 208 711 q 450 739 370 739 q 667 689 597 739 q 736 532 736 639 l 736 0 l 579 0 m 248 882 q 176 909 203 882 q 149 983 149 937 q 176 1055 149 1028 q 248 1081 203 1081 q 319 1055 292 1081 q 347 983 347 1028 q 319 909 347 937 q 248 882 292 882 m 614 882 q 542 909 569 882 q 515 983 515 937 q 542 1055 515 1028 q 614 1081 569 1081 q 685 1055 658 1081 q 713 983 713 1028 q 685 909 713 937 q 614 882 658 882 m 246 204 q 283 126 246 156 q 383 97 320 97 q 477 111 424 97 q 579 148 529 124 l 579 313 l 535 314 q 328 294 397 314 q 264 260 283 282 q 246 204 246 238 z "},"à":{"ha":861,"x_min":88,"x_max":736,"o":"m 579 0 l 579 61 l 567 61 q 438 2 503 21 q 315 -16 372 -16 q 192 9 244 -16 q 115 78 141 34 q 88 177 88 122 q 236 361 88 308 q 579 420 383 414 l 579 501 q 542 580 579 556 q 440 604 504 604 q 114 540 292 604 l 135 688 q 289 725 208 711 q 450 739 370 739 q 667 689 597 739 q 736 532 736 639 l 736 0 l 579 0 m 365 885 l 191 1125 l 359 1125 l 500 885 l 365 885 m 246 204 q 283 126 246 156 q 383 97 320 97 q 477 111 424 97 q 579 148 529 124 l 579 313 l 535 314 q 328 294 397 314 q 264 260 283 282 q 246 204 246 238 z "},"ā":{"ha":861,"x_min":88,"x_max":736,"o":"m 579 0 l 579 61 l 567 61 q 438 2 503 21 q 315 -16 372 -16 q 192 9 244 -16 q 115 78 141 34 q 88 177 88 122 q 236 361 88 308 q 579 420 383 414 l 579 501 q 542 580 579 556 q 440 604 504 604 q 114 540 292 604 l 135 688 q 289 725 208 711 q 450 739 370 739 q 667 689 597 739 q 736 532 736 639 l 736 0 l 579 0 m 658 916 l 203 916 l 203 1018 l 658 1018 l 658 916 m 246 204 q 283 126 246 156 q 383 97 320 97 q 477 111 424 97 q 579 148 529 124 l 579 313 l 535 314 q 328 294 397 314 q 264 260 283 282 q 246 204 246 238 z "},"ą":{"ha":861,"x_min":88,"x_max":736,"o":"m 736 0 q 661 -76 684 -42 q 638 -138 638 -110 q 656 -178 638 -164 q 716 -192 674 -192 l 736 -192 l 736 -292 l 679 -292 q 542 -258 581 -292 q 502 -171 502 -224 q 527 -86 502 -126 q 603 0 551 -46 l 579 0 l 579 61 l 567 61 q 438 2 503 21 q 315 -16 372 -16 q 192 9 244 -16 q 115 78 141 34 q 88 177 88 122 q 236 361 88 308 q 579 420 383 414 l 579 501 q 542 580 579 556 q 440 604 504 604 q 114 540 292 604 l 135 688 q 289 725 208 711 q 450 739 370 739 q 667 689 597 739 q 736 532 736 639 l 736 0 m 246 204 q 283 126 246 156 q 383 97 320 97 q 477 111 424 97 q 579 148 529 124 l 579 313 l 535 314 q 328 294 397 314 q 264 260 283 282 q 246 204 246 238 z "},"å":{"ha":861,"x_min":88,"x_max":736,"o":"m 579 0 l 579 61 l 567 61 q 438 2 503 21 q 315 -16 372 -16 q 192 9 244 -16 q 115 78 141 34 q 88 177 88 122 q 236 361 88 308 q 579 420 383 414 l 579 501 q 542 580 579 556 q 440 604 504 604 q 114 540 292 604 l 135 688 q 289 725 208 711 q 450 739 370 739 q 667 689 597 739 q 736 532 736 639 l 736 0 l 579 0 m 431 842 q 348 864 384 842 q 291 923 311 885 q 270 1008 270 960 q 291 1092 270 1055 q 348 1151 311 1130 q 431 1172 384 1172 q 514 1151 477 1172 q 571 1092 551 1130 q 592 1008 592 1055 q 571 923 592 960 q 514 864 551 885 q 431 842 477 842 m 431 915 q 496 941 472 915 q 521 1008 521 967 q 496 1074 521 1048 q 431 1100 472 1100 q 365 1074 390 1100 q 340 1008 340 1048 q 365 941 340 967 q 431 915 390 915 m 246 204 q 283 126 246 156 q 383 97 320 97 q 477 111 424 97 q 579 148 529 124 l 579 313 l 535 314 q 328 294 397 314 q 264 260 283 282 q 246 204 246 238 z "},"ã":{"ha":861,"x_min":88,"x_max":736,"o":"m 579 0 l 579 61 l 567 61 q 438 2 503 21 q 315 -16 372 -16 q 192 9 244 -16 q 115 78 141 34 q 88 177 88 122 q 236 361 88 308 q 579 420 383 414 l 579 501 q 542 580 579 556 q 440 604 504 604 q 114 540 292 604 l 135 688 q 289 725 208 711 q 450 739 370 739 q 667 689 597 739 q 736 532 736 639 l 736 0 l 579 0 m 306 1122 q 358 1110 334 1122 q 399 1084 381 1099 q 440 1044 417 1069 q 485 1002 467 1016 q 523 989 503 989 q 572 1021 553 989 q 599 1112 592 1053 l 703 1082 q 652 924 693 980 q 548 867 611 867 q 497 878 520 867 q 456 905 473 889 q 415 945 438 920 q 370 987 388 974 q 333 1000 353 1000 q 284 968 303 1000 q 256 877 265 935 l 152 907 q 203 1065 162 1009 q 306 1122 244 1122 m 246 204 q 283 126 246 156 q 383 97 320 97 q 477 111 424 97 q 579 148 529 124 l 579 313 l 535 314 q 328 294 397 314 q 264 260 283 282 q 246 204 246 238 z "},"æ":{"ha":861,"x_min":40,"x_max":818,"o":"m 620 -17 q 449 69 510 -17 l 423 69 q 332 5 383 27 q 226 -17 280 -17 q 128 7 171 -17 q 63 74 86 31 q 40 173 40 117 q 91 310 40 257 q 218 389 142 364 q 378 419 294 414 l 378 494 q 343 581 378 553 q 259 608 308 608 q 168 591 219 608 q 65 544 117 574 l 85 688 q 174 725 126 712 q 269 739 222 739 q 378 716 329 739 q 455 647 427 693 q 530 716 485 694 q 623 739 574 739 q 770 661 722 739 q 818 442 818 583 l 818 351 l 501 351 q 542 175 506 241 q 653 110 578 110 q 717 119 683 110 q 793 145 751 128 l 788 27 q 620 -17 699 -17 m 168 202 q 197 124 168 153 q 279 94 226 94 q 346 105 310 94 q 415 134 382 115 q 383 313 387 208 q 244 295 301 313 q 185 259 201 281 q 168 202 168 236 m 702 441 l 703 465 q 676 584 703 542 q 603 626 650 626 q 542 601 563 626 q 516 544 527 584 q 502 441 506 505 l 702 441 z "},"ǽ":{"ha":861,"x_min":40,"x_max":818,"o":"m 620 -17 q 449 69 510 -17 l 423 69 q 332 5 383 27 q 226 -17 280 -17 q 128 7 171 -17 q 63 74 86 31 q 40 173 40 117 q 91 310 40 257 q 218 389 142 364 q 378 419 294 414 l 378 494 q 343 581 378 553 q 259 608 308 608 q 168 591 219 608 q 65 544 117 574 l 85 688 q 174 725 126 712 q 269 739 222 739 q 378 716 329 739 q 455 647 427 693 q 530 716 485 694 q 623 739 574 739 q 770 661 722 739 q 818 442 818 583 l 818 351 l 501 351 q 542 175 506 241 q 653 110 578 110 q 717 119 683 110 q 793 145 751 128 l 788 27 q 620 -17 699 -17 m 497 885 l 671 1125 l 502 1125 l 362 885 l 497 885 m 168 202 q 197 124 168 153 q 279 94 226 94 q 346 105 310 94 q 415 134 382 115 q 383 313 387 208 q 244 295 301 313 q 185 259 201 281 q 168 202 168 236 m 702 441 l 703 465 q 676 584 703 542 q 603 626 650 626 q 542 601 563 626 q 516 544 527 584 q 502 441 506 505 l 702 441 z "},"b":{"ha":861,"x_min":101,"x_max":792,"o":"m 792 397 q 741 171 792 264 q 601 31 690 78 q 401 -16 512 -16 q 185 33 285 -16 l 144 0 l 101 0 l 101 1063 l 259 1063 l 259 644 l 267 644 q 375 713 317 688 q 506 738 433 738 q 661 697 597 738 q 759 579 726 656 q 792 397 792 503 m 259 139 q 428 101 340 101 q 494 109 465 101 q 549 135 522 117 q 606 208 584 158 q 627 359 627 259 q 585 545 627 474 q 437 617 544 617 q 259 572 358 617 l 259 139 z "},"c":{"ha":861,"x_min":108,"x_max":758,"o":"m 543 739 q 744 712 644 739 l 757 567 q 619 587 690 580 q 492 594 548 594 q 397 585 433 594 q 335 559 360 577 q 285 497 306 538 q 264 384 264 455 q 339 185 264 251 q 538 119 413 119 q 758 153 634 119 l 751 28 q 509 -17 642 -17 q 291 26 381 -17 q 155 152 201 69 q 108 351 108 235 q 166 572 108 485 q 322 699 224 658 q 543 739 420 739 z "},"ć":{"ha":861,"x_min":108,"x_max":758,"o":"m 543 739 q 744 712 644 739 l 757 567 q 619 587 690 580 q 492 594 548 594 q 397 585 433 594 q 335 559 360 577 q 285 497 306 538 q 264 384 264 455 q 339 185 264 251 q 538 119 413 119 q 758 153 634 119 l 751 28 q 509 -17 642 -17 q 291 26 381 -17 q 155 152 201 69 q 108 351 108 235 q 166 572 108 485 q 322 699 224 658 q 543 739 420 739 m 542 885 l 716 1125 l 547 1125 l 407 885 l 542 885 z "},"č":{"ha":861,"x_min":108,"x_max":758,"o":"m 543 739 q 744 712 644 739 l 757 567 q 619 587 690 580 q 492 594 548 594 q 397 585 433 594 q 335 559 360 577 q 285 497 306 538 q 264 384 264 455 q 339 185 264 251 q 538 119 413 119 q 758 153 634 119 l 751 28 q 509 -17 642 -17 q 291 26 381 -17 q 155 152 201 69 q 108 351 108 235 q 166 572 108 485 q 322 699 224 658 q 543 739 420 739 m 392 885 l 560 885 l 734 1125 l 597 1125 l 476 947 l 355 1125 l 218 1125 l 392 885 z "},"ç":{"ha":861,"x_min":108,"x_max":758,"o":"m 543 739 q 744 712 644 739 l 757 567 q 619 587 690 580 q 492 594 548 594 q 397 585 433 594 q 335 559 360 577 q 285 497 306 538 q 264 384 264 455 q 339 185 264 251 q 538 119 413 119 q 758 153 634 119 l 751 28 q 509 -17 642 -17 l 477 -16 l 478 -117 q 570 -167 540 -131 q 600 -269 600 -203 q 581 -350 600 -318 q 517 -400 563 -383 q 392 -417 472 -417 l 338 -417 l 338 -328 l 375 -328 q 458 -311 433 -328 q 483 -260 483 -294 q 457 -205 483 -223 q 383 -182 431 -187 l 383 -4 q 178 116 249 24 q 108 351 108 207 q 166 572 108 485 q 322 699 224 658 q 543 739 420 739 z "},"ĉ":{"ha":861,"x_min":108,"x_max":758,"o":"m 543 739 q 744 712 644 739 l 757 567 q 619 587 690 580 q 492 594 548 594 q 397 585 433 594 q 335 559 360 577 q 285 497 306 538 q 264 384 264 455 q 339 185 264 251 q 538 119 413 119 q 758 153 634 119 l 751 28 q 509 -17 642 -17 q 291 26 381 -17 q 155 152 201 69 q 108 351 108 235 q 166 572 108 485 q 322 699 224 658 q 543 739 420 739 m 392 1125 l 560 1125 l 734 885 l 597 885 l 476 1063 l 355 885 l 218 885 l 392 1125 z "},"ċ":{"ha":861,"x_min":108,"x_max":758,"o":"m 543 739 q 744 712 644 739 l 757 567 q 619 587 690 580 q 492 594 548 594 q 397 585 433 594 q 335 559 360 577 q 285 497 306 538 q 264 384 264 455 q 339 185 264 251 q 538 119 413 119 q 758 153 634 119 l 751 28 q 509 -17 642 -17 q 291 26 381 -17 q 155 152 201 69 q 108 351 108 235 q 166 572 108 485 q 322 699 224 658 q 543 739 420 739 m 476 883 q 397 911 427 883 q 367 984 367 938 q 397 1057 367 1030 q 476 1083 427 1083 q 554 1057 524 1083 q 584 984 584 1030 q 554 911 584 938 q 476 883 524 883 z "},"d":{"ha":861,"x_min":69,"x_max":760,"o":"m 69 325 q 120 552 69 459 q 260 692 172 645 q 460 738 349 738 q 603 718 534 738 l 603 1063 l 760 1063 l 760 0 l 613 0 l 613 78 l 594 78 q 356 -16 488 -16 q 200 25 265 -16 q 102 143 135 67 q 69 325 69 220 m 235 364 q 276 177 235 248 q 424 106 317 106 q 603 151 501 106 l 603 584 q 433 622 519 622 q 368 614 397 622 q 312 588 340 606 q 256 514 278 565 q 235 364 235 463 z "},"ď":{"ha":861,"x_min":74,"x_max":931,"o":"m 74 325 q 122 550 74 457 q 250 691 169 643 q 429 738 331 738 q 541 720 483 738 l 541 1063 l 695 1063 l 695 0 l 551 0 l 551 78 l 535 78 q 440 8 488 33 q 331 -16 392 -16 q 192 25 250 -16 q 105 143 135 67 q 74 325 74 220 m 806 1155 l 931 1155 l 903 901 l 795 901 l 806 1155 m 229 364 q 265 177 229 249 q 390 106 301 106 q 541 149 450 106 l 541 594 q 426 622 479 622 q 355 613 388 622 q 298 587 321 604 q 248 513 266 562 q 229 364 229 463 z "},"đ":{"ha":861,"x_min":69,"x_max":828,"o":"m 69 325 q 120 552 69 459 q 260 692 172 645 q 460 738 349 738 q 603 718 534 738 l 603 872 l 293 872 l 293 962 l 603 962 l 603 1063 l 760 1063 l 760 962 l 828 962 l 828 872 l 760 872 l 760 0 l 613 0 l 613 78 l 594 78 q 356 -16 488 -16 q 200 25 265 -16 q 102 143 135 67 q 69 325 69 220 m 235 364 q 276 177 235 248 q 424 106 317 106 q 603 151 501 106 l 603 584 q 433 622 519 622 q 368 614 397 622 q 312 588 340 606 q 256 514 278 565 q 235 364 235 463 z "},"ð":{"ha":861,"x_min":77,"x_max":782,"o":"m 720 990 l 553 925 l 592 876 q 731 640 680 762 q 782 378 782 518 q 732 153 782 242 q 600 24 681 64 q 424 -17 519 -17 q 244 24 322 -17 q 121 144 165 65 q 77 335 77 223 q 128 536 77 455 q 258 655 178 617 q 424 694 337 694 q 544 674 485 694 q 453 813 513 729 q 410 870 429 846 l 201 790 l 172 869 l 352 939 l 273 1025 l 410 1078 q 493 993 464 1025 l 691 1069 l 720 990 m 233 351 q 248 229 233 283 q 308 138 263 175 q 440 101 354 101 q 562 131 519 101 q 609 203 590 151 q 629 356 629 256 q 604 533 629 448 q 417 578 524 578 q 297 549 340 578 q 252 483 270 531 q 233 351 233 435 z "},"e":{"ha":861,"x_min":98,"x_max":763,"o":"m 326 592 q 280 538 300 574 q 253 444 259 502 l 617 444 l 617 465 q 576 586 617 546 q 449 626 534 626 q 326 592 369 626 m 98 342 q 151 563 98 474 q 293 696 205 653 q 483 739 381 739 q 695 659 628 739 q 763 442 763 578 l 763 354 l 251 354 q 282 224 256 278 q 366 140 308 171 q 522 110 424 110 q 732 145 630 110 l 726 27 q 479 -17 608 -17 q 195 75 293 -17 q 98 342 98 167 z "},"é":{"ha":861,"x_min":98,"x_max":763,"o":"m 326 592 q 280 538 300 574 q 253 444 259 502 l 617 444 l 617 465 q 576 586 617 546 q 449 626 534 626 q 326 592 369 626 m 510 885 l 685 1125 l 516 1125 l 376 885 l 510 885 m 98 342 q 151 563 98 474 q 293 696 205 653 q 483 739 381 739 q 695 659 628 739 q 763 442 763 578 l 763 354 l 251 354 q 282 224 256 278 q 366 140 308 171 q 522 110 424 110 q 732 145 630 110 l 726 27 q 479 -17 608 -17 q 195 75 293 -17 q 98 342 98 167 z "},"ĕ":{"ha":861,"x_min":98,"x_max":763,"o":"m 326 592 q 280 538 300 574 q 253 444 259 502 l 617 444 l 617 465 q 576 586 617 546 q 449 626 534 626 q 326 592 369 626 m 327 1125 q 355 1017 327 1054 q 444 980 383 980 q 534 1017 506 980 q 563 1125 563 1054 l 663 1125 q 611 942 667 1005 q 444 879 556 879 q 277 942 333 879 q 227 1125 222 1006 l 327 1125 m 98 342 q 151 563 98 474 q 293 696 205 653 q 483 739 381 739 q 695 659 628 739 q 763 442 763 578 l 763 354 l 251 354 q 282 224 256 278 q 366 140 308 171 q 522 110 424 110 q 732 145 630 110 l 726 27 q 479 -17 608 -17 q 195 75 293 -17 q 98 342 98 167 z "},"ě":{"ha":861,"x_min":98,"x_max":763,"o":"m 326 592 q 280 538 300 574 q 253 444 259 502 l 617 444 l 617 465 q 576 586 617 546 q 449 626 534 626 q 326 592 369 626 m 361 885 l 528 885 l 703 1125 l 565 1125 l 444 947 l 324 1125 l 187 1125 l 361 885 m 98 342 q 151 563 98 474 q 293 696 205 653 q 483 739 381 739 q 695 659 628 739 q 763 442 763 578 l 763 354 l 251 354 q 282 224 256 278 q 366 140 308 171 q 522 110 424 110 q 732 145 630 110 l 726 27 q 479 -17 608 -17 q 195 75 293 -17 q 98 342 98 167 z "},"ê":{"ha":861,"x_min":98,"x_max":763,"o":"m 326 592 q 280 538 300 574 q 253 444 259 502 l 617 444 l 617 465 q 576 586 617 546 q 449 626 534 626 q 326 592 369 626 m 361 1125 l 528 1125 l 703 885 l 565 885 l 444 1063 l 324 885 l 187 885 l 361 1125 m 98 342 q 151 563 98 474 q 293 696 205 653 q 483 739 381 739 q 695 659 628 739 q 763 442 763 578 l 763 354 l 251 354 q 282 224 256 278 q 366 140 308 171 q 522 110 424 110 q 732 145 630 110 l 726 27 q 479 -17 608 -17 q 195 75 293 -17 q 98 342 98 167 z "},"ë":{"ha":861,"x_min":98,"x_max":763,"o":"m 326 592 q 280 538 300 574 q 253 444 259 502 l 617 444 l 617 465 q 576 586 617 546 q 449 626 534 626 q 326 592 369 626 m 262 882 q 190 909 217 882 q 163 983 163 937 q 190 1055 163 1028 q 262 1081 217 1081 q 333 1055 306 1081 q 360 983 360 1028 q 333 909 360 937 q 262 882 306 882 m 628 882 q 556 909 583 882 q 528 983 528 937 q 556 1055 528 1028 q 628 1081 583 1081 q 699 1055 672 1081 q 726 983 726 1028 q 699 909 726 937 q 628 882 672 882 m 98 342 q 151 563 98 474 q 293 696 205 653 q 483 739 381 739 q 695 659 628 739 q 763 442 763 578 l 763 354 l 251 354 q 282 224 256 278 q 366 140 308 171 q 522 110 424 110 q 732 145 630 110 l 726 27 q 479 -17 608 -17 q 195 75 293 -17 q 98 342 98 167 z "},"ė":{"ha":861,"x_min":98,"x_max":763,"o":"m 326 592 q 280 538 300 574 q 253 444 259 502 l 617 444 l 617 465 q 576 586 617 546 q 449 626 534 626 q 326 592 369 626 m 444 883 q 366 911 396 883 q 336 984 336 938 q 366 1057 336 1030 q 444 1083 396 1083 q 523 1057 493 1083 q 553 984 553 1030 q 523 911 553 938 q 444 883 493 883 m 98 342 q 151 563 98 474 q 293 696 205 653 q 483 739 381 739 q 695 659 628 739 q 763 442 763 578 l 763 354 l 251 354 q 282 224 256 278 q 366 140 308 171 q 522 110 424 110 q 732 145 630 110 l 726 27 q 479 -17 608 -17 q 195 75 293 -17 q 98 342 98 167 z "},"ẹ":{"ha":861,"x_min":98,"x_max":763,"o":"m 326 592 q 280 538 300 574 q 253 444 259 502 l 617 444 l 617 465 q 576 586 617 546 q 449 626 534 626 q 326 592 369 626 m 431 -360 q 352 -333 382 -360 q 322 -260 322 -306 q 352 -187 322 -214 q 431 -160 382 -160 q 509 -187 479 -160 q 539 -260 539 -214 q 509 -333 539 -306 q 431 -360 479 -360 m 98 342 q 151 563 98 474 q 293 696 205 653 q 483 739 381 739 q 695 659 628 739 q 763 442 763 578 l 763 354 l 251 354 q 282 224 256 278 q 366 140 308 171 q 522 110 424 110 q 732 145 630 110 l 726 27 q 479 -17 608 -17 q 195 75 293 -17 q 98 342 98 167 z "},"è":{"ha":861,"x_min":98,"x_max":763,"o":"m 326 592 q 280 538 300 574 q 253 444 259 502 l 617 444 l 617 465 q 576 586 617 546 q 449 626 534 626 q 326 592 369 626 m 379 885 l 205 1125 l 373 1125 l 514 885 l 379 885 m 98 342 q 151 563 98 474 q 293 696 205 653 q 483 739 381 739 q 695 659 628 739 q 763 442 763 578 l 763 354 l 251 354 q 282 224 256 278 q 366 140 308 171 q 522 110 424 110 q 732 145 630 110 l 726 27 q 479 -17 608 -17 q 195 75 293 -17 q 98 342 98 167 z "},"ē":{"ha":861,"x_min":98,"x_max":763,"o":"m 326 592 q 280 538 300 574 q 253 444 259 502 l 617 444 l 617 465 q 576 586 617 546 q 449 626 534 626 q 326 592 369 626 m 672 916 l 217 916 l 217 1018 l 672 1018 l 672 916 m 98 342 q 151 563 98 474 q 293 696 205 653 q 483 739 381 739 q 695 659 628 739 q 763 442 763 578 l 763 354 l 251 354 q 282 224 256 278 q 366 140 308 171 q 522 110 424 110 q 732 145 630 110 l 726 27 q 479 -17 608 -17 q 195 75 293 -17 q 98 342 98 167 z "},"ę":{"ha":861,"x_min":98,"x_max":763,"o":"m 326 592 q 280 538 300 574 q 253 444 259 502 l 617 444 l 617 465 q 576 586 617 546 q 449 626 534 626 q 326 592 369 626 m 98 342 q 151 563 98 474 q 293 696 205 653 q 483 739 381 739 q 695 659 628 739 q 763 442 763 578 l 763 354 l 251 354 q 282 224 256 278 q 366 140 308 171 q 522 110 424 110 q 732 145 630 110 l 726 27 q 556 -12 644 -3 q 487 -84 508 -52 q 466 -144 466 -117 q 484 -184 466 -170 q 544 -198 502 -198 l 564 -198 l 564 -299 l 507 -299 q 369 -265 409 -299 q 330 -177 330 -231 q 352 -96 330 -135 q 422 -15 375 -57 q 181 90 263 -1 q 98 342 98 181 z "},"ẽ":{"ha":861,"x_min":98,"x_max":763,"o":"m 326 592 q 280 538 300 574 q 253 444 259 502 l 617 444 l 617 465 q 576 586 617 546 q 449 626 534 626 q 326 592 369 626 m 320 1122 q 372 1110 348 1122 q 413 1084 395 1099 q 454 1044 431 1069 q 499 1002 481 1016 q 537 989 517 989 q 586 1021 567 989 q 613 1112 606 1053 l 717 1082 q 666 924 707 980 q 562 867 625 867 q 510 878 534 867 q 469 905 487 889 q 428 945 452 920 q 384 987 401 974 q 347 1000 367 1000 q 298 968 317 1000 q 270 877 278 935 l 166 907 q 217 1065 176 1009 q 320 1122 258 1122 m 98 342 q 151 563 98 474 q 293 696 205 653 q 483 739 381 739 q 695 659 628 739 q 763 442 763 578 l 763 354 l 251 354 q 282 224 256 278 q 366 140 308 171 q 522 110 424 110 q 732 145 630 110 l 726 27 q 479 -17 608 -17 q 195 75 293 -17 q 98 342 98 167 z "},"ə":{"ha":861,"x_min":99,"x_max":764,"o":"m 535 130 q 609 278 597 176 l 245 278 l 244 258 q 286 136 244 176 q 413 97 328 97 q 535 130 492 97 m 99 368 l 610 368 q 579 498 605 444 q 495 582 553 551 q 339 613 438 613 q 130 578 234 613 l 135 696 q 383 739 255 739 q 666 647 569 739 q 764 381 764 555 q 710 159 764 249 q 569 26 657 69 q 378 -17 481 -17 q 166 64 234 -17 q 99 281 99 144 l 99 368 z "},"f":{"ha":861,"x_min":71,"x_max":825,"o":"m 825 968 q 627 992 740 992 q 550 983 581 992 q 503 958 519 974 q 480 919 488 944 q 472 853 472 895 l 472 722 l 806 722 l 781 601 l 472 601 l 472 121 l 702 121 l 684 0 l 144 0 l 126 121 l 313 121 l 313 601 l 71 601 l 71 672 l 313 728 l 313 735 q 403 1020 313 917 q 676 1123 494 1123 q 800 1109 741 1123 l 825 968 z "},"g":{"ha":861,"x_min":40,"x_max":815,"o":"m 345 259 l 327 205 q 324 185 324 192 q 333 164 324 170 q 360 153 342 157 l 626 106 q 714 82 676 97 q 780 35 753 67 q 807 -52 807 2 q 748 -187 807 -131 q 590 -272 690 -243 q 368 -301 490 -301 q 200 -283 274 -301 q 83 -228 126 -265 q 40 -134 40 -190 q 66 -57 40 -92 q 151 16 93 -21 l 229 64 q 202 118 202 88 q 211 161 202 138 q 235 217 220 185 l 246 239 l 261 274 q 131 357 179 299 q 83 489 83 415 q 126 619 83 562 q 243 708 169 676 q 410 740 318 740 q 603 689 524 740 q 693 728 642 710 q 792 748 744 745 l 815 639 l 649 629 q 706 499 706 575 q 661 373 706 428 q 541 288 617 317 q 376 258 466 258 l 345 259 m 559 478 q 515 592 559 551 q 372 632 471 632 q 260 607 293 632 q 232 515 232 583 q 276 401 232 442 q 419 360 320 360 q 531 386 500 360 q 559 478 559 408 m 191 -103 q 246 -176 191 -152 q 397 -199 301 -199 q 532 -186 472 -199 q 628 -148 593 -173 q 664 -90 664 -124 q 635 -44 664 -61 q 549 -17 607 -27 l 342 20 q 301 30 317 25 q 222 -30 252 2 q 191 -103 191 -62 z "},"ğ":{"ha":861,"x_min":40,"x_max":815,"o":"m 345 259 l 327 205 q 324 185 324 192 q 333 164 324 170 q 360 153 342 157 l 626 106 q 714 82 676 97 q 780 35 753 67 q 807 -52 807 2 q 748 -187 807 -131 q 590 -272 690 -243 q 368 -301 490 -301 q 200 -283 274 -301 q 83 -228 126 -265 q 40 -134 40 -190 q 66 -57 40 -92 q 151 16 93 -21 l 229 64 q 202 118 202 88 q 211 161 202 138 q 235 217 220 185 l 246 239 l 261 274 q 131 357 179 299 q 83 489 83 415 q 126 619 83 562 q 243 708 169 676 q 410 740 318 740 q 603 689 524 740 q 693 728 642 710 q 792 748 744 745 l 815 639 l 649 629 q 706 499 706 575 q 661 373 706 428 q 541 288 617 317 q 376 258 466 258 l 345 259 m 559 478 q 515 592 559 551 q 372 632 471 632 q 260 607 293 632 q 232 515 232 583 q 276 401 232 442 q 419 360 320 360 q 531 386 500 360 q 559 478 559 408 m 313 1125 q 341 1017 313 1054 q 431 980 369 980 q 520 1017 492 980 q 549 1125 549 1054 l 649 1125 q 598 942 653 1005 q 431 879 542 879 q 264 942 319 879 q 213 1125 208 1006 l 313 1125 m 191 -103 q 246 -176 191 -152 q 397 -199 301 -199 q 532 -186 472 -199 q 628 -148 593 -173 q 664 -90 664 -124 q 635 -44 664 -61 q 549 -17 607 -27 l 342 20 q 301 30 317 25 q 222 -30 252 2 q 191 -103 191 -62 z "},"ǧ":{"ha":861,"x_min":40,"x_max":815,"o":"m 345 259 l 327 205 q 324 185 324 192 q 333 164 324 170 q 360 153 342 157 l 626 106 q 714 82 676 97 q 780 35 753 67 q 807 -52 807 2 q 748 -187 807 -131 q 590 -272 690 -243 q 368 -301 490 -301 q 200 -283 274 -301 q 83 -228 126 -265 q 40 -134 40 -190 q 66 -57 40 -92 q 151 16 93 -21 l 229 64 q 202 118 202 88 q 211 161 202 138 q 235 217 220 185 l 246 239 l 261 274 q 131 357 179 299 q 83 489 83 415 q 126 619 83 562 q 243 708 169 676 q 410 740 318 740 q 603 689 524 740 q 693 728 642 710 q 792 748 744 745 l 815 639 l 649 629 q 706 499 706 575 q 661 373 706 428 q 541 288 617 317 q 376 258 466 258 l 345 259 m 559 478 q 515 592 559 551 q 372 632 471 632 q 260 607 293 632 q 232 515 232 583 q 276 401 232 442 q 419 360 320 360 q 531 386 500 360 q 559 478 559 408 m 347 885 l 515 885 l 689 1125 l 551 1125 l 431 947 l 310 1125 l 173 1125 l 347 885 m 191 -103 q 246 -176 191 -152 q 397 -199 301 -199 q 532 -186 472 -199 q 628 -148 593 -173 q 664 -90 664 -124 q 635 -44 664 -61 q 549 -17 607 -27 l 342 20 q 301 30 317 25 q 222 -30 252 2 q 191 -103 191 -62 z "},"ĝ":{"ha":861,"x_min":40,"x_max":815,"o":"m 345 259 l 327 205 q 324 185 324 192 q 333 164 324 170 q 360 153 342 157 l 626 106 q 714 82 676 97 q 780 35 753 67 q 807 -52 807 2 q 748 -187 807 -131 q 590 -272 690 -243 q 368 -301 490 -301 q 200 -283 274 -301 q 83 -228 126 -265 q 40 -134 40 -190 q 66 -57 40 -92 q 151 16 93 -21 l 229 64 q 202 118 202 88 q 211 161 202 138 q 235 217 220 185 l 246 239 l 261 274 q 131 357 179 299 q 83 489 83 415 q 126 619 83 562 q 243 708 169 676 q 410 740 318 740 q 603 689 524 740 q 693 728 642 710 q 792 748 744 745 l 815 639 l 649 629 q 706 499 706 575 q 661 373 706 428 q 541 288 617 317 q 376 258 466 258 l 345 259 m 559 478 q 515 592 559 551 q 372 632 471 632 q 260 607 293 632 q 232 515 232 583 q 276 401 232 442 q 419 360 320 360 q 531 386 500 360 q 559 478 559 408 m 347 1125 l 515 1125 l 689 885 l 551 885 l 431 1063 l 310 885 l 173 885 l 347 1125 m 191 -103 q 246 -176 191 -152 q 397 -199 301 -199 q 532 -186 472 -199 q 628 -148 593 -173 q 664 -90 664 -124 q 635 -44 664 -61 q 549 -17 607 -27 l 342 20 q 301 30 317 25 q 222 -30 252 2 q 191 -103 191 -62 z "},"ģ":{"ha":861,"x_min":40,"x_max":815,"o":"m 345 259 l 327 205 q 324 185 324 192 q 333 164 324 170 q 360 153 342 157 l 626 106 q 714 82 676 97 q 780 35 753 67 q 807 -52 807 2 q 748 -187 807 -131 q 590 -272 690 -243 q 368 -301 490 -301 q 200 -283 274 -301 q 83 -228 126 -265 q 40 -134 40 -190 q 66 -57 40 -92 q 151 16 93 -21 l 229 64 q 202 118 202 88 q 211 161 202 138 q 235 217 220 185 l 246 239 l 261 274 q 131 357 179 299 q 83 489 83 415 q 126 619 83 562 q 243 708 169 676 q 410 740 318 740 q 603 689 524 740 q 693 728 642 710 q 792 748 744 745 l 815 639 l 649 629 q 706 499 706 575 q 661 373 706 428 q 541 288 617 317 q 376 258 466 258 l 345 259 m 559 478 q 515 592 559 551 q 372 632 471 632 q 260 607 293 632 q 232 515 232 583 q 276 401 232 442 q 419 360 320 360 q 531 386 500 360 q 559 478 559 408 m 432 1079 q 510 1052 480 1079 q 540 981 540 1026 q 510 910 540 936 q 433 884 480 884 q 348 918 381 884 q 315 1016 315 951 q 367 1157 315 1097 q 499 1256 419 1218 l 549 1194 q 461 1138 494 1163 q 413 1078 428 1112 q 432 1079 426 1079 m 191 -103 q 246 -176 191 -152 q 397 -199 301 -199 q 532 -186 472 -199 q 628 -148 593 -173 q 664 -90 664 -124 q 635 -44 664 -61 q 549 -17 607 -27 l 342 20 q 301 30 317 25 q 222 -30 252 2 q 191 -103 191 -62 z "},"ġ":{"ha":861,"x_min":40,"x_max":815,"o":"m 345 259 l 327 205 q 324 185 324 192 q 333 164 324 170 q 360 153 342 157 l 626 106 q 714 82 676 97 q 780 35 753 67 q 807 -52 807 2 q 748 -187 807 -131 q 590 -272 690 -243 q 368 -301 490 -301 q 200 -283 274 -301 q 83 -228 126 -265 q 40 -134 40 -190 q 66 -57 40 -92 q 151 16 93 -21 l 229 64 q 202 118 202 88 q 211 161 202 138 q 235 217 220 185 l 246 239 l 261 274 q 131 357 179 299 q 83 489 83 415 q 126 619 83 562 q 243 708 169 676 q 410 740 318 740 q 603 689 524 740 q 693 728 642 710 q 792 748 744 745 l 815 639 l 649 629 q 706 499 706 575 q 661 373 706 428 q 541 288 617 317 q 376 258 466 258 l 345 259 m 559 478 q 515 592 559 551 q 372 632 471 632 q 260 607 293 632 q 232 515 232 583 q 276 401 232 442 q 419 360 320 360 q 531 386 500 360 q 559 478 559 408 m 431 883 q 352 911 382 883 q 322 984 322 938 q 352 1057 322 1030 q 431 1083 382 1083 q 509 1057 479 1083 q 539 984 539 1030 q 509 911 539 938 q 431 883 479 883 m 191 -103 q 246 -176 191 -152 q 397 -199 301 -199 q 532 -186 472 -199 q 628 -148 593 -173 q 664 -90 664 -124 q 635 -44 664 -61 q 549 -17 607 -27 l 342 20 q 301 30 317 25 q 222 -30 252 2 q 191 -103 191 -62 z "},"h":{"ha":861,"x_min":117,"x_max":744,"o":"m 585 0 l 585 501 q 555 588 585 562 q 470 615 526 615 q 274 547 376 615 l 274 0 l 117 0 l 117 1063 l 274 1063 l 274 628 l 281 628 q 399 709 332 679 q 540 738 465 738 q 688 688 635 738 q 741 549 740 638 l 744 0 l 585 0 z "},"ħ":{"ha":861,"x_min":33,"x_max":744,"o":"m 585 0 l 585 501 q 555 588 585 562 q 470 615 526 615 q 274 547 376 615 l 274 0 l 117 0 l 117 872 l 33 872 l 33 962 l 117 962 l 117 1063 l 274 1063 l 274 962 l 568 962 l 568 872 l 274 872 l 274 628 l 281 628 q 399 709 332 679 q 540 738 465 738 q 688 688 635 738 q 741 549 740 638 l 744 0 l 585 0 z "},"ĥ":{"ha":861,"x_min":-60,"x_max":744,"o":"m 585 0 l 585 501 q 555 588 585 562 q 470 615 526 615 q 274 547 376 615 l 274 0 l 117 0 l 117 1063 l 274 1063 l 274 628 l 281 628 q 399 709 332 679 q 540 738 465 738 q 688 688 635 738 q 741 549 740 638 l 744 0 l 585 0 m 110 1355 l 285 1355 l 456 1184 l 311 1184 l 197 1306 l 83 1184 l -60 1184 l 110 1355 z "},"i":{"ha":861,"x_min":105,"x_max":744,"o":"m 349 598 l 105 598 l 119 722 l 507 722 l 507 215 q 516 158 507 180 q 546 125 524 136 q 607 114 567 114 q 744 140 662 114 l 733 21 q 545 -16 643 -16 q 432 4 475 -16 q 369 68 390 24 q 349 186 349 113 l 349 598 m 403 883 q 325 911 355 883 q 295 984 295 938 q 325 1057 295 1030 q 403 1083 355 1083 q 482 1057 452 1083 q 512 984 512 1030 q 482 911 512 938 q 403 883 452 883 z "},"ı":{"ha":861,"x_min":105,"x_max":744,"o":"m 349 598 l 105 598 l 119 722 l 507 722 l 507 215 q 516 158 507 180 q 546 125 524 136 q 607 114 567 114 q 744 140 662 114 l 733 21 q 545 -16 643 -16 q 432 4 475 -16 q 369 68 390 24 q 349 186 349 113 l 349 598 z "},"í":{"ha":861,"x_min":105,"x_max":744,"o":"m 349 598 l 105 598 l 119 722 l 507 722 l 507 215 q 516 158 507 180 q 546 125 524 136 q 607 114 567 114 q 744 140 662 114 l 733 21 q 545 -16 643 -16 q 432 4 475 -16 q 369 68 390 24 q 349 186 349 113 l 349 598 m 469 885 l 644 1125 l 475 1125 l 335 885 l 469 885 z "},"ĭ":{"ha":861,"x_min":105,"x_max":744,"o":"m 349 598 l 105 598 l 119 722 l 507 722 l 507 215 q 516 158 507 180 q 546 125 524 136 q 607 114 567 114 q 744 140 662 114 l 733 21 q 545 -16 643 -16 q 432 4 475 -16 q 369 68 390 24 q 349 186 349 113 l 349 598 m 286 1125 q 314 1017 286 1054 q 403 980 342 980 q 493 1017 465 980 q 522 1125 522 1054 l 622 1125 q 570 942 626 1005 q 403 879 515 879 q 236 942 292 879 q 186 1125 181 1006 l 286 1125 z "},"î":{"ha":861,"x_min":105,"x_max":744,"o":"m 349 598 l 105 598 l 119 722 l 507 722 l 507 215 q 516 158 507 180 q 546 125 524 136 q 607 114 567 114 q 744 140 662 114 l 733 21 q 545 -16 643 -16 q 432 4 475 -16 q 369 68 390 24 q 349 186 349 113 l 349 598 m 320 1125 l 488 1125 l 662 885 l 524 885 l 403 1063 l 283 885 l 146 885 l 320 1125 z "},"ï":{"ha":861,"x_min":105,"x_max":744,"o":"m 349 598 l 105 598 l 119 722 l 507 722 l 507 215 q 516 158 507 180 q 546 125 524 136 q 607 114 567 114 q 744 140 662 114 l 733 21 q 545 -16 643 -16 q 432 4 475 -16 q 369 68 390 24 q 349 186 349 113 l 349 598 m 221 882 q 149 909 176 882 q 122 983 122 937 q 149 1055 122 1028 q 221 1081 176 1081 q 292 1055 265 1081 q 319 983 319 1028 q 292 909 319 937 q 221 882 265 882 m 587 882 q 515 909 542 882 q 488 983 488 937 q 515 1055 488 1028 q 587 1081 542 1081 q 658 1055 631 1081 q 685 983 685 1028 q 658 909 685 937 q 587 882 631 882 z "},"ị":{"ha":861,"x_min":105,"x_max":744,"o":"m 349 598 l 105 598 l 119 722 l 507 722 l 507 215 q 516 158 507 180 q 546 125 524 136 q 607 114 567 114 q 744 140 662 114 l 733 21 q 545 -16 643 -16 q 432 4 475 -16 q 369 68 390 24 q 349 186 349 113 l 349 598 m 403 883 q 325 911 355 883 q 295 984 295 938 q 325 1057 295 1030 q 403 1083 355 1083 q 482 1057 452 1083 q 512 984 512 1030 q 482 911 512 938 q 403 883 452 883 m 431 -360 q 352 -333 382 -360 q 322 -260 322 -306 q 352 -187 322 -214 q 431 -160 382 -160 q 509 -187 479 -160 q 539 -260 539 -214 q 509 -333 539 -306 q 431 -360 479 -360 z "},"ì":{"ha":861,"x_min":105,"x_max":744,"o":"m 349 598 l 105 598 l 119 722 l 507 722 l 507 215 q 516 158 507 180 q 546 125 524 136 q 607 114 567 114 q 744 140 662 114 l 733 21 q 545 -16 643 -16 q 432 4 475 -16 q 369 68 390 24 q 349 186 349 113 l 349 598 m 338 885 l 164 1125 l 332 1125 l 473 885 l 338 885 z "},"ī":{"ha":861,"x_min":105,"x_max":744,"o":"m 349 598 l 105 598 l 119 722 l 507 722 l 507 215 q 516 158 507 180 q 546 125 524 136 q 607 114 567 114 q 744 140 662 114 l 733 21 q 545 -16 643 -16 q 432 4 475 -16 q 369 68 390 24 q 349 186 349 113 l 349 598 m 631 916 l 176 916 l 176 1018 l 631 1018 l 631 916 z "},"į":{"ha":861,"x_min":105,"x_max":744,"o":"m 349 598 l 105 598 l 119 722 l 507 722 l 507 215 q 516 158 507 180 q 546 125 524 136 q 607 114 567 114 q 744 140 662 114 l 733 21 q 653 -4 692 5 q 582 -78 603 -45 q 560 -138 560 -110 q 578 -178 560 -164 q 638 -192 597 -192 l 658 -192 l 658 -292 l 601 -292 q 464 -258 503 -292 q 424 -171 424 -224 q 445 -92 424 -130 q 510 -15 466 -55 q 387 40 425 -7 q 349 186 349 87 l 349 598 m 403 883 q 325 911 355 883 q 295 984 295 938 q 325 1057 295 1030 q 403 1083 355 1083 q 482 1057 452 1083 q 512 984 512 1030 q 482 911 512 938 q 403 883 452 883 z "},"ĳ":{"ha":861,"x_min":59,"x_max":765,"o":"m 239 883 q 160 911 190 883 q 131 984 131 938 q 160 1057 131 1030 q 239 1083 190 1083 q 317 1057 288 1083 q 347 984 347 1030 q 317 911 347 938 q 239 883 288 883 m 759 722 l 759 40 q 717 -163 759 -86 q 594 -275 675 -240 q 391 -309 513 -309 q 320 -305 351 -309 q 257 -294 289 -301 l 232 -154 q 416 -178 317 -178 q 501 -168 461 -178 q 560 -142 540 -158 q 599 -28 599 -111 l 599 598 l 469 598 l 487 722 l 759 722 m 657 883 q 578 911 608 883 q 549 984 549 938 q 578 1057 549 1030 q 657 1083 608 1083 q 735 1057 706 1083 q 765 984 765 1030 q 735 911 765 938 q 657 883 706 883 m 189 598 l 59 598 l 73 722 l 346 722 l 343 188 q 357 135 343 150 q 406 119 372 119 q 444 124 426 119 q 486 135 463 128 l 477 12 q 351 -16 419 -16 q 258 2 293 -16 q 205 61 222 21 q 188 170 188 102 l 189 598 z "},"j":{"ha":861,"x_min":84,"x_max":641,"o":"m 635 722 l 635 40 q 592 -164 635 -87 q 463 -275 549 -240 q 242 -309 377 -309 q 109 -294 174 -309 l 84 -154 q 267 -178 169 -178 q 372 -168 329 -178 q 436 -142 415 -158 q 476 -28 476 -110 l 476 598 l 113 598 l 131 722 l 635 722 m 533 883 q 454 911 484 883 q 424 984 424 938 q 454 1057 424 1030 q 533 1083 484 1083 q 611 1057 581 1083 q 641 984 641 1030 q 611 911 641 938 q 533 883 581 883 z "},"ȷ":{"ha":861,"x_min":84,"x_max":635,"o":"m 635 722 l 635 40 q 592 -164 635 -87 q 463 -275 549 -240 q 242 -309 377 -309 q 109 -294 174 -309 l 84 -154 q 267 -178 169 -178 q 372 -168 329 -178 q 436 -142 415 -158 q 476 -28 476 -110 l 476 598 l 113 598 l 131 722 l 635 722 z "},"ĵ":{"ha":861,"x_min":84,"x_max":791,"o":"m 635 722 l 635 40 q 592 -164 635 -87 q 463 -275 549 -240 q 242 -309 377 -309 q 109 -294 174 -309 l 84 -154 q 267 -178 169 -178 q 372 -168 329 -178 q 436 -142 415 -158 q 476 -28 476 -110 l 476 598 l 113 598 l 131 722 l 635 722 m 449 1125 l 617 1125 l 791 885 l 653 885 l 533 1063 l 412 885 l 275 885 l 449 1125 z "},"k":{"ha":861,"x_min":117,"x_max":844,"o":"m 274 1063 l 274 448 l 389 448 q 621 722 527 588 l 796 722 q 664 561 731 635 q 513 407 597 488 l 513 398 q 687 211 605 307 q 844 0 769 116 l 649 0 q 527 168 590 90 q 392 324 465 247 l 274 324 l 274 0 l 117 0 l 117 1063 l 274 1063 z "},"ķ":{"ha":861,"x_min":117,"x_max":844,"o":"m 274 1063 l 274 448 l 389 448 q 621 722 527 588 l 796 722 q 664 561 731 635 q 513 407 597 488 l 513 398 q 687 211 605 307 q 844 0 769 116 l 649 0 q 527 168 590 90 q 392 324 465 247 l 274 324 l 274 0 l 117 0 l 117 1063 l 274 1063 m 429 -356 q 352 -329 382 -356 q 322 -258 322 -303 q 352 -186 322 -212 q 428 -160 382 -160 q 513 -194 481 -160 q 546 -292 546 -228 q 494 -434 546 -373 q 363 -532 442 -495 l 313 -471 q 400 -415 367 -441 q 448 -354 433 -389 q 429 -356 435 -356 z "},"ĸ":{"ha":861,"x_min":117,"x_max":844,"o":"m 117 0 l 117 723 l 274 723 l 274 448 l 389 448 q 621 722 527 588 l 796 722 q 664 561 731 635 q 513 407 597 488 l 513 398 q 687 211 605 307 q 844 0 769 116 l 649 0 q 527 168 590 90 q 392 324 465 247 l 274 324 l 274 0 l 117 0 z "},"l":{"ha":861,"x_min":105,"x_max":744,"o":"m 349 938 l 105 938 l 119 1063 l 507 1063 l 507 215 q 516 158 507 180 q 546 125 524 136 q 607 114 567 114 q 744 140 662 114 l 733 21 q 545 -16 643 -16 q 432 4 475 -16 q 369 68 390 24 q 349 186 349 113 l 349 938 z "},"ĺ":{"ha":861,"x_min":105,"x_max":744,"o":"m 349 938 l 105 938 l 119 1063 l 507 1063 l 507 215 q 516 158 507 180 q 546 125 524 136 q 607 114 567 114 q 744 140 662 114 l 733 21 q 545 -16 643 -16 q 432 4 475 -16 q 369 68 390 24 q 349 186 349 113 l 349 938 m 497 1184 l 671 1354 l 502 1354 l 362 1184 l 497 1184 z "},"ľ":{"ha":861,"x_min":105,"x_max":785,"o":"m 349 938 l 105 938 l 119 1063 l 507 1063 l 507 215 q 516 158 507 180 q 546 125 524 136 q 607 114 567 114 q 744 140 662 114 l 733 21 q 545 -16 643 -16 q 432 4 475 -16 q 369 68 390 24 q 349 186 349 113 l 349 938 m 649 1155 l 785 1155 l 756 901 l 637 901 l 649 1155 z "},"ļ":{"ha":861,"x_min":105,"x_max":744,"o":"m 349 938 l 105 938 l 119 1063 l 507 1063 l 507 215 q 516 158 507 180 q 546 125 524 136 q 607 114 567 114 q 744 140 662 114 l 733 21 q 545 -16 643 -16 q 432 4 475 -16 q 369 68 390 24 q 349 186 349 113 l 349 938 m 531 -364 q 454 -337 484 -364 q 424 -266 424 -310 q 454 -195 424 -221 q 531 -169 484 -169 q 615 -202 583 -169 q 648 -301 648 -236 q 596 -442 648 -381 q 465 -540 544 -503 l 415 -478 q 502 -422 469 -448 q 550 -362 535 -397 q 531 -364 538 -364 z "},"ŀ":{"ha":861,"x_min":105,"x_max":854,"o":"m 763 484 q 697 509 722 484 q 672 576 672 534 q 697 642 672 617 q 763 666 722 666 q 829 642 804 666 q 854 576 854 617 q 829 509 854 534 q 763 484 803 484 m 349 938 l 105 938 l 119 1063 l 507 1063 l 507 215 q 516 158 507 180 q 546 125 524 136 q 607 114 567 114 q 744 140 662 114 l 733 21 q 545 -16 643 -16 q 432 4 475 -16 q 369 68 390 24 q 349 186 349 113 l 349 938 z "},"ł":{"ha":861,"x_min":105,"x_max":744,"o":"m 702 660 l 507 565 l 507 215 q 516 158 507 180 q 546 125 524 136 q 607 114 567 114 q 744 140 662 114 l 733 21 q 545 -16 643 -16 q 432 4 475 -16 q 369 68 390 24 q 349 186 349 113 l 349 488 l 159 396 l 159 533 l 349 625 l 349 938 l 105 938 l 119 1063 l 507 1063 l 507 702 l 702 797 l 702 660 z "},"m":{"ha":861,"x_min":94,"x_max":767,"o":"m 361 0 l 361 547 q 312 608 361 608 q 231 571 273 608 l 231 0 l 94 0 l 94 722 l 223 722 l 223 628 l 231 628 q 294 708 255 678 q 388 738 334 738 q 464 711 438 738 q 496 628 491 685 l 502 628 q 565 708 526 678 q 656 738 603 738 q 738 705 710 738 q 765 601 765 672 l 767 0 l 630 0 l 630 547 q 580 608 630 608 q 497 570 540 608 l 499 0 l 361 0 z "},"n":{"ha":861,"x_min":117,"x_max":744,"o":"m 585 0 l 585 501 q 555 588 585 562 q 470 615 526 615 q 274 547 376 615 l 274 0 l 117 0 l 117 722 l 266 722 l 266 628 l 274 628 q 394 708 324 678 q 540 738 464 738 q 688 688 635 738 q 741 549 740 638 l 744 0 l 585 0 z "},"ń":{"ha":861,"x_min":117,"x_max":744,"o":"m 585 0 l 585 501 q 555 588 585 562 q 470 615 526 615 q 274 547 376 615 l 274 0 l 117 0 l 117 722 l 266 722 l 266 628 l 274 628 q 394 708 324 678 q 540 738 464 738 q 688 688 635 738 q 741 549 740 638 l 744 0 l 585 0 m 497 885 l 671 1125 l 502 1125 l 362 885 l 497 885 z "},"ň":{"ha":861,"x_min":117,"x_max":744,"o":"m 585 0 l 585 501 q 555 588 585 562 q 470 615 526 615 q 274 547 376 615 l 274 0 l 117 0 l 117 722 l 266 722 l 266 628 l 274 628 q 394 708 324 678 q 540 738 464 738 q 688 688 635 738 q 741 549 740 638 l 744 0 l 585 0 m 347 885 l 515 885 l 689 1125 l 551 1125 l 431 947 l 310 1125 l 173 1125 l 347 885 z "},"ņ":{"ha":861,"x_min":117,"x_max":744,"o":"m 585 0 l 585 501 q 555 588 585 562 q 470 615 526 615 q 274 547 376 615 l 274 0 l 117 0 l 117 722 l 266 722 l 266 628 l 274 628 q 394 708 324 678 q 540 738 464 738 q 688 688 635 738 q 741 549 740 638 l 744 0 l 585 0 m 429 -356 q 352 -329 382 -356 q 322 -258 322 -303 q 352 -186 322 -212 q 428 -160 382 -160 q 513 -194 481 -160 q 546 -292 546 -228 q 494 -434 546 -373 q 363 -532 442 -495 l 313 -471 q 400 -415 367 -441 q 448 -354 433 -389 q 429 -356 435 -356 z "},"ɲ":{"ha":861,"x_min":-51,"x_max":744,"o":"m 63 -269 q -31 -248 18 -269 l -51 -117 q 42 -141 -1 -141 q 98 -124 80 -141 q 114 -88 111 -112 q 117 0 117 -65 l 117 722 l 266 722 l 266 628 l 274 628 q 394 708 324 678 q 540 738 464 738 q 688 688 635 738 q 741 549 740 638 l 744 0 l 585 0 l 585 501 q 555 588 585 562 q 470 615 526 615 q 274 547 376 615 l 274 -25 q 247 -155 274 -100 q 170 -240 219 -210 q 63 -269 122 -269 z "},"ñ":{"ha":861,"x_min":117,"x_max":744,"o":"m 585 0 l 585 501 q 555 588 585 562 q 470 615 526 615 q 274 547 376 615 l 274 0 l 117 0 l 117 722 l 266 722 l 266 628 l 274 628 q 394 708 324 678 q 540 738 464 738 q 688 688 635 738 q 741 549 740 638 l 744 0 l 585 0 m 306 1122 q 358 1110 334 1122 q 399 1084 381 1099 q 440 1044 417 1069 q 485 1002 467 1016 q 523 989 503 989 q 572 1021 553 989 q 599 1112 592 1053 l 703 1082 q 652 924 693 980 q 548 867 611 867 q 497 878 520 867 q 456 905 473 889 q 415 945 438 920 q 370 987 388 974 q 333 1000 353 1000 q 284 968 303 1000 q 256 877 265 935 l 152 907 q 203 1065 162 1009 q 306 1122 244 1122 z "},"ŋ":{"ha":861,"x_min":117,"x_max":744,"o":"m 531 -269 q 438 -248 487 -269 l 417 -117 q 506 -141 467 -141 q 565 -124 547 -141 q 582 -88 578 -112 q 585 0 585 -65 l 585 501 q 555 588 585 562 q 470 615 526 615 q 274 547 376 615 l 274 0 l 117 0 l 117 722 l 266 722 l 266 628 l 274 628 q 394 708 324 678 q 540 738 464 738 q 688 688 635 738 q 741 549 740 638 l 744 14 l 744 -25 q 716 -155 744 -100 q 639 -240 688 -210 q 531 -269 591 -269 z "},"o":{"ha":861,"x_min":77,"x_max":782,"o":"m 424 -17 q 244 27 323 -17 q 121 156 165 71 q 77 359 77 240 q 129 574 77 489 q 264 699 181 660 q 441 739 347 739 q 618 695 540 739 q 739 567 695 651 q 782 363 782 482 q 732 148 782 233 q 600 23 681 63 q 424 -17 519 -17 m 440 101 q 562 131 519 101 q 607 198 588 149 q 626 332 626 247 q 611 481 626 419 q 551 583 597 543 q 418 623 506 623 q 348 616 378 623 q 297 594 319 608 q 252 528 270 576 q 233 393 233 479 q 248 243 233 306 q 308 141 263 181 q 440 101 353 101 z "},"ó":{"ha":861,"x_min":77,"x_max":782,"o":"m 424 -17 q 244 27 323 -17 q 121 156 165 71 q 77 359 77 240 q 129 574 77 489 q 264 699 181 660 q 441 739 347 739 q 618 695 540 739 q 739 567 695 651 q 782 363 782 482 q 732 148 782 233 q 600 23 681 63 q 424 -17 519 -17 m 440 101 q 562 131 519 101 q 607 198 588 149 q 626 332 626 247 q 611 481 626 419 q 551 583 597 543 q 418 623 506 623 q 348 616 378 623 q 297 594 319 608 q 252 528 270 576 q 233 393 233 479 q 248 243 233 306 q 308 141 263 181 q 440 101 353 101 m 497 885 l 671 1125 l 502 1125 l 362 885 l 497 885 z "},"ŏ":{"ha":861,"x_min":77,"x_max":782,"o":"m 424 -17 q 244 27 323 -17 q 121 156 165 71 q 77 359 77 240 q 129 574 77 489 q 264 699 181 660 q 441 739 347 739 q 618 695 540 739 q 739 567 695 651 q 782 363 782 482 q 732 148 782 233 q 600 23 681 63 q 424 -17 519 -17 m 440 101 q 562 131 519 101 q 607 198 588 149 q 626 332 626 247 q 611 481 626 419 q 551 583 597 543 q 418 623 506 623 q 348 616 378 623 q 297 594 319 608 q 252 528 270 576 q 233 393 233 479 q 248 243 233 306 q 308 141 263 181 q 440 101 353 101 m 313 1125 q 341 1017 313 1054 q 431 980 369 980 q 520 1017 492 980 q 549 1125 549 1054 l 649 1125 q 598 942 653 1005 q 431 879 542 879 q 264 942 319 879 q 213 1125 208 1006 l 313 1125 z "},"ô":{"ha":861,"x_min":77,"x_max":782,"o":"m 424 -17 q 244 27 323 -17 q 121 156 165 71 q 77 359 77 240 q 129 574 77 489 q 264 699 181 660 q 441 739 347 739 q 618 695 540 739 q 739 567 695 651 q 782 363 782 482 q 732 148 782 233 q 600 23 681 63 q 424 -17 519 -17 m 440 101 q 562 131 519 101 q 607 198 588 149 q 626 332 626 247 q 611 481 626 419 q 551 583 597 543 q 418 623 506 623 q 348 616 378 623 q 297 594 319 608 q 252 528 270 576 q 233 393 233 479 q 248 243 233 306 q 308 141 263 181 q 440 101 353 101 m 347 1125 l 515 1125 l 689 885 l 551 885 l 431 1063 l 310 885 l 173 885 l 347 1125 z "},"ö":{"ha":861,"x_min":77,"x_max":782,"o":"m 424 -17 q 244 27 323 -17 q 121 156 165 71 q 77 359 77 240 q 129 574 77 489 q 264 699 181 660 q 441 739 347 739 q 618 695 540 739 q 739 567 695 651 q 782 363 782 482 q 732 148 782 233 q 600 23 681 63 q 424 -17 519 -17 m 440 101 q 562 131 519 101 q 607 198 588 149 q 626 332 626 247 q 611 481 626 419 q 551 583 597 543 q 418 623 506 623 q 348 616 378 623 q 297 594 319 608 q 252 528 270 576 q 233 393 233 479 q 248 243 233 306 q 308 141 263 181 q 440 101 353 101 m 248 882 q 176 909 203 882 q 149 983 149 937 q 176 1055 149 1028 q 248 1081 203 1081 q 319 1055 292 1081 q 347 983 347 1028 q 319 909 347 937 q 248 882 292 882 m 614 882 q 542 909 569 882 q 515 983 515 937 q 542 1055 515 1028 q 614 1081 569 1081 q 685 1055 658 1081 q 713 983 713 1028 q 685 909 713 937 q 614 882 658 882 z "},"ọ":{"ha":861,"x_min":77,"x_max":782,"o":"m 424 -17 q 244 27 323 -17 q 121 156 165 71 q 77 359 77 240 q 129 574 77 489 q 264 699 181 660 q 441 739 347 739 q 618 695 540 739 q 739 567 695 651 q 782 363 782 482 q 732 148 782 233 q 600 23 681 63 q 424 -17 519 -17 m 440 101 q 562 131 519 101 q 607 198 588 149 q 626 332 626 247 q 611 481 626 419 q 551 583 597 543 q 418 623 506 623 q 348 616 378 623 q 297 594 319 608 q 252 528 270 576 q 233 393 233 479 q 248 243 233 306 q 308 141 263 181 q 440 101 353 101 m 431 -360 q 352 -333 382 -360 q 322 -260 322 -306 q 352 -187 322 -214 q 431 -160 382 -160 q 509 -187 479 -160 q 539 -260 539 -214 q 509 -333 539 -306 q 431 -360 479 -360 z "},"ò":{"ha":861,"x_min":77,"x_max":782,"o":"m 424 -17 q 244 27 323 -17 q 121 156 165 71 q 77 359 77 240 q 129 574 77 489 q 264 699 181 660 q 441 739 347 739 q 618 695 540 739 q 739 567 695 651 q 782 363 782 482 q 732 148 782 233 q 600 23 681 63 q 424 -17 519 -17 m 440 101 q 562 131 519 101 q 607 198 588 149 q 626 332 626 247 q 611 481 626 419 q 551 583 597 543 q 418 623 506 623 q 348 616 378 623 q 297 594 319 608 q 252 528 270 576 q 233 393 233 479 q 248 243 233 306 q 308 141 263 181 q 440 101 353 101 m 365 885 l 191 1125 l 359 1125 l 500 885 l 365 885 z "},"ő":{"ha":861,"x_min":77,"x_max":782,"o":"m 424 -17 q 244 27 323 -17 q 121 156 165 71 q 77 359 77 240 q 129 574 77 489 q 264 699 181 660 q 441 739 347 739 q 618 695 540 739 q 739 567 695 651 q 782 363 782 482 q 732 148 782 233 q 600 23 681 63 q 424 -17 519 -17 m 440 101 q 562 131 519 101 q 607 198 588 149 q 626 332 626 247 q 611 481 626 419 q 551 583 597 543 q 418 623 506 623 q 348 616 378 623 q 297 594 319 608 q 252 528 270 576 q 233 393 233 479 q 248 243 233 306 q 308 141 263 181 q 440 101 353 101 m 333 1125 l 463 1125 l 345 885 l 238 885 l 333 1125 m 605 1125 l 735 1125 l 617 885 l 510 885 l 605 1125 z "},"ō":{"ha":861,"x_min":77,"x_max":782,"o":"m 424 -17 q 244 27 323 -17 q 121 156 165 71 q 77 359 77 240 q 129 574 77 489 q 264 699 181 660 q 441 739 347 739 q 618 695 540 739 q 739 567 695 651 q 782 363 782 482 q 732 148 782 233 q 600 23 681 63 q 424 -17 519 -17 m 440 101 q 562 131 519 101 q 607 198 588 149 q 626 332 626 247 q 611 481 626 419 q 551 583 597 543 q 418 623 506 623 q 348 616 378 623 q 297 594 319 608 q 252 528 270 576 q 233 393 233 479 q 248 243 233 306 q 308 141 263 181 q 440 101 353 101 m 658 916 l 203 916 l 203 1018 l 658 1018 l 658 916 z "},"ǫ":{"ha":861,"x_min":77,"x_max":782,"o":"m 440 101 q 562 131 519 101 q 607 198 588 149 q 626 332 626 247 q 611 481 626 419 q 551 583 597 543 q 418 623 506 623 q 348 616 378 623 q 297 594 319 608 q 252 528 270 576 q 233 393 233 479 q 248 243 233 306 q 308 141 263 181 q 440 101 353 101 m 550 0 q 474 -76 497 -42 q 451 -138 451 -110 q 469 -178 451 -164 q 530 -192 488 -192 l 550 -192 l 550 -292 l 493 -292 q 355 -258 394 -292 q 315 -171 315 -224 q 336 -93 315 -131 q 399 -16 356 -56 q 232 35 304 -10 q 118 163 159 80 q 77 359 77 246 q 129 574 77 489 q 264 699 181 660 q 441 739 347 739 q 618 695 540 739 q 739 567 695 651 q 782 363 782 482 q 716 124 782 215 q 545 1 651 34 l 550 0 z "},"ø":{"ha":861,"x_min":57,"x_max":804,"o":"m 424 -17 q 283 9 346 -17 l 176 -152 l 57 -73 l 166 90 q 100 207 123 139 q 77 359 77 274 q 129 574 77 489 q 264 699 181 660 q 441 739 347 739 q 578 714 516 739 l 685 875 l 804 796 l 695 632 q 759 516 737 583 q 782 363 782 448 q 732 148 782 233 q 600 23 681 63 q 424 -17 519 -17 m 440 101 q 562 131 519 101 q 607 198 588 149 q 626 332 626 247 q 620 436 626 390 q 598 519 614 483 l 336 123 q 440 101 378 101 m 233 393 q 240 286 233 333 q 263 203 246 239 l 526 600 q 418 623 482 623 q 348 616 378 623 q 297 594 319 608 q 252 528 270 576 q 233 393 233 479 z "},"ǿ":{"ha":861,"x_min":57,"x_max":804,"o":"m 424 -17 q 283 9 346 -17 l 176 -152 l 57 -73 l 166 90 q 100 207 123 139 q 77 359 77 274 q 129 574 77 489 q 264 699 181 660 q 441 739 347 739 q 578 714 516 739 l 685 875 l 804 796 l 695 632 q 759 516 737 583 q 782 363 782 448 q 732 148 782 233 q 600 23 681 63 q 424 -17 519 -17 m 440 101 q 562 131 519 101 q 607 198 588 149 q 626 332 626 247 q 620 436 626 390 q 598 519 614 483 l 336 123 q 440 101 378 101 m 497 885 l 671 1125 l 502 1125 l 362 885 l 497 885 m 233 393 q 240 286 233 333 q 263 203 246 239 l 526 600 q 418 623 482 623 q 348 616 378 623 q 297 594 319 608 q 252 528 270 576 q 233 393 233 479 z "},"õ":{"ha":861,"x_min":77,"x_max":782,"o":"m 424 -17 q 244 27 323 -17 q 121 156 165 71 q 77 359 77 240 q 129 574 77 489 q 264 699 181 660 q 441 739 347 739 q 618 695 540 739 q 739 567 695 651 q 782 363 782 482 q 732 148 782 233 q 600 23 681 63 q 424 -17 519 -17 m 440 101 q 562 131 519 101 q 607 198 588 149 q 626 332 626 247 q 611 481 626 419 q 551 583 597 543 q 418 623 506 623 q 348 616 378 623 q 297 594 319 608 q 252 528 270 576 q 233 393 233 479 q 248 243 233 306 q 308 141 263 181 q 440 101 353 101 m 306 1122 q 358 1110 334 1122 q 399 1084 381 1099 q 440 1044 417 1069 q 485 1002 467 1016 q 523 989 503 989 q 572 1021 553 989 q 599 1112 592 1053 l 703 1082 q 652 924 693 980 q 548 867 611 867 q 497 878 520 867 q 456 905 473 889 q 415 945 438 920 q 370 987 388 974 q 333 1000 353 1000 q 284 968 303 1000 q 256 877 265 935 l 152 907 q 203 1065 162 1009 q 306 1122 244 1122 z "},"œ":{"ha":861,"x_min":40,"x_max":818,"o":"m 620 -17 q 506 14 555 -17 q 428 106 458 45 q 356 13 400 42 q 256 -17 312 -17 q 94 74 149 -17 q 40 359 40 165 q 70 578 40 493 q 151 701 101 663 q 265 739 201 739 q 364 706 321 739 q 433 607 407 674 q 513 706 463 674 q 623 739 564 739 q 770 661 722 739 q 818 442 818 583 l 818 351 l 501 351 q 542 175 506 241 q 653 110 578 110 q 716 119 683 110 q 792 145 750 128 l 788 27 q 620 -17 699 -17 m 266 101 q 328 126 306 101 q 352 198 342 143 q 362 347 362 252 q 340 546 362 470 q 263 622 319 622 q 203 598 224 622 q 179 526 189 580 q 169 376 169 472 q 190 176 169 251 q 266 101 211 101 m 702 441 l 703 465 q 676 584 703 542 q 603 626 650 626 q 542 601 563 626 q 516 544 527 584 q 502 441 506 505 l 702 441 z "},"p":{"ha":861,"x_min":101,"x_max":792,"o":"m 792 397 q 741 171 792 264 q 601 31 690 78 q 401 -16 512 -16 q 259 4 328 -16 l 259 -278 l 101 -278 l 101 723 l 249 723 l 249 644 l 267 644 q 375 713 317 688 q 506 738 433 738 q 661 697 597 738 q 759 579 726 656 q 792 397 792 503 m 259 139 q 428 101 340 101 q 494 109 465 101 q 549 135 522 117 q 606 208 584 158 q 627 359 627 259 q 585 545 627 474 q 437 617 544 617 q 259 572 358 617 l 259 139 z "},"þ":{"ha":861,"x_min":120,"x_max":790,"o":"m 274 652 q 503 738 376 738 q 659 697 594 738 q 757 580 724 656 q 790 397 790 503 q 739 171 790 264 q 599 31 688 78 q 399 -16 510 -16 q 274 -1 333 -16 l 274 -264 l 120 -264 l 120 1063 l 274 1063 l 274 652 m 274 131 q 426 101 349 101 q 491 109 463 101 q 547 135 519 117 q 603 208 581 158 q 624 359 624 259 q 583 545 624 474 q 435 617 542 617 q 274 579 363 617 l 274 131 z "},"q":{"ha":861,"x_min":69,"x_max":760,"o":"m 69 326 q 120 552 69 459 q 260 692 172 645 q 460 739 349 739 q 676 690 576 739 l 717 722 l 760 722 l 760 -278 l 603 -278 l 603 79 l 594 79 q 356 -15 489 -15 q 200 26 265 -15 q 102 143 135 67 q 69 326 69 220 m 235 364 q 276 177 235 249 q 424 106 317 106 q 603 151 503 106 l 603 584 q 433 622 519 622 q 368 614 397 622 q 312 588 340 606 q 256 515 278 565 q 235 364 235 464 z "},"r":{"ha":861,"x_min":80,"x_max":793,"o":"m 420 562 l 431 562 q 503 655 458 615 q 608 717 549 695 q 728 738 666 738 q 787 732 762 738 l 793 588 q 606 567 690 590 q 433 495 522 544 l 433 125 l 681 125 l 664 0 l 101 0 l 83 125 l 276 125 l 276 598 l 80 598 l 97 722 l 420 722 l 420 562 z "},"ŕ":{"ha":861,"x_min":80,"x_max":793,"o":"m 420 562 l 431 562 q 503 655 458 615 q 608 717 549 695 q 728 738 666 738 q 787 732 762 738 l 793 588 q 606 567 690 590 q 433 495 522 544 l 433 125 l 681 125 l 664 0 l 101 0 l 83 125 l 276 125 l 276 598 l 80 598 l 97 722 l 420 722 l 420 562 m 497 885 l 671 1125 l 502 1125 l 362 885 l 497 885 z "},"ř":{"ha":861,"x_min":80,"x_max":793,"o":"m 420 562 l 431 562 q 503 655 458 615 q 608 717 549 695 q 728 738 666 738 q 787 732 762 738 l 793 588 q 606 567 690 590 q 433 495 522 544 l 433 125 l 681 125 l 664 0 l 101 0 l 83 125 l 276 125 l 276 598 l 80 598 l 97 722 l 420 722 l 420 562 m 347 885 l 515 885 l 689 1125 l 551 1125 l 431 947 l 310 1125 l 173 1125 l 347 885 z "},"ŗ":{"ha":861,"x_min":80,"x_max":793,"o":"m 420 562 l 431 562 q 503 655 458 615 q 608 717 549 695 q 728 738 666 738 q 787 732 762 738 l 793 588 q 606 567 690 590 q 433 495 522 544 l 433 125 l 681 125 l 664 0 l 101 0 l 83 125 l 276 125 l 276 598 l 80 598 l 97 722 l 420 722 l 420 562 m 392 -356 q 315 -329 344 -356 q 285 -258 285 -303 q 315 -186 285 -212 q 391 -160 344 -160 q 476 -194 443 -160 q 508 -292 508 -228 q 456 -434 508 -373 q 326 -532 404 -495 l 276 -471 q 362 -415 329 -441 q 410 -354 395 -389 q 392 -356 398 -356 z "},"s":{"ha":861,"x_min":115,"x_max":747,"o":"m 510 739 q 714 713 618 739 l 719 579 q 567 604 635 596 q 433 613 500 613 q 287 583 327 613 q 263 539 263 566 q 285 497 263 515 q 355 464 308 478 q 483 429 401 449 q 628 386 574 408 q 715 327 682 365 q 747 225 747 288 q 704 99 747 153 q 576 15 660 45 q 369 -15 491 -15 q 127 17 248 -15 l 115 164 q 292 124 203 139 q 456 108 381 108 q 583 135 544 108 q 607 186 607 152 q 584 236 607 217 q 524 268 562 256 q 407 300 485 281 l 349 315 q 182 387 238 343 q 126 508 126 431 q 178 636 126 585 q 317 714 230 688 q 510 739 404 739 z "},"ś":{"ha":861,"x_min":115,"x_max":747,"o":"m 510 739 q 714 713 618 739 l 719 579 q 567 604 635 596 q 433 613 500 613 q 287 583 327 613 q 263 539 263 566 q 285 497 263 515 q 355 464 308 478 q 483 429 401 449 q 628 386 574 408 q 715 327 682 365 q 747 225 747 288 q 704 99 747 153 q 576 15 660 45 q 369 -15 491 -15 q 127 17 248 -15 l 115 164 q 292 124 203 139 q 456 108 381 108 q 583 135 544 108 q 607 186 607 152 q 584 236 607 217 q 524 268 562 256 q 407 300 485 281 l 349 315 q 182 387 238 343 q 126 508 126 431 q 178 636 126 585 q 317 714 230 688 q 510 739 404 739 m 497 885 l 671 1125 l 502 1125 l 362 885 l 497 885 z "},"š":{"ha":861,"x_min":115,"x_max":747,"o":"m 510 739 q 714 713 618 739 l 719 579 q 567 604 635 596 q 433 613 500 613 q 287 583 327 613 q 263 539 263 566 q 285 497 263 515 q 355 464 308 478 q 483 429 401 449 q 628 386 574 408 q 715 327 682 365 q 747 225 747 288 q 704 99 747 153 q 576 15 660 45 q 369 -15 491 -15 q 127 17 248 -15 l 115 164 q 292 124 203 139 q 456 108 381 108 q 583 135 544 108 q 607 186 607 152 q 584 236 607 217 q 524 268 562 256 q 407 300 485 281 l 349 315 q 182 387 238 343 q 126 508 126 431 q 178 636 126 585 q 317 714 230 688 q 510 739 404 739 m 347 885 l 515 885 l 689 1125 l 551 1125 l 431 947 l 310 1125 l 173 1125 l 347 885 z "},"ş":{"ha":861,"x_min":115,"x_max":747,"o":"m 510 739 q 714 713 618 739 l 719 579 q 567 604 635 596 q 433 613 500 613 q 287 583 327 613 q 263 539 263 566 q 285 497 263 515 q 355 464 308 478 q 483 429 401 449 q 628 386 574 408 q 715 327 682 365 q 747 225 747 288 q 678 73 747 134 q 477 -8 608 11 l 478 -117 q 570 -167 540 -131 q 600 -269 600 -203 q 581 -350 600 -318 q 517 -400 563 -383 q 392 -417 472 -417 l 338 -417 l 338 -328 l 375 -328 q 458 -311 433 -328 q 483 -260 483 -294 q 457 -205 483 -223 q 383 -182 431 -187 l 383 -15 l 369 -15 q 127 17 248 -15 l 115 164 q 292 124 203 139 q 456 108 381 108 q 583 135 544 108 q 607 186 607 152 q 584 236 607 217 q 524 268 562 256 q 407 300 485 281 l 349 315 q 182 387 238 343 q 126 508 126 431 q 178 636 126 585 q 317 714 230 688 q 510 739 404 739 z "},"ŝ":{"ha":861,"x_min":115,"x_max":747,"o":"m 510 739 q 714 713 618 739 l 719 579 q 567 604 635 596 q 433 613 500 613 q 287 583 327 613 q 263 539 263 566 q 285 497 263 515 q 355 464 308 478 q 483 429 401 449 q 628 386 574 408 q 715 327 682 365 q 747 225 747 288 q 704 99 747 153 q 576 15 660 45 q 369 -15 491 -15 q 127 17 248 -15 l 115 164 q 292 124 203 139 q 456 108 381 108 q 583 135 544 108 q 607 186 607 152 q 584 236 607 217 q 524 268 562 256 q 407 300 485 281 l 349 315 q 182 387 238 343 q 126 508 126 431 q 178 636 126 585 q 317 714 230 688 q 510 739 404 739 m 347 1125 l 515 1125 l 689 885 l 551 885 l 431 1063 l 310 885 l 173 885 l 347 1125 z "},"ș":{"ha":861,"x_min":115,"x_max":747,"o":"m 510 739 q 714 713 618 739 l 719 579 q 567 604 635 596 q 433 613 500 613 q 287 583 327 613 q 263 539 263 566 q 285 497 263 515 q 355 464 308 478 q 483 429 401 449 q 628 386 574 408 q 715 327 682 365 q 747 225 747 288 q 704 99 747 153 q 576 15 660 45 q 369 -15 491 -15 q 127 17 248 -15 l 115 164 q 292 124 203 139 q 456 108 381 108 q 583 135 544 108 q 607 186 607 152 q 584 236 607 217 q 524 268 562 256 q 407 300 485 281 l 349 315 q 182 387 238 343 q 126 508 126 431 q 178 636 126 585 q 317 714 230 688 q 510 739 404 739 m 429 -356 q 352 -329 382 -356 q 322 -258 322 -303 q 352 -186 322 -212 q 428 -160 382 -160 q 513 -194 481 -160 q 546 -292 546 -228 q 494 -434 546 -373 q 363 -532 442 -495 l 313 -471 q 400 -415 367 -441 q 448 -354 433 -389 q 429 -356 435 -356 z "},"ß":{"ha":861,"x_min":117,"x_max":800,"o":"m 447 957 q 370 945 403 957 q 319 915 336 934 q 284 826 297 892 q 270 620 270 760 l 270 0 l 117 0 l 117 548 q 155 850 117 733 q 271 1023 194 967 q 467 1079 348 1079 q 606 1053 542 1079 q 707 974 669 1026 q 745 845 745 921 q 713 718 745 774 q 631 625 681 662 q 528 573 581 589 l 528 567 q 727 485 653 545 q 800 298 800 425 q 755 136 800 203 q 630 35 710 69 q 440 0 549 0 l 392 0 l 392 118 l 456 118 q 560 141 517 118 q 626 205 604 165 q 649 295 649 244 q 571 444 649 394 q 392 511 494 494 l 392 581 q 496 635 451 599 q 566 719 541 671 q 590 822 590 768 q 553 924 590 890 q 447 957 515 957 z "},"t":{"ha":861,"x_min":70,"x_max":753,"o":"m 70 671 l 369 894 l 420 894 l 420 722 l 753 722 l 728 601 l 423 601 l 423 215 q 435 158 423 180 q 476 125 447 136 q 559 114 506 114 q 744 140 633 114 l 731 21 q 507 -16 622 -16 q 369 4 422 -16 q 291 68 316 24 q 266 186 266 113 l 266 601 l 70 601 l 70 671 z "},"ŧ":{"ha":861,"x_min":70,"x_max":753,"o":"m 70 515 l 266 515 l 266 664 l 70 664 l 70 717 l 369 940 l 420 940 l 420 768 l 753 768 l 728 664 l 423 664 l 423 515 l 753 515 l 728 411 l 423 411 l 423 215 q 435 158 423 180 q 476 125 447 136 q 559 114 506 114 q 744 140 633 114 l 731 21 q 507 -16 622 -16 q 369 4 422 -16 q 291 68 316 24 q 266 186 266 113 l 266 411 l 70 411 l 70 515 z "},"ť":{"ha":861,"x_min":70,"x_max":785,"o":"m 649 1106 l 785 1106 l 756 852 l 637 852 l 649 1106 m 70 671 l 369 894 l 420 894 l 420 722 l 753 722 l 728 601 l 423 601 l 423 215 q 435 158 423 180 q 476 125 447 136 q 559 114 506 114 q 744 140 633 114 l 731 21 q 507 -16 622 -16 q 369 4 422 -16 q 291 68 316 24 q 266 186 266 113 l 266 601 l 70 601 l 70 671 z "},"ţ":{"ha":861,"x_min":70,"x_max":753,"o":"m 70 671 l 369 894 l 420 894 l 420 722 l 753 722 l 728 601 l 423 601 l 423 215 q 435 158 423 180 q 476 125 447 136 q 559 114 506 114 q 744 140 633 114 l 731 21 q 544 -15 638 -10 l 546 -117 q 637 -167 607 -131 q 667 -269 667 -203 q 649 -350 667 -318 q 584 -400 630 -383 q 460 -417 539 -417 l 405 -417 l 405 -328 l 442 -328 q 525 -311 500 -328 q 549 -260 549 -294 q 524 -205 549 -223 q 450 -182 499 -187 l 450 -13 q 310 43 353 -4 q 266 186 266 90 l 266 601 l 70 601 l 70 671 z "},"ț":{"ha":861,"x_min":70,"x_max":753,"o":"m 497 -356 q 419 -329 449 -356 q 389 -258 389 -303 q 419 -186 389 -212 q 496 -160 449 -160 q 581 -194 548 -160 q 613 -292 613 -228 q 561 -434 613 -373 q 430 -532 509 -495 l 380 -471 q 467 -414 434 -440 q 515 -354 500 -388 q 497 -356 503 -356 m 70 671 l 369 894 l 420 894 l 420 722 l 753 722 l 728 601 l 423 601 l 423 215 q 435 158 423 180 q 476 125 447 136 q 559 114 506 114 q 744 140 633 114 l 731 21 q 507 -16 622 -16 q 369 4 422 -16 q 291 68 316 24 q 266 186 266 113 l 266 601 l 70 601 l 70 671 z "},"u":{"ha":861,"x_min":117,"x_max":744,"o":"m 276 722 l 276 221 q 306 134 276 160 q 391 108 335 108 q 587 175 485 108 l 587 722 l 744 722 l 744 0 l 595 0 l 595 95 l 588 95 q 467 14 538 44 q 322 -16 397 -16 q 173 34 226 -16 q 120 174 121 84 l 117 722 l 276 722 z "},"ú":{"ha":861,"x_min":117,"x_max":744,"o":"m 276 722 l 276 221 q 306 134 276 160 q 391 108 335 108 q 587 175 485 108 l 587 722 l 744 722 l 744 0 l 595 0 l 595 95 l 588 95 q 467 14 538 44 q 322 -16 397 -16 q 173 34 226 -16 q 120 174 121 84 l 117 722 l 276 722 m 497 885 l 671 1125 l 502 1125 l 362 885 l 497 885 z "},"ŭ":{"ha":861,"x_min":117,"x_max":744,"o":"m 276 722 l 276 221 q 306 134 276 160 q 391 108 335 108 q 587 175 485 108 l 587 722 l 744 722 l 744 0 l 595 0 l 595 95 l 588 95 q 467 14 538 44 q 322 -16 397 -16 q 173 34 226 -16 q 120 174 121 84 l 117 722 l 276 722 m 313 1125 q 341 1017 313 1054 q 431 980 369 980 q 520 1017 492 980 q 549 1125 549 1054 l 649 1125 q 598 942 653 1005 q 431 879 542 879 q 264 942 319 879 q 213 1125 208 1006 l 313 1125 z "},"û":{"ha":861,"x_min":117,"x_max":744,"o":"m 276 722 l 276 221 q 306 134 276 160 q 391 108 335 108 q 587 175 485 108 l 587 722 l 744 722 l 744 0 l 595 0 l 595 95 l 588 95 q 467 14 538 44 q 322 -16 397 -16 q 173 34 226 -16 q 120 174 121 84 l 117 722 l 276 722 m 347 1125 l 515 1125 l 689 885 l 551 885 l 431 1063 l 310 885 l 173 885 l 347 1125 z "},"ü":{"ha":861,"x_min":117,"x_max":744,"o":"m 276 722 l 276 221 q 306 134 276 160 q 391 108 335 108 q 587 175 485 108 l 587 722 l 744 722 l 744 0 l 595 0 l 595 95 l 588 95 q 467 14 538 44 q 322 -16 397 -16 q 173 34 226 -16 q 120 174 121 84 l 117 722 l 276 722 m 248 882 q 176 909 203 882 q 149 983 149 937 q 176 1055 149 1028 q 248 1081 203 1081 q 319 1055 292 1081 q 347 983 347 1028 q 319 909 347 937 q 248 882 292 882 m 614 882 q 542 909 569 882 q 515 983 515 937 q 542 1055 515 1028 q 614 1081 569 1081 q 685 1055 658 1081 q 713 983 713 1028 q 685 909 713 937 q 614 882 658 882 z "},"ụ":{"ha":861,"x_min":117,"x_max":744,"o":"m 276 722 l 276 221 q 306 134 276 160 q 391 108 335 108 q 587 175 485 108 l 587 722 l 744 722 l 744 0 l 595 0 l 595 95 l 588 95 q 467 14 538 44 q 322 -16 397 -16 q 173 34 226 -16 q 120 174 121 84 l 117 722 l 276 722 m 431 -360 q 352 -333 382 -360 q 322 -260 322 -306 q 352 -187 322 -214 q 431 -160 382 -160 q 509 -187 479 -160 q 539 -260 539 -214 q 509 -333 539 -306 q 431 -360 479 -360 z "},"ù":{"ha":861,"x_min":117,"x_max":744,"o":"m 276 722 l 276 221 q 306 134 276 160 q 391 108 335 108 q 587 175 485 108 l 587 722 l 744 722 l 744 0 l 595 0 l 595 95 l 588 95 q 467 14 538 44 q 322 -16 397 -16 q 173 34 226 -16 q 120 174 121 84 l 117 722 l 276 722 m 365 885 l 191 1125 l 359 1125 l 500 885 l 365 885 z "},"ű":{"ha":861,"x_min":117,"x_max":744,"o":"m 276 722 l 276 221 q 306 134 276 160 q 391 108 335 108 q 587 175 485 108 l 587 722 l 744 722 l 744 0 l 595 0 l 595 95 l 588 95 q 467 14 538 44 q 322 -16 397 -16 q 173 34 226 -16 q 120 174 121 84 l 117 722 l 276 722 m 333 1125 l 463 1125 l 345 885 l 238 885 l 333 1125 m 605 1125 l 735 1125 l 617 885 l 510 885 l 605 1125 z "},"ū":{"ha":861,"x_min":117,"x_max":744,"o":"m 276 722 l 276 221 q 306 134 276 160 q 391 108 335 108 q 587 175 485 108 l 587 722 l 744 722 l 744 0 l 595 0 l 595 95 l 588 95 q 467 14 538 44 q 322 -16 397 -16 q 173 34 226 -16 q 120 174 121 84 l 117 722 l 276 722 m 658 916 l 203 916 l 203 1018 l 658 1018 l 658 916 z "},"ų":{"ha":861,"x_min":117,"x_max":744,"o":"m 276 722 l 276 221 q 306 134 276 160 q 391 108 335 108 q 587 175 485 108 l 587 722 l 744 722 l 744 0 q 668 -76 691 -42 q 646 -139 646 -110 q 664 -178 646 -165 q 724 -192 682 -192 l 744 -192 l 744 -293 l 687 -293 q 549 -259 589 -293 q 510 -172 510 -225 q 534 -87 510 -128 q 611 0 558 -46 l 595 0 l 595 95 l 588 95 q 467 14 538 44 q 322 -16 397 -16 q 173 34 226 -16 q 120 174 121 84 l 117 722 l 276 722 z "},"ů":{"ha":861,"x_min":117,"x_max":744,"o":"m 276 722 l 276 221 q 306 134 276 160 q 391 108 335 108 q 587 175 485 108 l 587 722 l 744 722 l 744 0 l 595 0 l 595 95 l 588 95 q 467 14 538 44 q 322 -16 397 -16 q 173 34 226 -16 q 120 174 121 84 l 117 722 l 276 722 m 431 842 q 348 864 384 842 q 291 923 311 885 q 270 1008 270 960 q 291 1092 270 1055 q 348 1151 311 1130 q 431 1172 384 1172 q 514 1151 477 1172 q 571 1092 551 1130 q 592 1008 592 1055 q 571 923 592 960 q 514 864 551 885 q 431 842 477 842 m 431 915 q 496 941 472 915 q 521 1008 521 967 q 496 1074 521 1048 q 431 1100 472 1100 q 365 1074 390 1100 q 340 1008 340 1048 q 365 941 340 967 q 431 915 390 915 z "},"ũ":{"ha":861,"x_min":117,"x_max":744,"o":"m 276 722 l 276 221 q 306 134 276 160 q 391 108 335 108 q 587 175 485 108 l 587 722 l 744 722 l 744 0 l 595 0 l 595 95 l 588 95 q 467 14 538 44 q 322 -16 397 -16 q 173 34 226 -16 q 120 174 121 84 l 117 722 l 276 722 m 306 1122 q 358 1110 334 1122 q 399 1084 381 1099 q 440 1044 417 1069 q 485 1002 467 1016 q 523 989 503 989 q 572 1021 553 989 q 599 1112 592 1053 l 703 1082 q 652 924 693 980 q 548 867 611 867 q 497 878 520 867 q 456 905 473 889 q 415 945 438 920 q 370 987 388 974 q 333 1000 353 1000 q 284 968 303 1000 q 256 877 265 935 l 152 907 q 203 1065 162 1009 q 306 1122 244 1122 z "},"v":{"ha":861,"x_min":67,"x_max":794,"o":"m 233 722 q 431 161 285 430 l 444 161 q 642 722 590 428 l 794 722 q 502 0 716 341 l 363 0 q 67 722 150 338 l 233 722 z "},"w":{"ha":861,"x_min":17,"x_max":844,"o":"m 563 0 q 435 426 485 208 l 424 426 q 290 0 374 209 l 195 0 q 76 357 121 181 q 17 722 32 534 l 167 722 q 265 228 188 472 l 277 228 q 388 602 333 373 l 486 602 q 588 228 537 376 l 600 228 q 703 722 681 485 l 844 722 q 784 356 829 533 q 664 0 740 179 l 563 0 z "},"ẃ":{"ha":861,"x_min":17,"x_max":844,"o":"m 563 0 q 435 426 485 208 l 424 426 q 290 0 374 209 l 195 0 q 76 357 121 181 q 17 722 32 534 l 167 722 q 265 228 188 472 l 277 228 q 388 602 333 373 l 486 602 q 588 228 537 376 l 600 228 q 703 722 681 485 l 844 722 q 784 356 829 533 q 664 0 740 179 l 563 0 m 497 885 l 671 1125 l 502 1125 l 362 885 l 497 885 z "},"ŵ":{"ha":861,"x_min":17,"x_max":844,"o":"m 563 0 q 435 426 485 208 l 424 426 q 290 0 374 209 l 195 0 q 76 357 121 181 q 17 722 32 534 l 167 722 q 265 228 188 472 l 277 228 q 388 602 333 373 l 486 602 q 588 228 537 376 l 600 228 q 703 722 681 485 l 844 722 q 784 356 829 533 q 664 0 740 179 l 563 0 m 347 1125 l 515 1125 l 689 885 l 551 885 l 431 1063 l 310 885 l 173 885 l 347 1125 z "},"ẅ":{"ha":861,"x_min":17,"x_max":844,"o":"m 563 0 q 435 426 485 208 l 424 426 q 290 0 374 209 l 195 0 q 76 357 121 181 q 17 722 32 534 l 167 722 q 265 228 188 472 l 277 228 q 388 602 333 373 l 486 602 q 588 228 537 376 l 600 228 q 703 722 681 485 l 844 722 q 784 356 829 533 q 664 0 740 179 l 563 0 m 248 882 q 176 909 203 882 q 149 983 149 937 q 176 1055 149 1028 q 248 1081 203 1081 q 319 1055 292 1081 q 347 983 347 1028 q 319 909 347 937 q 248 882 292 882 m 614 882 q 542 909 569 882 q 515 983 515 937 q 542 1055 515 1028 q 614 1081 569 1081 q 685 1055 658 1081 q 713 983 713 1028 q 685 909 713 937 q 614 882 658 882 z "},"ẁ":{"ha":861,"x_min":17,"x_max":844,"o":"m 563 0 q 435 426 485 208 l 424 426 q 290 0 374 209 l 195 0 q 76 357 121 181 q 17 722 32 534 l 167 722 q 265 228 188 472 l 277 228 q 388 602 333 373 l 486 602 q 588 228 537 376 l 600 228 q 703 722 681 485 l 844 722 q 784 356 829 533 q 664 0 740 179 l 563 0 m 365 885 l 191 1125 l 359 1125 l 500 885 l 365 885 z "},"x":{"ha":861,"x_min":48,"x_max":813,"o":"m 240 722 l 445 463 l 638 722 l 805 722 l 519 369 l 813 0 l 629 0 l 419 267 l 224 0 l 48 0 l 338 369 l 58 722 l 240 722 z "},"y":{"ha":861,"x_min":32,"x_max":801,"o":"m 222 722 q 439 167 292 438 l 449 167 q 562 430 515 296 q 644 722 609 563 l 801 722 q 565 95 738 453 l 535 37 q 436 -123 494 -49 q 302 -246 377 -198 q 146 -294 228 -294 q 65 -284 107 -294 l 32 -147 q 135 -159 87 -159 q 350 -29 283 -159 l 364 -3 q 188 350 261 177 q 60 722 115 522 l 222 722 z "},"ý":{"ha":861,"x_min":32,"x_max":801,"o":"m 222 722 q 439 167 292 438 l 449 167 q 562 430 515 296 q 644 722 609 563 l 801 722 q 565 95 738 453 l 535 37 q 436 -123 494 -49 q 302 -246 377 -198 q 146 -294 228 -294 q 65 -284 107 -294 l 32 -147 q 135 -159 87 -159 q 350 -29 283 -159 l 364 -3 q 188 350 261 177 q 60 722 115 522 l 222 722 m 497 885 l 671 1125 l 502 1125 l 362 885 l 497 885 z "},"ŷ":{"ha":861,"x_min":32,"x_max":801,"o":"m 222 722 q 439 167 292 438 l 449 167 q 562 430 515 296 q 644 722 609 563 l 801 722 q 565 95 738 453 l 535 37 q 436 -123 494 -49 q 302 -246 377 -198 q 146 -294 228 -294 q 65 -284 107 -294 l 32 -147 q 135 -159 87 -159 q 350 -29 283 -159 l 364 -3 q 188 350 261 177 q 60 722 115 522 l 222 722 m 347 1125 l 515 1125 l 689 885 l 551 885 l 431 1063 l 310 885 l 173 885 l 347 1125 z "},"ÿ":{"ha":861,"x_min":32,"x_max":801,"o":"m 222 722 q 439 167 292 438 l 449 167 q 562 430 515 296 q 644 722 609 563 l 801 722 q 565 95 738 453 l 535 37 q 436 -123 494 -49 q 302 -246 377 -198 q 146 -294 228 -294 q 65 -284 107 -294 l 32 -147 q 135 -159 87 -159 q 350 -29 283 -159 l 364 -3 q 188 350 261 177 q 60 722 115 522 l 222 722 m 248 882 q 176 909 203 882 q 149 983 149 937 q 176 1055 149 1028 q 248 1081 203 1081 q 319 1055 292 1081 q 347 983 347 1028 q 319 909 347 937 q 248 882 292 882 m 614 882 q 542 909 569 882 q 515 983 515 937 q 542 1055 515 1028 q 614 1081 569 1081 q 685 1055 658 1081 q 713 983 713 1028 q 685 909 713 937 q 614 882 658 882 z "},"ỳ":{"ha":861,"x_min":32,"x_max":801,"o":"m 222 722 q 439 167 292 438 l 449 167 q 562 430 515 296 q 644 722 609 563 l 801 722 q 565 95 738 453 l 535 37 q 436 -123 494 -49 q 302 -246 377 -198 q 146 -294 228 -294 q 65 -284 107 -294 l 32 -147 q 135 -159 87 -159 q 350 -29 283 -159 l 364 -3 q 188 350 261 177 q 60 722 115 522 l 222 722 m 365 885 l 191 1125 l 359 1125 l 500 885 l 365 885 z "},"ȳ":{"ha":861,"x_min":32,"x_max":801,"o":"m 222 722 q 439 167 292 438 l 449 167 q 562 430 515 296 q 644 722 609 563 l 801 722 q 565 95 738 453 l 535 37 q 436 -123 494 -49 q 302 -246 377 -198 q 146 -294 228 -294 q 65 -284 107 -294 l 32 -147 q 135 -159 87 -159 q 350 -29 283 -159 l 364 -3 q 188 350 261 177 q 60 722 115 522 l 222 722 m 658 916 l 203 916 l 203 1018 l 658 1018 l 658 916 z "},"ỹ":{"ha":861,"x_min":32,"x_max":801,"o":"m 222 722 q 439 167 292 438 l 449 167 q 562 430 515 296 q 644 722 609 563 l 801 722 q 565 95 738 453 l 535 37 q 436 -123 494 -49 q 302 -246 377 -198 q 146 -294 228 -294 q 65 -284 107 -294 l 32 -147 q 135 -159 87 -159 q 350 -29 283 -159 l 364 -3 q 188 350 261 177 q 60 722 115 522 l 222 722 m 306 1122 q 358 1110 334 1122 q 399 1084 381 1099 q 440 1044 417 1069 q 485 1002 467 1016 q 523 989 503 989 q 572 1021 553 989 q 599 1112 592 1053 l 703 1082 q 652 924 693 980 q 548 867 611 867 q 497 878 520 867 q 456 905 473 889 q 415 945 438 920 q 370 987 388 974 q 333 1000 353 1000 q 284 968 303 1000 q 256 877 265 935 l 152 907 q 203 1065 162 1009 q 306 1122 244 1122 z "},"z":{"ha":861,"x_min":92,"x_max":774,"o":"m 708 723 l 719 642 l 315 133 l 774 133 l 720 0 l 110 0 l 102 88 l 510 599 l 92 599 l 141 723 l 708 723 z "},"ź":{"ha":861,"x_min":92,"x_max":774,"o":"m 708 723 l 719 642 l 315 133 l 774 133 l 720 0 l 110 0 l 102 88 l 510 599 l 92 599 l 141 723 l 708 723 m 497 885 l 671 1125 l 502 1125 l 362 885 l 497 885 z "},"ž":{"ha":861,"x_min":92,"x_max":774,"o":"m 708 723 l 719 642 l 315 133 l 774 133 l 720 0 l 110 0 l 102 88 l 510 599 l 92 599 l 141 723 l 708 723 m 347 885 l 515 885 l 689 1125 l 551 1125 l 431 947 l 310 1125 l 173 1125 l 347 885 z "},"ż":{"ha":861,"x_min":92,"x_max":774,"o":"m 708 723 l 719 642 l 315 133 l 774 133 l 720 0 l 110 0 l 102 88 l 510 599 l 92 599 l 141 723 l 708 723 m 431 883 q 352 911 382 883 q 322 984 322 938 q 352 1057 322 1030 q 431 1083 382 1083 q 509 1057 479 1083 q 539 984 539 1030 q 509 911 539 938 q 431 883 479 883 z "},"":{"ha":861,"x_min":252,"x_max":634,"o":"m 634 -1 q 592 -148 634 -93 q 473 -203 550 -203 q 399 -187 430 -203 q 349 -146 368 -172 l 337 -146 l 331 -194 l 252 -194 l 252 367 l 343 367 l 343 142 l 348 142 q 476 200 398 200 q 593 145 552 200 q 634 -1 634 90 m 343 -99 q 435 -128 385 -128 q 541 -1 541 -128 q 515 94 541 63 q 435 125 488 125 q 343 96 385 125 l 343 -99 z "},"":{"ha":861,"x_min":227,"x_max":628,"o":"m 628 -74 q 558 -172 611 -140 q 433 -203 506 -203 q 283 -151 338 -203 q 227 -1 227 -99 q 285 149 227 99 q 438 200 342 200 q 570 164 519 200 q 628 60 622 128 l 540 53 q 506 110 533 90 q 435 129 478 129 q 349 96 378 129 q 320 -1 320 63 q 350 -99 320 -66 q 435 -132 381 -132 q 502 -114 476 -132 q 541 -62 529 -95 l 628 -74 z "},"":{"ha":861,"x_min":227,"x_max":609,"o":"m 227 -3 q 269 145 227 90 q 389 200 311 200 q 462 184 431 200 q 513 142 492 169 l 518 142 l 518 367 l 609 367 l 609 -194 l 531 -194 l 525 -146 l 513 -146 q 385 -203 463 -203 q 268 -149 308 -203 q 227 -3 227 -94 m 320 -3 q 347 -98 320 -67 q 426 -128 373 -128 q 518 -99 476 -128 l 518 97 q 426 125 477 125 q 320 -3 320 125 z "},"":{"ha":861,"x_min":224,"x_max":632,"o":"m 632 310 q 542 320 581 320 q 484 312 506 320 q 452 284 463 304 q 441 226 441 263 l 441 191 l 618 191 l 618 118 l 441 118 l 441 -121 l 577 -121 l 577 -194 l 248 -194 l 248 -121 l 350 -121 l 350 118 l 224 118 l 224 191 l 350 191 l 350 208 q 397 353 350 309 q 538 398 444 398 q 632 387 586 398 l 632 310 z "},"":{"ha":861,"x_min":227,"x_max":609,"o":"m 227 19 q 247 114 227 72 q 302 177 266 155 q 388 200 338 200 q 461 184 430 200 q 513 142 493 168 l 525 142 l 531 191 l 609 191 l 609 -172 q 562 -301 609 -260 q 419 -341 515 -341 q 294 -314 336 -341 q 239 -237 251 -286 l 322 -220 q 358 -264 333 -250 q 419 -278 382 -278 q 492 -256 466 -278 q 518 -182 518 -233 l 518 -103 l 513 -103 q 385 -160 463 -160 q 300 -138 336 -160 q 246 -75 265 -115 q 227 19 227 -35 m 320 19 q 348 -58 320 -31 q 426 -85 375 -85 q 518 -56 477 -85 l 518 97 q 426 125 477 125 q 348 97 376 125 q 320 19 320 69 z "},"":{"ha":861,"x_min":227,"x_max":609,"o":"m 227 -3 q 269 145 227 90 q 389 200 311 200 q 462 184 431 200 q 513 142 493 169 l 525 142 l 531 191 l 609 191 l 609 -332 l 518 -332 l 518 -146 l 513 -146 q 385 -203 463 -203 q 268 -149 309 -203 q 227 -3 227 -94 m 320 -3 q 347 -98 320 -67 q 426 -128 373 -128 q 518 -99 475 -128 l 518 96 q 426 125 476 125 q 320 -3 320 125 z "},"ₐ":{"ha":861,"x_min":233,"x_max":629,"o":"m 419 200 q 542 172 499 200 q 585 78 585 143 l 585 -101 q 591 -124 585 -117 q 614 -130 597 -130 q 629 -129 624 -130 l 629 -194 q 572 -202 601 -202 q 519 -187 535 -202 q 499 -147 502 -173 l 490 -147 q 356 -203 432 -203 q 266 -175 299 -203 q 233 -99 233 -147 q 305 -1 233 -26 q 493 22 376 24 l 493 74 q 472 124 493 110 q 412 138 451 138 q 352 125 374 138 q 330 83 330 112 l 330 68 l 247 68 l 247 88 q 289 170 247 140 q 419 200 330 200 m 328 -87 q 347 -124 328 -111 q 399 -137 365 -137 q 493 -108 446 -137 l 493 -27 q 461 -25 476 -25 q 363 -40 397 -25 q 328 -87 328 -56 z "},"ₑ":{"ha":861,"x_min":227,"x_max":626,"o":"m 227 -1 q 284 148 227 97 q 439 200 342 200 q 577 156 528 200 q 626 25 626 112 l 626 -11 l 320 -11 q 352 -101 323 -70 q 435 -132 382 -132 q 535 -78 510 -132 l 624 -91 q 554 -175 603 -147 q 435 -203 504 -203 q 326 -180 373 -203 q 253 -111 279 -157 q 227 -1 227 -66 m 537 44 q 509 108 537 87 q 436 129 482 129 q 363 108 392 129 q 324 44 334 88 l 537 44 z "},"ᵢ":{"ha":861,"x_min":245,"x_max":616,"o":"m 245 -121 l 385 -121 l 385 119 l 245 119 l 245 191 l 465 200 l 476 190 l 476 -121 l 616 -121 l 616 -194 l 245 -194 l 245 -121 m 415 269 q 369 284 386 269 q 351 326 351 300 q 369 367 351 352 q 415 383 386 383 q 460 367 443 383 q 478 326 478 352 q 460 284 478 300 q 415 269 443 269 z "},"ⱼ":{"ha":861,"x_min":245,"x_max":544,"o":"m 544 -161 q 526 -275 544 -235 q 468 -332 508 -315 q 355 -348 428 -348 q 245 -335 297 -348 l 245 -258 q 351 -270 301 -270 q 412 -261 390 -270 q 443 -228 433 -251 q 453 -162 453 -205 l 453 119 l 265 119 l 265 191 l 533 200 l 544 190 l 544 -161 m 481 269 q 435 284 453 269 q 418 326 418 300 q 435 367 418 352 q 481 383 453 383 q 527 367 510 383 q 544 326 544 352 q 527 284 544 300 q 481 269 510 269 z "},"ₒ":{"ha":861,"x_min":227,"x_max":634,"o":"m 634 -3 q 607 -114 634 -69 q 534 -181 580 -159 q 431 -203 488 -203 q 327 -181 373 -203 q 254 -115 281 -160 q 227 -3 227 -69 q 254 109 227 64 q 327 177 281 155 q 431 200 374 200 q 534 177 488 200 q 607 109 580 155 q 634 -3 634 64 m 541 -3 q 511 97 541 65 q 431 129 482 129 q 350 97 379 129 q 320 -3 320 65 q 350 -101 320 -70 q 431 -132 379 -132 q 511 -101 482 -132 q 541 -3 541 -70 z "},"ᵣ":{"ha":861,"x_min":240,"x_max":627,"o":"m 427 135 l 439 135 q 505 184 471 169 q 587 200 538 200 q 627 196 610 200 l 627 111 q 517 105 559 111 q 434 77 475 98 l 434 -121 l 569 -121 l 569 -194 l 240 -194 l 240 -121 l 342 -121 l 342 118 l 240 118 l 240 191 l 421 191 l 427 135 z "},"ₔ":{"ha":861,"x_min":236,"x_max":634,"o":"m 634 -2 q 577 -151 634 -99 q 423 -203 520 -203 q 285 -159 333 -203 q 236 -28 236 -115 l 236 8 l 542 8 q 509 98 539 67 q 426 129 479 129 q 326 75 351 129 l 238 88 q 308 172 258 144 q 426 200 357 200 q 578 148 522 200 q 634 -2 634 95 m 325 -47 q 352 -111 325 -90 q 425 -132 380 -132 q 499 -111 470 -132 q 537 -47 528 -90 l 325 -47 z "},"ᵤ":{"ha":861,"x_min":252,"x_max":609,"o":"m 343 191 l 343 -65 q 361 -116 343 -101 q 410 -131 379 -131 q 518 -84 469 -131 l 518 191 l 609 191 l 609 -194 l 531 -194 l 524 -137 l 513 -137 q 449 -186 483 -169 q 367 -203 414 -203 q 252 -89 252 -203 l 252 191 l 343 191 z "},"ᵥ":{"ha":861,"x_min":217,"x_max":643,"o":"m 315 191 l 432 -85 l 438 -85 l 553 191 l 643 191 l 478 -194 l 383 -194 l 217 191 l 315 191 z "},"ₓ":{"ha":861,"x_min":212,"x_max":649,"o":"m 324 191 l 436 58 l 542 191 l 644 191 l 485 0 l 649 -194 l 542 -194 l 426 -56 l 317 -194 l 212 -194 l 376 2 l 217 191 l 324 191 z "},"ª":{"ha":861,"x_min":233,"x_max":629,"o":"m 419 1158 q 542 1130 499 1158 q 585 1037 585 1101 l 585 857 q 591 835 585 841 q 614 828 597 828 q 629 829 624 828 l 629 764 q 572 756 601 756 q 519 771 535 756 q 499 811 502 785 l 490 811 q 356 756 432 756 q 266 783 299 756 q 233 859 233 811 q 305 957 233 932 q 493 981 376 982 l 493 1033 q 472 1082 493 1068 q 412 1097 451 1097 q 352 1083 374 1097 q 330 1042 330 1070 l 330 1026 l 247 1026 l 247 1046 q 289 1128 247 1098 q 419 1158 330 1158 m 328 871 q 347 834 328 847 q 399 821 365 821 q 493 851 446 821 l 493 931 q 461 933 476 933 q 363 918 397 933 q 328 871 328 903 z "},"º":{"ha":861,"x_min":227,"x_max":634,"o":"m 634 956 q 607 844 634 889 q 534 777 580 799 q 431 756 488 756 q 327 777 373 756 q 254 844 281 799 q 227 956 227 889 q 254 1068 227 1022 q 327 1136 281 1113 q 431 1158 374 1158 q 534 1136 488 1158 q 607 1068 580 1113 q 634 956 634 1022 m 541 956 q 511 1056 541 1024 q 431 1088 482 1088 q 350 1056 379 1088 q 320 956 320 1024 q 350 857 320 888 q 431 826 379 826 q 511 857 482 826 q 541 956 541 888 z "},"ʰ":{"ha":861,"x_min":252,"x_max":609,"o":"m 252 764 l 252 1326 l 343 1326 l 343 1093 l 354 1093 q 417 1142 385 1125 q 496 1158 450 1158 q 609 1044 609 1158 l 609 764 l 518 764 l 518 1021 q 500 1072 518 1057 q 451 1086 482 1086 q 343 1038 392 1086 l 343 764 l 252 764 z "},"ⁱ":{"ha":861,"x_min":245,"x_max":616,"o":"m 245 838 l 385 838 l 385 1077 l 245 1077 l 245 1149 l 465 1158 l 476 1148 l 476 838 l 616 838 l 616 764 l 245 764 l 245 838 m 415 1227 q 369 1243 386 1227 q 351 1285 351 1258 q 369 1326 351 1310 q 415 1341 386 1341 q 460 1326 443 1341 q 478 1285 478 1310 q 460 1243 478 1258 q 415 1227 443 1227 z "},"ʲ":{"ha":861,"x_min":245,"x_max":544,"o":"m 544 797 q 526 683 544 723 q 468 627 508 643 q 355 610 428 610 q 245 623 297 610 l 245 700 q 351 688 301 688 q 412 698 390 688 q 443 730 433 707 q 453 796 453 753 l 453 1077 l 265 1077 l 265 1149 l 533 1158 l 544 1148 l 544 797 m 481 1227 q 435 1243 453 1227 q 418 1285 418 1258 q 435 1326 418 1310 q 481 1341 453 1341 q 527 1326 510 1341 q 544 1285 544 1310 q 527 1243 544 1258 q 481 1227 510 1227 z "},"ˡ":{"ha":861,"x_min":245,"x_max":616,"o":"m 245 838 l 385 838 l 385 1253 l 245 1253 l 245 1326 l 465 1335 l 476 1324 l 476 838 l 616 838 l 616 764 l 245 764 l 245 838 z "},"ⁿ":{"ha":861,"x_min":252,"x_max":609,"o":"m 518 764 l 518 1021 q 500 1072 518 1057 q 451 1086 482 1086 q 343 1039 392 1086 l 343 764 l 252 764 l 252 1149 l 331 1149 l 337 1093 l 349 1093 q 414 1142 379 1125 q 494 1158 448 1158 q 609 1044 609 1158 l 609 764 l 518 764 z "},"ʳ":{"ha":861,"x_min":240,"x_max":627,"o":"m 427 1093 l 439 1093 q 505 1143 471 1127 q 587 1158 538 1158 q 627 1154 610 1158 l 627 1069 q 517 1063 559 1069 q 434 1035 475 1056 l 434 838 l 569 838 l 569 764 l 240 764 l 240 838 l 342 838 l 342 1076 l 240 1076 l 240 1149 l 421 1149 l 427 1093 z "},"ˢ":{"ha":861,"x_min":232,"x_max":614,"o":"m 433 1158 q 563 1129 518 1158 q 607 1043 607 1099 l 525 1037 q 498 1080 522 1065 q 426 1094 474 1094 q 360 1083 384 1094 q 337 1050 337 1072 q 348 1026 337 1035 q 384 1009 360 1017 q 456 992 408 1002 q 545 969 512 981 q 596 935 578 956 q 614 878 614 914 q 565 788 614 821 q 426 756 517 756 q 291 783 338 756 q 232 875 244 811 l 315 884 q 355 834 326 847 q 430 821 383 821 q 500 834 477 821 q 523 868 523 848 q 511 892 523 883 q 474 909 499 901 q 398 926 448 916 q 286 967 323 941 q 250 1042 250 993 q 296 1128 250 1098 q 433 1158 342 1158 z "},"ʷ":{"ha":861,"x_min":198,"x_max":663,"o":"m 283 1149 l 338 902 l 344 902 l 406 1099 l 465 1099 l 519 902 l 526 902 l 581 1149 l 663 1149 l 574 764 l 497 764 l 433 985 l 428 985 l 359 764 l 288 764 l 198 1149 l 283 1149 z "},"ˣ":{"ha":861,"x_min":212,"x_max":649,"o":"m 324 1149 l 436 1017 l 542 1149 l 644 1149 l 485 958 l 649 764 l 542 764 l 426 902 l 317 764 l 212 764 l 376 960 l 217 1149 l 324 1149 z "},"ʸ":{"ha":861,"x_min":217,"x_max":646,"o":"m 315 1149 l 440 881 l 445 881 l 555 1149 l 646 1149 l 491 781 q 411 658 458 699 q 285 617 365 617 q 235 622 265 617 l 235 702 q 288 697 262 697 q 356 712 332 697 q 389 754 379 727 l 394 768 l 217 1149 l 315 1149 z "},"ℂ":{"ha":861,"x_min":85,"x_max":774,"o":"m 178 506 q 275 144 178 254 l 275 871 q 178 506 178 760 m 85 506 q 131 796 85 678 q 260 972 178 914 q 450 1030 342 1030 q 617 988 545 1030 q 729 873 688 947 q 774 702 769 799 l 689 694 q 653 828 683 771 q 572 917 624 885 q 452 949 521 949 q 358 931 401 949 l 358 83 q 452 66 401 66 q 572 98 521 66 q 653 186 624 129 q 689 321 683 244 l 774 313 q 729 142 769 216 q 617 26 688 68 q 450 -15 545 -15 q 260 43 342 -15 q 131 218 178 101 q 85 506 85 335 z "},"ℕ":{"ha":861,"x_min":132,"x_max":729,"o":"m 132 1014 l 253 1014 l 646 415 l 646 1014 l 729 1014 l 729 0 l 608 0 l 215 599 l 215 0 l 132 0 l 132 1014 m 646 90 l 646 267 l 215 924 l 215 747 l 646 90 z "},"ℚ":{"ha":861,"x_min":76,"x_max":785,"o":"m 575 114 q 691 508 691 211 q 623 845 691 740 q 431 949 556 949 q 353 938 388 949 l 353 76 q 431 65 388 65 q 513 78 476 65 l 417 273 l 501 273 l 575 114 m 785 508 q 741 216 785 333 q 615 40 697 98 l 728 -176 l 638 -176 l 548 4 q 431 -16 496 -16 q 243 42 322 -16 q 120 217 164 99 q 76 508 76 335 q 120 798 76 681 q 243 973 164 915 q 431 1031 323 1031 q 618 973 538 1031 q 741 798 697 915 q 785 508 785 681 m 170 508 q 270 128 170 232 l 270 886 q 170 508 170 784 z "},"ℝ":{"ha":861,"x_min":132,"x_max":789,"o":"m 399 490 q 613 551 549 490 q 676 726 676 613 q 649 850 676 803 q 566 917 622 896 q 419 938 510 938 l 392 938 l 392 490 l 399 490 m 132 1014 l 436 1014 q 678 944 593 1014 q 763 726 763 874 q 716 545 763 619 q 572 440 669 472 l 789 0 l 690 0 l 490 422 q 408 417 454 417 l 392 417 l 392 0 l 132 0 l 132 1014 m 309 76 l 309 938 l 215 938 l 215 76 l 309 76 z "},"ℤ":{"ha":861,"x_min":104,"x_max":757,"o":"m 757 1014 l 757 931 l 388 83 l 757 83 l 757 0 l 104 0 l 104 83 l 473 931 l 104 931 l 104 1014 l 757 1014 m 297 83 l 665 931 l 565 931 l 197 83 l 297 83 z "},"ₕ":{"ha":861,"x_min":252,"x_max":609,"o":"m 252 -194 l 252 367 l 343 367 l 343 135 l 354 135 q 417 183 385 167 q 496 200 450 200 q 609 86 609 200 l 609 -194 l 518 -194 l 518 63 q 500 113 518 99 q 451 128 482 128 q 343 80 392 128 l 343 -194 l 252 -194 z "},"ₖ":{"ha":861,"x_min":252,"x_max":656,"o":"m 252 -194 l 252 367 l 343 367 l 343 47 l 416 47 l 542 191 l 643 191 l 483 10 l 483 6 l 656 -194 l 549 -194 l 402 -25 l 343 -25 l 343 -194 l 252 -194 z "},"ₗ":{"ha":861,"x_min":245,"x_max":616,"o":"m 245 -121 l 385 -121 l 385 295 l 245 295 l 245 367 l 465 376 l 476 365 l 476 -121 l 616 -121 l 616 -194 l 245 -194 l 245 -121 z "},"ₘ":{"ha":861,"x_min":238,"x_max":624,"o":"m 390 -194 l 390 92 q 362 124 390 124 q 318 104 340 124 l 318 -194 l 238 -194 l 238 191 l 306 191 l 311 140 l 319 140 q 353 182 331 165 q 406 199 375 199 q 470 140 463 199 l 473 140 q 507 183 486 166 q 559 199 528 199 q 607 181 590 199 q 624 124 624 162 l 624 -194 l 544 -194 l 544 92 q 515 124 544 124 q 471 104 492 124 l 471 -194 l 390 -194 z "},"ₙ":{"ha":861,"x_min":252,"x_max":609,"o":"m 518 -194 l 518 63 q 500 113 518 99 q 451 128 482 128 q 343 81 392 128 l 343 -194 l 252 -194 l 252 191 l 331 191 l 337 135 l 349 135 q 414 183 379 167 q 494 200 448 200 q 609 86 609 200 l 609 -194 l 518 -194 z "},"ₚ":{"ha":861,"x_min":252,"x_max":634,"o":"m 634 -1 q 592 -148 634 -93 q 473 -203 550 -203 q 399 -187 430 -203 q 349 -146 368 -172 l 343 -146 l 343 -332 l 252 -332 l 252 191 l 331 191 l 336 142 l 348 142 q 476 200 398 200 q 593 145 552 200 q 634 -1 634 90 m 343 -99 q 435 -128 385 -128 q 541 -1 541 -128 q 515 94 541 63 q 435 125 488 125 q 343 96 385 125 l 343 -99 z "},"ₛ":{"ha":861,"x_min":232,"x_max":614,"o":"m 433 200 q 563 170 518 200 q 607 85 607 141 l 525 78 q 498 121 522 107 q 426 135 474 135 q 360 124 384 135 q 337 92 337 113 q 348 68 337 77 q 384 51 360 58 q 456 34 408 44 q 545 10 512 23 q 596 -23 578 -2 q 614 -80 614 -44 q 565 -170 614 -137 q 426 -203 517 -203 q 291 -175 338 -203 q 232 -83 244 -147 l 315 -74 q 355 -125 326 -112 q 430 -137 383 -137 q 500 -124 477 -137 q 523 -90 523 -110 q 511 -66 523 -76 q 474 -50 499 -57 q 398 -33 448 -42 q 286 9 323 -17 q 250 84 250 35 q 296 170 250 140 q 433 200 342 200 z "},"ₜ":{"ha":861,"x_min":224,"x_max":614,"o":"m 509 -203 q 408 -189 444 -203 q 353 -139 371 -175 q 336 -37 336 -103 l 336 118 l 224 118 l 224 191 l 336 191 l 336 303 l 427 303 l 427 191 l 604 191 l 604 118 l 427 118 l 427 -36 q 436 -92 427 -72 q 465 -118 445 -111 q 519 -126 484 -126 q 614 -114 565 -126 l 614 -191 q 509 -203 568 -203 z "},"ᴬ":{"ha":861,"x_min":239,"x_max":623,"o":"m 527 764 l 498 842 l 359 842 l 331 764 l 239 764 l 381 1149 l 479 1149 l 623 764 l 527 764 m 477 899 l 430 1024 l 425 1024 l 379 899 l 477 899 z "},"ᴮ":{"ha":861,"x_min":281,"x_max":613,"o":"m 281 1149 l 436 1149 q 551 1133 512 1150 q 590 1065 590 1115 q 557 997 590 1022 q 483 969 525 972 l 483 966 q 576 943 540 965 q 613 878 613 922 q 565 794 613 824 q 436 764 516 764 l 281 764 l 281 1149 m 412 826 q 492 839 465 826 q 519 881 519 851 q 492 921 519 910 q 412 932 465 932 l 373 932 l 373 826 l 412 826 m 405 991 q 475 1004 451 991 q 499 1042 499 1017 q 477 1077 499 1066 q 412 1088 456 1088 l 373 1088 l 373 991 l 405 991 z "},"ᴰ":{"ha":861,"x_min":276,"x_max":607,"o":"m 276 1149 l 404 1149 q 555 1106 503 1149 q 607 955 607 1063 q 583 839 607 881 q 514 781 558 797 q 404 764 469 764 l 276 764 l 276 1149 m 513 955 q 488 1051 513 1023 q 404 1080 463 1080 l 368 1080 l 368 833 l 404 833 q 468 845 444 833 q 502 883 491 856 q 513 955 513 909 z "},"ᴱ":{"ha":861,"x_min":276,"x_max":583,"o":"m 276 1149 l 583 1149 l 583 1076 l 368 1076 l 368 990 l 542 990 l 542 921 l 368 921 l 368 838 l 583 838 l 583 764 l 276 764 l 276 1149 z "},"ᴳ":{"ha":861,"x_min":256,"x_max":601,"o":"m 601 974 l 601 908 q 556 793 601 828 q 438 758 511 758 q 256 957 256 758 q 438 1156 256 1156 q 599 1040 581 1156 l 513 1033 q 489 1067 506 1056 q 439 1078 471 1078 q 372 1051 394 1078 q 350 959 350 1023 q 372 860 350 890 q 440 831 393 831 q 516 894 516 831 l 516 905 l 443 905 l 443 974 l 601 974 z "},"ᴴ":{"ha":861,"x_min":276,"x_max":585,"o":"m 276 764 l 276 1149 l 368 1149 l 368 992 l 494 992 l 494 1149 l 585 1149 l 585 764 l 494 764 l 494 919 l 368 919 l 368 764 l 276 764 z "},"ᴵ":{"ha":861,"x_min":279,"x_max":583,"o":"m 279 838 l 385 838 l 385 1076 l 279 1076 l 279 1149 l 583 1149 l 583 1076 l 477 1076 l 477 838 l 583 838 l 583 764 l 279 764 l 279 838 z "},"ᴶ":{"ha":861,"x_min":273,"x_max":580,"o":"m 357 920 l 358 879 q 375 845 359 858 q 422 833 392 833 q 472 846 455 833 q 488 888 488 859 l 488 1076 l 297 1076 l 297 1149 l 580 1149 l 580 894 q 540 790 580 822 q 417 758 501 758 q 312 786 348 758 q 274 869 276 815 l 273 920 l 357 920 z "},"ᴷ":{"ha":861,"x_min":276,"x_max":615,"o":"m 276 764 l 276 1149 l 368 1149 l 368 992 l 415 992 l 514 1149 l 610 1149 l 482 962 l 482 956 l 615 764 l 515 764 l 406 918 l 368 918 l 368 764 l 276 764 z "},"ᴸ":{"ha":861,"x_min":287,"x_max":594,"o":"m 287 1149 l 378 1149 l 378 838 l 594 838 l 594 764 l 287 764 l 287 1149 z "},"ᴹ":{"ha":861,"x_min":266,"x_max":595,"o":"m 349 1149 l 430 987 l 433 987 l 517 1149 l 595 1149 l 595 764 l 523 764 l 523 1017 l 518 1017 l 439 862 l 419 862 l 341 1017 l 338 1017 l 338 764 l 266 764 l 266 1149 l 349 1149 z "},"ᴺ":{"ha":861,"x_min":276,"x_max":585,"o":"m 360 1007 l 351 1007 l 351 764 l 276 764 l 276 1149 l 365 1149 l 502 902 l 511 902 l 511 1149 l 585 1149 l 585 764 l 498 764 l 360 1007 z "},"ᴼ":{"ha":861,"x_min":255,"x_max":607,"o":"m 607 957 q 561 808 607 858 q 431 758 516 758 q 301 808 347 758 q 255 957 255 858 q 300 1108 255 1060 q 431 1156 345 1156 q 562 1108 517 1156 q 607 957 607 1060 m 513 957 q 494 1052 513 1025 q 431 1080 474 1080 q 368 1052 388 1080 q 349 957 349 1025 q 368 861 349 889 q 431 834 388 834 q 494 861 474 834 q 513 957 513 889 z "},"ᴾ":{"ha":861,"x_min":281,"x_max":604,"o":"m 281 764 l 281 1149 l 446 1149 q 561 1118 519 1149 q 604 1026 604 1086 q 555 928 604 963 q 400 893 505 893 l 373 893 l 373 764 l 281 764 m 412 960 q 488 977 465 960 q 510 1026 510 994 q 488 1070 510 1056 q 419 1085 465 1085 l 373 1085 l 373 960 l 412 960 z "},"ᴿ":{"ha":861,"x_min":281,"x_max":618,"o":"m 281 764 l 281 1149 l 443 1149 q 558 1118 515 1149 q 601 1033 601 1087 q 580 967 601 994 q 516 926 558 940 l 618 764 l 510 764 l 426 912 l 409 912 l 373 912 l 373 764 l 281 764 m 410 978 q 485 992 463 978 q 506 1033 506 1006 q 484 1073 506 1060 q 415 1085 463 1085 l 373 1085 l 373 978 l 410 978 z "},"ᵀ":{"ha":861,"x_min":266,"x_max":596,"o":"m 385 764 l 385 1076 l 266 1076 l 266 1149 l 596 1149 l 596 1076 l 477 1076 l 477 764 l 385 764 z "},"ᵁ":{"ha":861,"x_min":273,"x_max":590,"o":"m 431 833 q 483 850 467 833 q 498 901 498 867 l 498 1149 l 590 1149 l 590 901 q 549 794 590 831 q 431 758 509 758 q 313 794 353 758 q 273 901 273 831 l 273 1149 l 365 1149 l 365 901 q 380 850 365 867 q 431 833 394 833 z "},"ᵂ":{"ha":861,"x_min":241,"x_max":621,"o":"m 326 1149 l 361 936 l 367 936 l 410 1088 l 460 1088 l 497 936 l 502 936 l 539 1149 l 621 1149 l 553 764 l 479 764 l 432 963 l 428 963 l 377 764 l 309 764 l 241 1149 l 326 1149 z "},"ᵃ":{"ha":861,"x_min":233,"x_max":629,"o":"m 419 1158 q 542 1130 499 1158 q 585 1037 585 1101 l 585 857 q 591 835 585 841 q 614 828 597 828 q 629 829 624 828 l 629 764 q 572 756 601 756 q 519 771 535 756 q 499 811 502 785 l 490 811 q 356 756 432 756 q 266 783 299 756 q 233 859 233 811 q 305 957 233 932 q 493 981 376 982 l 493 1033 q 472 1082 493 1068 q 412 1097 451 1097 q 352 1083 374 1097 q 330 1042 330 1070 l 330 1026 l 247 1026 l 247 1046 q 289 1128 247 1098 q 419 1158 330 1158 m 328 871 q 347 834 328 847 q 399 821 365 821 q 493 851 446 821 l 493 931 q 461 933 476 933 q 363 918 397 933 q 328 871 328 903 z "},"ᵇ":{"ha":861,"x_min":252,"x_max":634,"o":"m 634 958 q 592 810 634 865 q 473 756 550 756 q 399 771 430 756 q 349 813 368 787 l 337 813 l 331 764 l 252 764 l 252 1326 l 343 1326 l 343 1101 l 348 1101 q 476 1158 398 1158 q 593 1103 552 1158 q 634 958 634 1049 m 343 859 q 435 830 385 830 q 541 958 541 830 q 515 1052 541 1022 q 435 1083 488 1083 q 343 1054 385 1083 l 343 859 z "},"ᶜ":{"ha":861,"x_min":227,"x_max":628,"o":"m 628 884 q 558 787 611 818 q 433 756 506 756 q 283 808 338 756 q 227 957 227 860 q 285 1108 227 1057 q 438 1158 342 1158 q 570 1123 519 1158 q 628 1019 622 1087 l 540 1011 q 506 1068 533 1049 q 435 1088 478 1088 q 349 1054 378 1088 q 320 957 320 1021 q 350 859 320 892 q 435 826 381 826 q 502 845 476 826 q 541 896 529 863 l 628 884 z "},"ᵈ":{"ha":861,"x_min":227,"x_max":609,"o":"m 227 956 q 269 1103 227 1048 q 389 1158 311 1158 q 462 1143 431 1158 q 513 1101 492 1127 l 518 1101 l 518 1326 l 609 1326 l 609 764 l 531 764 l 525 813 l 513 813 q 385 755 463 755 q 268 810 308 755 q 227 956 227 865 m 320 956 q 347 861 320 892 q 426 830 373 830 q 518 859 476 830 l 518 1055 q 426 1083 477 1083 q 320 956 320 1083 z "},"ᵉ":{"ha":861,"x_min":227,"x_max":626,"o":"m 227 958 q 284 1107 227 1055 q 439 1158 342 1158 q 577 1114 528 1158 q 626 983 626 1070 l 626 947 l 320 947 q 352 857 323 888 q 435 826 382 826 q 535 881 510 826 l 624 867 q 554 783 603 811 q 435 756 504 756 q 326 778 373 756 q 253 847 279 801 q 227 958 227 892 m 537 1003 q 509 1066 537 1045 q 436 1088 482 1088 q 363 1067 392 1088 q 324 1003 334 1046 l 537 1003 z "},"ᶠ":{"ha":861,"x_min":224,"x_max":632,"o":"m 632 1268 q 542 1278 581 1278 q 484 1270 506 1278 q 452 1242 463 1263 q 441 1184 441 1222 l 441 1149 l 618 1149 l 618 1076 l 441 1076 l 441 838 l 577 838 l 577 764 l 248 764 l 248 838 l 350 838 l 350 1076 l 224 1076 l 224 1149 l 350 1149 l 350 1167 q 397 1312 350 1267 q 538 1356 444 1356 q 632 1345 586 1356 l 632 1268 z "},"ᵍ":{"ha":861,"x_min":227,"x_max":609,"o":"m 227 977 q 247 1072 227 1031 q 302 1136 266 1113 q 388 1158 338 1158 q 461 1142 430 1158 q 513 1101 493 1126 l 525 1101 l 531 1149 l 609 1149 l 609 786 q 562 658 609 698 q 419 617 515 617 q 294 645 336 617 q 239 721 251 672 l 322 738 q 358 694 333 708 q 419 681 382 681 q 492 703 466 681 q 518 776 518 725 l 518 855 l 513 855 q 385 798 463 798 q 300 820 336 798 q 246 883 265 843 q 227 977 227 924 m 320 977 q 348 900 320 927 q 426 873 375 873 q 518 902 477 873 l 518 1055 q 426 1083 477 1083 q 348 1056 376 1083 q 320 977 320 1028 z "},"ᵏ":{"ha":861,"x_min":252,"x_max":656,"o":"m 252 764 l 252 1326 l 343 1326 l 343 1005 l 416 1005 l 542 1149 l 643 1149 l 483 969 l 483 964 l 656 764 l 549 764 l 402 933 l 343 933 l 343 764 l 252 764 z "},"ᵐ":{"ha":861,"x_min":238,"x_max":624,"o":"m 390 764 l 390 1051 q 362 1082 390 1082 q 318 1063 340 1082 l 318 764 l 238 764 l 238 1149 l 306 1149 l 311 1098 l 319 1098 q 353 1141 331 1124 q 406 1158 375 1158 q 470 1098 463 1158 l 473 1098 q 507 1141 486 1124 q 559 1158 528 1158 q 607 1139 590 1158 q 624 1082 624 1120 l 624 764 l 544 764 l 544 1051 q 515 1082 544 1082 q 471 1063 492 1082 l 471 764 l 390 764 z "},"ᵒ":{"ha":861,"x_min":227,"x_max":634,"o":"m 634 956 q 607 844 634 889 q 534 777 580 799 q 431 756 488 756 q 327 777 373 756 q 254 844 281 799 q 227 956 227 889 q 254 1068 227 1022 q 327 1136 281 1113 q 431 1158 374 1158 q 534 1136 488 1158 q 607 1068 580 1113 q 634 956 634 1022 m 541 956 q 511 1056 541 1024 q 431 1088 482 1088 q 350 1056 379 1088 q 320 956 320 1024 q 350 857 320 888 q 431 826 379 826 q 511 857 482 826 q 541 956 541 888 z "},"ᵖ":{"ha":861,"x_min":252,"x_max":634,"o":"m 634 958 q 592 810 634 865 q 473 756 550 756 q 399 771 430 756 q 349 813 368 787 l 343 813 l 343 626 l 252 626 l 252 1149 l 331 1149 l 336 1101 l 348 1101 q 476 1158 398 1158 q 593 1103 552 1158 q 634 958 634 1049 m 343 859 q 435 830 385 830 q 541 958 541 830 q 515 1052 541 1022 q 435 1083 488 1083 q 343 1054 385 1083 l 343 859 z "},"ᵗ":{"ha":861,"x_min":224,"x_max":614,"o":"m 509 755 q 408 769 444 755 q 353 819 371 783 q 336 921 336 855 l 336 1076 l 224 1076 l 224 1149 l 336 1149 l 336 1262 l 427 1262 l 427 1149 l 604 1149 l 604 1076 l 427 1076 l 427 922 q 436 867 427 886 q 465 840 445 847 q 519 833 484 833 q 614 844 565 833 l 614 767 q 509 755 568 755 z "},"ᵘ":{"ha":861,"x_min":252,"x_max":609,"o":"m 343 1149 l 343 893 q 361 842 343 857 q 410 828 379 828 q 518 874 469 828 l 518 1149 l 609 1149 l 609 764 l 531 764 l 524 821 l 513 821 q 449 773 483 790 q 367 756 414 756 q 252 869 252 756 l 252 1149 l 343 1149 z "},"ᵛ":{"ha":861,"x_min":217,"x_max":643,"o":"m 315 1149 l 432 873 l 438 873 l 553 1149 l 643 1149 l 478 764 l 383 764 l 217 1149 l 315 1149 z "},"ᶻ":{"ha":861,"x_min":249,"x_max":613,"o":"m 599 1149 l 599 1096 l 374 838 l 613 838 l 613 764 l 249 764 l 249 818 l 474 1076 l 249 1076 l 249 1149 l 599 1149 z "},"⓿":{"ha":861,"x_min":13,"x_max":848,"o":"m 431 86 q 641 139 546 86 q 792 287 736 191 q 848 507 848 383 q 792 727 848 631 q 641 875 736 823 q 431 928 546 928 q 220 875 315 928 q 69 727 125 823 q 13 507 13 631 q 69 287 13 383 q 220 139 125 191 q 431 86 315 86 m 607 506 q 561 356 607 406 q 431 306 516 306 q 300 356 345 306 q 254 506 254 406 q 299 657 254 610 q 431 705 344 705 q 562 657 517 705 q 607 506 607 610 m 513 506 q 505 579 513 552 q 478 617 497 606 q 431 628 460 628 q 383 617 401 628 q 357 579 365 606 q 349 506 349 552 q 357 432 349 459 q 383 393 365 405 q 431 382 401 382 q 478 393 460 382 q 505 432 497 405 q 513 506 513 459 z "},"❶":{"ha":861,"x_min":13,"x_max":848,"o":"m 431 86 q 641 139 546 86 q 792 287 736 191 q 848 507 848 383 q 792 727 848 631 q 641 875 736 823 q 431 928 546 928 q 220 875 315 928 q 69 727 125 823 q 13 507 13 631 q 69 287 13 383 q 220 139 125 191 q 431 86 315 86 m 297 642 q 335 649 314 642 q 374 669 357 656 q 396 698 391 681 l 487 698 l 487 385 l 596 385 l 596 313 l 285 313 l 285 385 l 396 385 l 396 592 q 347 562 373 573 q 297 551 321 551 l 297 642 z "},"❷":{"ha":861,"x_min":13,"x_max":848,"o":"m 431 86 q 641 139 546 86 q 792 287 736 191 q 848 507 848 383 q 792 727 848 631 q 641 875 736 823 q 431 928 546 928 q 220 875 315 928 q 69 727 125 823 q 13 507 13 631 q 69 287 13 383 q 220 139 125 191 q 431 86 315 86 m 425 704 q 540 677 498 704 q 582 594 582 650 q 561 529 582 555 q 517 489 541 503 q 444 453 492 475 q 378 418 396 431 q 356 385 360 405 l 593 385 l 593 313 l 269 313 l 269 385 q 286 439 269 416 q 332 478 303 461 q 406 515 360 496 l 421 522 q 474 552 457 538 q 492 590 492 566 q 476 625 492 614 q 428 635 460 635 q 373 622 392 635 q 351 576 354 608 l 268 585 q 308 672 266 640 q 425 704 350 704 z "},"❸":{"ha":861,"x_min":13,"x_max":848,"o":"m 431 86 q 641 139 546 86 q 792 287 736 191 q 848 507 848 383 q 792 727 848 631 q 641 875 736 823 q 431 928 546 928 q 220 875 315 928 q 69 727 125 823 q 13 507 13 631 q 69 287 13 383 q 220 139 125 191 q 431 86 315 86 m 433 704 q 549 677 508 704 q 590 599 590 651 q 570 541 590 563 q 518 507 551 519 q 578 478 556 499 q 600 420 600 458 q 555 334 600 362 q 431 306 510 306 q 305 333 348 306 q 261 422 262 360 l 344 431 q 371 389 351 401 q 431 377 391 377 q 490 389 472 377 q 508 424 508 401 q 483 460 508 448 q 404 472 458 472 l 385 472 l 385 531 l 405 531 q 478 547 453 531 q 503 590 503 562 q 431 635 503 635 q 377 623 396 635 q 353 579 358 610 l 273 588 q 314 674 273 644 q 433 704 354 704 z "},"❹":{"ha":861,"x_min":13,"x_max":848,"o":"m 431 86 q 641 139 546 86 q 792 287 736 191 q 848 507 848 383 q 792 727 848 631 q 641 875 736 823 q 431 928 546 928 q 220 875 315 928 q 69 727 125 823 q 13 507 13 631 q 69 287 13 383 q 220 139 125 191 q 431 86 315 86 m 450 313 l 450 400 l 243 400 l 243 473 l 442 698 l 538 698 l 538 473 l 591 473 l 591 400 l 538 400 l 538 313 l 450 313 m 450 466 l 450 595 l 329 466 l 450 466 z "},"❺":{"ha":861,"x_min":13,"x_max":848,"o":"m 431 86 q 641 139 546 86 q 792 287 736 191 q 848 507 848 383 q 792 727 848 631 q 641 875 736 823 q 431 928 546 928 q 220 875 315 928 q 69 727 125 823 q 13 507 13 631 q 69 287 13 383 q 220 139 125 191 q 431 86 315 86 m 577 698 l 577 625 l 372 625 l 358 542 q 453 562 401 562 q 561 531 522 562 q 600 442 600 501 q 555 340 600 374 q 429 307 510 307 q 261 422 262 307 l 347 430 q 373 390 352 401 q 428 378 394 378 q 490 393 469 378 q 510 443 510 409 q 491 490 510 473 q 430 506 471 506 q 386 499 407 506 q 350 479 365 492 l 270 489 l 301 698 l 577 698 z "},"❻":{"ha":861,"x_min":13,"x_max":848,"o":"m 431 86 q 641 139 546 86 q 792 287 736 191 q 848 507 848 383 q 792 727 848 631 q 641 875 736 823 q 431 928 546 928 q 220 875 315 928 q 69 727 125 823 q 13 507 13 631 q 69 287 13 383 q 220 139 125 191 q 431 86 315 86 m 438 704 q 546 677 508 704 q 589 596 584 650 l 506 588 q 485 624 502 613 q 436 635 468 635 q 372 608 393 635 q 349 509 351 580 q 467 546 402 546 q 564 520 528 546 q 599 435 599 494 q 555 339 599 371 q 431 307 510 307 q 301 353 348 307 q 255 506 255 399 q 302 658 255 612 q 438 704 350 704 m 351 460 q 377 396 357 415 q 431 378 397 378 q 489 392 468 378 q 509 435 509 407 q 491 474 509 461 q 441 487 473 487 q 351 460 394 487 z "},"❼":{"ha":861,"x_min":13,"x_max":848,"o":"m 431 86 q 641 139 546 86 q 792 287 736 191 q 848 507 848 383 q 792 727 848 631 q 641 875 736 823 q 431 928 546 928 q 220 875 315 928 q 69 727 125 823 q 13 507 13 631 q 69 287 13 383 q 220 139 125 191 q 431 86 315 86 m 590 696 l 590 646 l 438 310 l 347 310 l 489 622 l 271 622 l 271 696 l 590 696 z "},"❽":{"ha":861,"x_min":13,"x_max":848,"o":"m 431 86 q 641 139 546 86 q 792 287 736 191 q 848 507 848 383 q 792 727 848 631 q 641 875 736 823 q 431 928 546 928 q 220 875 315 928 q 69 727 125 823 q 13 507 13 631 q 69 287 13 383 q 220 139 125 191 q 431 86 315 86 m 434 704 q 548 677 505 704 q 591 601 591 650 q 524 515 591 544 q 605 421 605 480 q 560 335 605 364 q 430 307 515 307 q 300 333 342 307 q 257 415 257 360 q 337 506 257 476 q 271 597 271 542 q 315 677 271 649 q 434 704 359 704 m 344 424 q 433 375 344 375 q 490 387 469 375 q 511 419 511 399 q 484 452 511 439 q 400 483 457 465 q 359 458 374 472 q 344 424 344 445 m 358 597 q 380 566 358 580 q 444 540 401 552 q 493 561 476 549 q 510 594 510 572 q 489 627 510 617 q 429 638 467 638 q 376 629 394 638 q 358 597 358 619 z "},"❾":{"ha":861,"x_min":13,"x_max":848,"o":"m 431 86 q 641 139 546 86 q 792 287 736 191 q 848 507 848 383 q 792 727 848 631 q 641 875 736 823 q 431 928 546 928 q 220 875 315 928 q 69 727 125 823 q 13 507 13 631 q 69 287 13 383 q 220 139 125 191 q 431 86 315 86 m 423 307 q 315 334 353 307 q 272 415 276 361 l 355 424 q 375 387 358 399 q 424 376 392 376 q 489 403 467 376 q 511 501 510 431 q 394 465 458 465 q 298 491 333 465 q 262 576 262 517 q 306 672 262 640 q 430 704 351 704 q 606 505 606 704 q 558 353 606 399 q 423 307 510 307 m 351 576 q 369 537 351 550 q 419 524 388 524 q 509 550 464 524 q 484 615 504 596 q 429 633 464 633 q 372 618 393 633 q 351 576 351 603 z "},"⓪":{"ha":861,"x_min":13,"x_max":848,"o":"m 431 86 q 220 139 315 86 q 69 287 125 191 q 13 507 13 383 q 69 727 13 631 q 220 875 125 823 q 431 928 315 928 q 641 875 546 928 q 792 727 736 823 q 848 507 848 631 q 792 287 848 383 q 641 139 736 191 q 431 86 546 86 m 431 158 q 606 201 527 158 q 731 325 685 245 q 777 507 777 404 q 731 689 777 610 q 606 813 685 769 q 431 857 527 857 q 255 813 334 857 q 131 689 176 769 q 85 507 85 610 q 131 325 85 404 q 255 201 176 245 q 431 158 334 158 m 607 506 q 561 356 607 406 q 431 306 516 306 q 300 356 345 306 q 254 506 254 406 q 299 657 254 610 q 431 705 344 705 q 562 657 517 705 q 607 506 607 610 m 513 506 q 505 579 513 552 q 478 617 497 606 q 431 628 460 628 q 383 617 401 628 q 357 579 365 606 q 349 506 349 552 q 357 432 349 459 q 383 393 365 405 q 431 382 401 382 q 478 393 460 382 q 505 432 497 405 q 513 506 513 459 z "},"①":{"ha":861,"x_min":13,"x_max":848,"o":"m 431 86 q 220 139 315 86 q 69 287 125 191 q 13 507 13 383 q 69 727 13 631 q 220 875 125 823 q 431 928 315 928 q 641 875 546 928 q 792 727 736 823 q 848 507 848 631 q 792 287 848 383 q 641 139 736 191 q 431 86 546 86 m 431 158 q 606 201 527 158 q 731 325 685 245 q 777 507 777 404 q 731 689 777 610 q 606 813 685 769 q 431 857 527 857 q 255 813 334 857 q 131 689 176 769 q 85 507 85 610 q 131 325 85 404 q 255 201 176 245 q 431 158 334 158 m 297 642 q 335 649 314 642 q 374 669 357 656 q 396 698 391 681 l 487 698 l 487 385 l 596 385 l 596 313 l 285 313 l 285 385 l 396 385 l 396 592 q 347 562 373 573 q 297 551 321 551 l 297 642 z "},"②":{"ha":861,"x_min":13,"x_max":848,"o":"m 431 86 q 220 139 315 86 q 69 287 125 191 q 13 507 13 383 q 69 727 13 631 q 220 875 125 823 q 431 928 315 928 q 641 875 546 928 q 792 727 736 823 q 848 507 848 631 q 792 287 848 383 q 641 139 736 191 q 431 86 546 86 m 431 158 q 606 201 527 158 q 731 325 685 245 q 777 507 777 404 q 731 689 777 610 q 606 813 685 769 q 431 857 527 857 q 255 813 334 857 q 131 689 176 769 q 85 507 85 610 q 131 325 85 404 q 255 201 176 245 q 431 158 334 158 m 425 704 q 540 677 498 704 q 582 594 582 650 q 561 529 582 555 q 517 489 541 503 q 444 453 492 475 q 378 418 396 431 q 356 385 360 405 l 593 385 l 593 313 l 269 313 l 269 385 q 286 439 269 416 q 332 478 303 461 q 406 515 360 496 l 421 522 q 474 552 457 538 q 492 590 492 566 q 476 625 492 614 q 428 635 460 635 q 373 622 392 635 q 351 576 354 608 l 268 585 q 308 672 266 640 q 425 704 350 704 z "},"③":{"ha":861,"x_min":13,"x_max":848,"o":"m 431 86 q 220 139 315 86 q 69 287 125 191 q 13 507 13 383 q 69 727 13 631 q 220 875 125 823 q 431 928 315 928 q 641 875 546 928 q 792 727 736 823 q 848 507 848 631 q 792 287 848 383 q 641 139 736 191 q 431 86 546 86 m 431 158 q 606 201 527 158 q 731 325 685 245 q 777 507 777 404 q 731 689 777 610 q 606 813 685 769 q 431 857 527 857 q 255 813 334 857 q 131 689 176 769 q 85 507 85 610 q 131 325 85 404 q 255 201 176 245 q 431 158 334 158 m 433 704 q 549 677 508 704 q 590 599 590 651 q 570 541 590 563 q 518 507 551 519 q 578 478 556 499 q 600 420 600 458 q 555 334 600 362 q 431 306 510 306 q 305 333 348 306 q 261 422 262 360 l 344 431 q 371 389 351 401 q 431 377 391 377 q 490 389 472 377 q 508 424 508 401 q 483 460 508 448 q 404 472 458 472 l 385 472 l 385 531 l 405 531 q 478 547 453 531 q 503 590 503 562 q 431 635 503 635 q 377 623 396 635 q 353 579 358 610 l 273 588 q 314 674 273 644 q 433 704 354 704 z "},"④":{"ha":861,"x_min":13,"x_max":848,"o":"m 431 86 q 220 139 315 86 q 69 287 125 191 q 13 507 13 383 q 69 727 13 631 q 220 875 125 823 q 431 928 315 928 q 641 875 546 928 q 792 727 736 823 q 848 507 848 631 q 792 287 848 383 q 641 139 736 191 q 431 86 546 86 m 431 158 q 606 201 527 158 q 731 325 685 245 q 777 507 777 404 q 731 689 777 610 q 606 813 685 769 q 431 857 527 857 q 255 813 334 857 q 131 689 176 769 q 85 507 85 610 q 131 325 85 404 q 255 201 176 245 q 431 158 334 158 m 450 313 l 450 400 l 243 400 l 243 473 l 442 698 l 538 698 l 538 473 l 591 473 l 591 400 l 538 400 l 538 313 l 450 313 m 450 466 l 450 595 l 329 466 l 450 466 z "},"⑤":{"ha":861,"x_min":13,"x_max":848,"o":"m 431 86 q 220 139 315 86 q 69 287 125 191 q 13 507 13 383 q 69 727 13 631 q 220 875 125 823 q 431 928 315 928 q 641 875 546 928 q 792 727 736 823 q 848 507 848 631 q 792 287 848 383 q 641 139 736 191 q 431 86 546 86 m 431 158 q 606 201 527 158 q 731 325 685 245 q 777 507 777 404 q 731 689 777 610 q 606 813 685 769 q 431 857 527 857 q 255 813 334 857 q 131 689 176 769 q 85 507 85 610 q 131 325 85 404 q 255 201 176 245 q 431 158 334 158 m 577 698 l 577 625 l 372 625 l 358 542 q 453 562 401 562 q 561 531 522 562 q 600 442 600 501 q 555 340 600 374 q 429 307 510 307 q 261 422 262 307 l 347 430 q 373 390 352 401 q 428 378 394 378 q 490 393 469 378 q 510 443 510 409 q 491 490 510 473 q 430 506 471 506 q 386 499 407 506 q 350 479 365 492 l 270 489 l 301 698 l 577 698 z "},"⑥":{"ha":861,"x_min":13,"x_max":848,"o":"m 431 86 q 220 139 315 86 q 69 287 125 191 q 13 507 13 383 q 69 727 13 631 q 220 875 125 823 q 431 928 315 928 q 641 875 546 928 q 792 727 736 823 q 848 507 848 631 q 792 287 848 383 q 641 139 736 191 q 431 86 546 86 m 431 158 q 606 201 527 158 q 731 325 685 245 q 777 507 777 404 q 731 689 777 610 q 606 813 685 769 q 431 857 527 857 q 255 813 334 857 q 131 689 176 769 q 85 507 85 610 q 131 325 85 404 q 255 201 176 245 q 431 158 334 158 m 438 704 q 546 677 508 704 q 589 596 584 650 l 506 588 q 485 624 502 613 q 436 635 468 635 q 372 608 393 635 q 349 509 351 580 q 467 546 402 546 q 564 520 528 546 q 599 435 599 494 q 555 339 599 371 q 431 307 510 307 q 301 353 348 307 q 255 506 255 399 q 302 658 255 612 q 438 704 350 704 m 351 460 q 377 396 357 415 q 431 378 397 378 q 489 392 468 378 q 509 435 509 407 q 491 474 509 461 q 441 487 473 487 q 351 460 394 487 z "},"⑦":{"ha":861,"x_min":13,"x_max":848,"o":"m 431 86 q 220 139 315 86 q 69 287 125 191 q 13 507 13 383 q 69 727 13 631 q 220 875 125 823 q 431 928 315 928 q 641 875 546 928 q 792 727 736 823 q 848 507 848 631 q 792 287 848 383 q 641 139 736 191 q 431 86 546 86 m 431 158 q 606 201 527 158 q 731 325 685 245 q 777 507 777 404 q 731 689 777 610 q 606 813 685 769 q 431 857 527 857 q 255 813 334 857 q 131 689 176 769 q 85 507 85 610 q 131 325 85 404 q 255 201 176 245 q 431 158 334 158 m 590 696 l 590 646 l 438 310 l 347 310 l 489 622 l 271 622 l 271 696 l 590 696 z "},"⑧":{"ha":861,"x_min":13,"x_max":848,"o":"m 431 86 q 220 139 315 86 q 69 287 125 191 q 13 507 13 383 q 69 727 13 631 q 220 875 125 823 q 431 928 315 928 q 641 875 546 928 q 792 727 736 823 q 848 507 848 631 q 792 287 848 383 q 641 139 736 191 q 431 86 546 86 m 431 158 q 606 201 527 158 q 731 325 685 245 q 777 507 777 404 q 731 689 777 610 q 606 813 685 769 q 431 857 527 857 q 255 813 334 857 q 131 689 176 769 q 85 507 85 610 q 131 325 85 404 q 255 201 176 245 q 431 158 334 158 m 434 704 q 548 677 505 704 q 591 601 591 650 q 524 515 591 544 q 605 421 605 480 q 560 335 605 364 q 430 307 515 307 q 300 333 342 307 q 257 415 257 360 q 337 506 257 476 q 271 597 271 542 q 315 677 271 649 q 434 704 359 704 m 344 424 q 433 375 344 375 q 490 387 469 375 q 511 419 511 399 q 484 452 511 439 q 400 483 457 465 q 359 458 374 472 q 344 424 344 445 m 358 597 q 380 566 358 580 q 444 540 401 552 q 493 561 476 549 q 510 594 510 572 q 489 627 510 617 q 429 638 467 638 q 376 629 394 638 q 358 597 358 619 z "},"⑨":{"ha":861,"x_min":13,"x_max":848,"o":"m 431 86 q 220 139 315 86 q 69 287 125 191 q 13 507 13 383 q 69 727 13 631 q 220 875 125 823 q 431 928 315 928 q 641 875 546 928 q 792 727 736 823 q 848 507 848 631 q 792 287 848 383 q 641 139 736 191 q 431 86 546 86 m 431 158 q 606 201 527 158 q 731 325 685 245 q 777 507 777 404 q 731 689 777 610 q 606 813 685 769 q 431 857 527 857 q 255 813 334 857 q 131 689 176 769 q 85 507 85 610 q 131 325 85 404 q 255 201 176 245 q 431 158 334 158 m 423 307 q 315 334 353 307 q 272 415 276 361 l 355 424 q 375 387 358 399 q 424 376 392 376 q 489 403 467 376 q 511 501 510 431 q 394 465 458 465 q 298 491 333 465 q 262 576 262 517 q 306 672 262 640 q 430 704 351 704 q 606 505 606 704 q 558 353 606 399 q 423 307 510 307 m 351 576 q 369 537 351 550 q 419 524 388 524 q 509 550 464 524 q 484 615 504 596 q 429 633 464 633 q 372 618 393 633 q 351 576 351 603 z "},"⑴":{"ha":861,"x_min":13,"x_max":848,"o":"m 97 507 q 138 317 97 399 q 257 152 180 234 l 179 152 q 60 303 108 216 q 13 507 13 391 q 60 711 13 623 q 179 863 108 799 l 257 863 q 138 698 180 781 q 97 507 97 615 m 765 507 q 724 698 765 615 q 605 863 682 781 l 682 863 q 801 711 753 799 q 848 507 848 623 q 801 303 848 391 q 682 152 754 215 l 605 152 q 724 317 682 234 q 765 507 765 399 m 297 642 q 335 649 314 642 q 374 669 357 656 q 396 698 391 681 l 487 698 l 487 385 l 596 385 l 596 313 l 285 313 l 285 385 l 396 385 l 396 592 q 347 562 373 573 q 297 551 321 551 l 297 642 z "},"⑵":{"ha":861,"x_min":13,"x_max":848,"o":"m 97 507 q 138 317 97 399 q 257 152 180 234 l 179 152 q 60 303 108 216 q 13 507 13 391 q 60 711 13 623 q 179 863 108 799 l 257 863 q 138 698 180 781 q 97 507 97 615 m 765 507 q 724 698 765 615 q 605 863 682 781 l 682 863 q 801 711 753 799 q 848 507 848 623 q 801 303 848 391 q 682 152 754 215 l 605 152 q 724 317 682 234 q 765 507 765 399 m 425 704 q 540 677 498 704 q 582 594 582 650 q 561 529 582 555 q 517 489 541 503 q 444 453 492 475 q 378 418 396 431 q 356 385 360 405 l 593 385 l 593 313 l 269 313 l 269 385 q 286 439 269 416 q 332 478 303 461 q 406 515 360 496 l 421 522 q 474 552 457 538 q 492 590 492 566 q 476 625 492 614 q 428 635 460 635 q 373 622 392 635 q 351 576 354 608 l 268 585 q 308 672 266 640 q 425 704 350 704 z "},"⑶":{"ha":861,"x_min":13,"x_max":848,"o":"m 97 507 q 138 317 97 399 q 257 152 180 234 l 179 152 q 60 303 108 216 q 13 507 13 391 q 60 711 13 623 q 179 863 108 799 l 257 863 q 138 698 180 781 q 97 507 97 615 m 765 507 q 724 698 765 615 q 605 863 682 781 l 682 863 q 801 711 753 799 q 848 507 848 623 q 801 303 848 391 q 682 152 754 215 l 605 152 q 724 317 682 234 q 765 507 765 399 m 433 704 q 549 677 508 704 q 590 599 590 651 q 570 541 590 563 q 518 507 551 519 q 578 478 556 499 q 600 420 600 458 q 555 334 600 362 q 431 306 510 306 q 305 333 348 306 q 261 422 262 360 l 344 431 q 371 389 351 401 q 431 377 391 377 q 490 389 472 377 q 508 424 508 401 q 483 460 508 448 q 404 472 458 472 l 385 472 l 385 531 l 405 531 q 478 547 453 531 q 503 590 503 562 q 431 635 503 635 q 377 623 396 635 q 353 579 358 610 l 273 588 q 314 674 273 644 q 433 704 354 704 z "},"⑷":{"ha":861,"x_min":13,"x_max":848,"o":"m 97 507 q 138 317 97 399 q 257 152 180 234 l 179 152 q 60 303 108 216 q 13 507 13 391 q 60 711 13 623 q 179 863 108 799 l 257 863 q 138 698 180 781 q 97 507 97 615 m 765 507 q 724 698 765 615 q 605 863 682 781 l 682 863 q 801 711 753 799 q 848 507 848 623 q 801 303 848 391 q 682 152 754 215 l 605 152 q 724 317 682 234 q 765 507 765 399 m 450 313 l 450 400 l 243 400 l 243 473 l 442 698 l 538 698 l 538 473 l 591 473 l 591 400 l 538 400 l 538 313 l 450 313 m 450 466 l 450 595 l 329 466 l 450 466 z "},"⑸":{"ha":861,"x_min":13,"x_max":848,"o":"m 97 507 q 138 317 97 399 q 257 152 180 234 l 179 152 q 60 303 108 216 q 13 507 13 391 q 60 711 13 623 q 179 863 108 799 l 257 863 q 138 698 180 781 q 97 507 97 615 m 765 507 q 724 698 765 615 q 605 863 682 781 l 682 863 q 801 711 753 799 q 848 507 848 623 q 801 303 848 391 q 682 152 754 215 l 605 152 q 724 317 682 234 q 765 507 765 399 m 577 698 l 577 625 l 372 625 l 358 542 q 453 562 401 562 q 561 531 522 562 q 600 442 600 501 q 555 340 600 374 q 429 307 510 307 q 261 422 262 307 l 347 430 q 373 390 352 401 q 428 378 394 378 q 490 393 469 378 q 510 443 510 409 q 491 490 510 473 q 430 506 471 506 q 386 499 407 506 q 350 479 365 492 l 270 489 l 301 698 l 577 698 z "},"⑹":{"ha":861,"x_min":13,"x_max":848,"o":"m 97 507 q 138 317 97 399 q 257 152 180 234 l 179 152 q 60 303 108 216 q 13 507 13 391 q 60 711 13 623 q 179 863 108 799 l 257 863 q 138 698 180 781 q 97 507 97 615 m 765 507 q 724 698 765 615 q 605 863 682 781 l 682 863 q 801 711 753 799 q 848 507 848 623 q 801 303 848 391 q 682 152 754 215 l 605 152 q 724 317 682 234 q 765 507 765 399 m 438 704 q 546 677 508 704 q 589 596 584 650 l 506 588 q 485 624 502 613 q 436 635 468 635 q 372 608 393 635 q 349 509 351 580 q 467 546 402 546 q 564 520 528 546 q 599 435 599 494 q 555 339 599 371 q 431 307 510 307 q 301 353 348 307 q 255 506 255 399 q 302 658 255 612 q 438 704 350 704 m 351 460 q 377 396 357 415 q 431 378 397 378 q 489 392 468 378 q 509 435 509 407 q 491 474 509 461 q 441 487 473 487 q 351 460 394 487 z "},"⑺":{"ha":861,"x_min":13,"x_max":848,"o":"m 97 507 q 138 317 97 399 q 257 152 180 234 l 179 152 q 60 303 108 216 q 13 507 13 391 q 60 711 13 623 q 179 863 108 799 l 257 863 q 138 698 180 781 q 97 507 97 615 m 765 507 q 724 698 765 615 q 605 863 682 781 l 682 863 q 801 711 753 799 q 848 507 848 623 q 801 303 848 391 q 682 152 754 215 l 605 152 q 724 317 682 234 q 765 507 765 399 m 590 696 l 590 646 l 438 310 l 347 310 l 489 622 l 271 622 l 271 696 l 590 696 z "},"⑻":{"ha":861,"x_min":13,"x_max":848,"o":"m 97 507 q 138 317 97 399 q 257 152 180 234 l 179 152 q 60 303 108 216 q 13 507 13 391 q 60 711 13 623 q 179 863 108 799 l 257 863 q 138 698 180 781 q 97 507 97 615 m 765 507 q 724 698 765 615 q 605 863 682 781 l 682 863 q 801 711 753 799 q 848 507 848 623 q 801 303 848 391 q 682 152 754 215 l 605 152 q 724 317 682 234 q 765 507 765 399 m 434 704 q 548 677 505 704 q 591 601 591 650 q 524 515 591 544 q 605 421 605 480 q 560 335 605 364 q 430 307 515 307 q 300 333 342 307 q 257 415 257 360 q 337 506 257 476 q 271 597 271 542 q 315 677 271 649 q 434 704 359 704 m 344 424 q 433 375 344 375 q 490 387 469 375 q 511 419 511 399 q 484 452 511 439 q 400 483 457 465 q 359 458 374 472 q 344 424 344 445 m 358 597 q 380 566 358 580 q 444 540 401 552 q 493 561 476 549 q 510 594 510 572 q 489 627 510 617 q 429 638 467 638 q 376 629 394 638 q 358 597 358 619 z "},"⑼":{"ha":861,"x_min":13,"x_max":848,"o":"m 97 507 q 138 317 97 399 q 257 152 180 234 l 179 152 q 60 303 108 216 q 13 507 13 391 q 60 711 13 623 q 179 863 108 799 l 257 863 q 138 698 180 781 q 97 507 97 615 m 765 507 q 724 698 765 615 q 605 863 682 781 l 682 863 q 801 711 753 799 q 848 507 848 623 q 801 303 848 391 q 682 152 754 215 l 605 152 q 724 317 682 234 q 765 507 765 399 m 423 307 q 315 334 353 307 q 272 415 276 361 l 355 424 q 375 387 358 399 q 424 376 392 376 q 489 403 467 376 q 511 501 510 431 q 394 465 458 465 q 298 491 333 465 q 262 576 262 517 q 306 672 262 640 q 430 704 351 704 q 606 505 606 704 q 558 353 606 399 q 423 307 510 307 m 351 576 q 369 537 351 550 q 419 524 388 524 q 509 550 464 524 q 484 615 504 596 q 429 633 464 633 q 372 618 393 633 q 351 576 351 603 z "},"⁄":{"ha":861,"x_min":126,"x_max":736,"o":"m 736 723 l 193 215 l 126 285 l 669 793 l 736 723 z "},"½":{"ha":861,"x_min":59,"x_max":820,"o":"m 70 958 q 109 965 88 958 q 148 985 131 972 q 169 1014 165 997 l 260 1014 l 260 701 l 369 701 l 369 628 l 59 628 l 59 701 l 169 701 l 169 908 q 121 878 147 889 q 70 867 95 867 l 70 958 m 761 723 l 218 215 l 151 285 l 694 793 l 761 723 m 652 392 q 767 365 725 392 q 809 282 809 338 q 789 216 809 242 q 744 176 768 190 q 672 141 719 163 q 605 106 624 119 q 582 73 586 92 l 820 73 l 820 0 l 496 0 l 496 73 q 513 126 496 103 q 559 166 531 149 q 633 203 588 183 l 648 210 q 701 240 684 226 q 719 277 719 253 q 703 312 719 301 q 656 323 688 323 q 600 309 619 323 q 578 264 581 296 l 495 272 q 535 360 493 328 q 652 392 577 392 z "},"⅓":{"ha":861,"x_min":59,"x_max":823,"o":"m 70 958 q 109 965 88 958 q 148 985 131 972 q 169 1014 165 997 l 260 1014 l 260 701 l 369 701 l 369 628 l 59 628 l 59 701 l 169 701 l 169 908 q 121 878 147 889 q 70 867 95 867 l 70 958 m 761 723 l 218 215 l 151 285 l 694 793 l 761 723 m 656 392 q 772 365 731 392 q 813 286 813 338 q 793 228 813 251 q 740 194 773 206 q 801 166 778 186 q 823 108 823 146 q 778 22 823 49 q 653 -6 733 -6 q 528 20 571 -6 q 484 109 485 47 l 567 118 q 594 77 574 89 q 654 65 614 65 q 713 76 694 65 q 731 111 731 88 q 706 148 731 135 q 627 160 681 160 l 608 160 l 608 219 l 628 219 q 701 234 676 219 q 726 277 726 249 q 653 323 726 323 q 600 310 619 323 q 576 267 581 298 l 496 275 q 536 361 496 331 q 656 392 577 392 z "},"⅔":{"ha":861,"x_min":63,"x_max":823,"o":"m 222 1020 q 336 993 294 1020 q 378 910 378 966 q 358 845 378 871 q 313 805 338 819 q 241 769 289 791 q 174 734 193 747 q 151 701 156 721 l 390 701 l 390 628 l 65 628 l 65 701 q 83 755 65 732 q 128 794 100 777 q 202 831 157 812 l 217 838 q 271 868 253 854 q 288 906 288 882 q 273 941 288 930 q 225 951 257 951 q 169 938 188 951 q 148 892 151 924 l 65 901 q 105 988 63 956 q 222 1020 147 1020 m 761 723 l 218 215 l 151 285 l 694 793 l 761 723 m 656 392 q 772 365 731 392 q 813 286 813 338 q 793 228 813 251 q 740 194 773 206 q 801 166 778 186 q 823 108 823 146 q 778 22 823 49 q 653 -6 733 -6 q 528 20 571 -6 q 484 109 485 47 l 567 118 q 594 77 574 89 q 654 65 614 65 q 713 76 694 65 q 731 111 731 88 q 706 148 731 135 q 627 160 681 160 l 608 160 l 608 219 l 628 219 q 701 234 676 219 q 726 277 726 249 q 653 323 726 323 q 600 310 619 323 q 576 267 581 298 l 496 275 q 536 361 496 331 q 656 392 577 392 z "},"¼":{"ha":861,"x_min":59,"x_max":787,"o":"m 70 958 q 109 965 88 958 q 148 985 131 972 q 169 1014 165 997 l 260 1014 l 260 701 l 369 701 l 369 628 l 59 628 l 59 701 l 169 701 l 169 908 q 121 878 147 889 q 70 867 95 867 l 70 958 m 768 723 l 225 215 l 158 285 l 701 793 l 768 723 m 646 0 l 646 88 l 439 88 l 439 160 l 639 385 l 734 385 l 734 160 l 787 160 l 787 88 l 734 88 l 734 0 l 646 0 m 646 153 l 646 283 l 526 153 l 646 153 z "},"¾":{"ha":861,"x_min":51,"x_max":787,"o":"m 223 1020 q 340 993 299 1020 q 381 915 381 967 q 360 857 381 879 q 307 823 340 834 q 368 794 346 815 q 390 736 390 774 q 345 650 390 678 q 221 622 301 622 q 95 649 138 622 q 51 738 52 676 l 135 747 q 161 705 141 717 q 222 693 181 693 q 280 705 262 693 q 298 740 298 717 q 273 776 298 764 q 194 788 248 788 l 176 788 l 176 847 l 195 847 q 268 863 244 847 q 293 906 293 878 q 221 951 293 951 q 167 939 186 951 q 144 895 149 926 l 63 903 q 104 990 63 960 q 223 1020 144 1020 m 768 723 l 225 215 l 158 285 l 701 793 l 768 723 m 646 0 l 646 88 l 439 88 l 439 160 l 639 385 l 734 385 l 734 160 l 787 160 l 787 88 l 734 88 l 734 0 l 646 0 m 646 153 l 646 283 l 526 153 l 646 153 z "},"⅛":{"ha":861,"x_min":59,"x_max":823,"o":"m 70 958 q 109 965 88 958 q 148 985 131 972 q 169 1014 165 997 l 260 1014 l 260 701 l 369 701 l 369 628 l 59 628 l 59 701 l 169 701 l 169 908 q 121 878 147 889 q 70 867 95 867 l 70 958 m 761 723 l 218 215 l 151 285 l 694 793 l 761 723 m 652 392 q 766 364 723 392 q 810 288 810 337 q 742 202 810 231 q 823 108 823 167 q 778 23 823 51 q 648 -6 733 -6 q 518 21 560 -6 q 475 102 475 47 q 496 157 475 135 q 556 193 517 178 q 507 233 524 210 q 489 285 489 256 q 533 364 489 337 q 652 392 577 392 m 563 112 q 651 63 563 63 q 709 74 688 63 q 729 106 729 86 q 701 140 729 126 q 617 169 673 154 q 577 145 592 158 q 563 112 563 133 m 576 285 q 665 227 576 251 q 711 249 694 237 q 728 282 728 260 q 707 315 728 304 q 647 326 685 326 q 594 316 613 326 q 576 285 576 307 z "},"⅜":{"ha":861,"x_min":51,"x_max":823,"o":"m 223 1020 q 340 993 299 1020 q 381 915 381 967 q 360 857 381 879 q 307 823 340 834 q 368 794 346 815 q 390 736 390 774 q 345 650 390 678 q 221 622 301 622 q 95 649 138 622 q 51 738 52 676 l 135 747 q 161 705 141 717 q 222 693 181 693 q 280 705 262 693 q 298 740 298 717 q 273 776 298 764 q 194 788 248 788 l 176 788 l 176 847 l 195 847 q 268 863 244 847 q 293 906 293 878 q 221 951 293 951 q 167 939 186 951 q 144 895 149 926 l 63 903 q 104 990 63 960 q 223 1020 144 1020 m 761 723 l 218 215 l 151 285 l 694 793 l 761 723 m 652 392 q 766 364 723 392 q 810 288 810 337 q 742 202 810 231 q 823 108 823 167 q 778 23 823 51 q 648 -6 733 -6 q 518 21 560 -6 q 475 102 475 47 q 496 157 475 135 q 556 193 517 178 q 507 233 524 210 q 489 285 489 256 q 533 364 489 337 q 652 392 577 392 m 563 112 q 651 63 563 63 q 709 74 688 63 q 729 106 729 86 q 701 140 729 126 q 617 169 673 154 q 577 145 592 158 q 563 112 563 133 m 576 285 q 665 227 576 251 q 711 249 694 237 q 728 282 728 260 q 707 315 728 304 q 647 326 685 326 q 594 316 613 326 q 576 285 576 307 z "},"⅝":{"ha":861,"x_min":58,"x_max":823,"o":"m 374 1014 l 374 941 l 169 941 l 154 858 q 250 878 198 878 q 358 847 319 878 q 397 758 397 817 q 352 656 397 690 q 226 623 308 623 q 58 738 59 623 l 144 746 q 170 706 149 717 q 226 694 191 694 q 287 709 266 694 q 308 759 308 725 q 288 806 308 789 q 227 822 268 822 q 183 815 204 822 q 147 795 163 808 l 67 805 l 98 1014 l 374 1014 m 761 723 l 218 215 l 151 285 l 694 793 l 761 723 m 652 392 q 766 364 723 392 q 810 288 810 337 q 742 202 810 231 q 823 108 823 167 q 778 23 823 51 q 648 -6 733 -6 q 518 21 560 -6 q 475 102 475 47 q 496 157 475 135 q 556 193 517 178 q 507 233 524 210 q 489 285 489 256 q 533 364 489 337 q 652 392 577 392 m 563 112 q 651 63 563 63 q 709 74 688 63 q 729 106 729 86 q 701 140 729 126 q 617 169 673 154 q 577 145 592 158 q 563 112 563 133 m 576 285 q 665 227 576 251 q 711 249 694 237 q 728 282 728 260 q 707 315 728 304 q 647 326 685 326 q 594 316 613 326 q 576 285 576 307 z "},"⅞":{"ha":861,"x_min":115,"x_max":823,"o":"m 434 1012 l 434 962 l 282 626 l 190 626 l 333 938 l 115 938 l 115 1012 l 434 1012 m 740 723 l 197 215 l 131 285 l 674 793 l 740 723 m 652 392 q 766 364 723 392 q 810 288 810 337 q 742 202 810 231 q 823 108 823 167 q 778 23 823 51 q 648 -6 733 -6 q 518 21 560 -6 q 475 102 475 47 q 496 157 475 135 q 556 193 517 178 q 507 233 524 210 q 489 285 489 256 q 533 364 489 337 q 652 392 577 392 m 563 112 q 651 63 563 63 q 709 74 688 63 q 729 106 729 86 q 701 140 729 126 q 617 169 673 154 q 577 145 592 158 q 563 112 563 133 m 576 285 q 665 227 576 251 q 711 249 694 237 q 728 282 728 260 q 707 315 728 304 q 647 326 685 326 q 594 316 613 326 q 576 285 576 307 z "},"₀":{"ha":861,"x_min":254,"x_max":607,"o":"m 607 -1 q 561 -151 607 -101 q 431 -201 516 -201 q 300 -151 345 -201 q 254 -1 254 -101 q 299 150 254 103 q 431 198 344 198 q 562 150 517 198 q 607 -1 607 103 m 513 -1 q 505 72 513 45 q 478 110 497 99 q 431 122 460 122 q 383 110 401 122 q 357 72 365 99 q 349 -1 349 45 q 357 -75 349 -48 q 383 -114 365 -102 q 431 -125 401 -125 q 478 -114 460 -125 q 505 -75 497 -102 q 513 -1 513 -48 m 431 -45 q 459 -34 449 -45 q 469 -4 469 -24 q 459 26 469 16 q 431 37 449 37 q 402 26 412 37 q 392 -4 392 15 q 402 -34 392 -23 q 431 -45 412 -45 z "},"₁":{"ha":861,"x_min":285,"x_max":595,"o":"m 296 135 q 335 142 313 135 q 373 162 356 149 q 395 191 390 174 l 486 191 l 486 -122 l 595 -122 l 595 -194 l 285 -194 l 285 -122 l 395 -122 l 395 85 q 347 55 372 66 q 296 44 321 44 l 296 135 z "},"₂":{"ha":861,"x_min":256,"x_max":583,"o":"m 415 197 q 530 170 488 197 q 572 88 572 143 q 551 22 572 48 q 506 -18 531 -4 q 434 -53 482 -32 q 367 -89 386 -76 q 344 -122 349 -102 l 583 -122 l 583 -194 l 258 -194 l 258 -122 q 276 -68 258 -91 q 322 -28 293 -46 q 395 8 350 -11 l 410 15 q 464 45 447 31 q 481 83 481 59 q 466 118 481 107 q 418 128 450 128 q 363 115 381 128 q 341 69 344 101 l 258 78 q 298 165 256 133 q 415 197 340 197 z "},"₃":{"ha":861,"x_min":249,"x_max":588,"o":"m 421 197 q 538 170 497 197 q 578 92 578 144 q 558 34 578 56 q 505 0 538 11 q 566 -28 544 -8 q 588 -87 588 -49 q 543 -173 588 -145 q 419 -201 499 -201 q 293 -174 336 -201 q 249 -85 250 -147 l 333 -76 q 359 -118 339 -106 q 419 -130 379 -130 q 478 -118 460 -130 q 496 -83 496 -106 q 471 -47 496 -59 q 392 -35 446 -35 l 374 -35 l 374 24 l 393 24 q 466 40 442 24 q 491 83 491 55 q 419 128 491 128 q 365 116 384 128 q 342 72 347 103 l 261 81 q 302 167 261 137 q 421 197 342 197 z "},"₄":{"ha":861,"x_min":251,"x_max":599,"o":"m 458 -194 l 458 -107 l 251 -107 l 251 -34 l 451 191 l 546 191 l 546 -34 l 599 -34 l 599 -107 l 546 -107 l 546 -194 l 458 -194 m 458 -41 l 458 88 l 338 -41 l 458 -41 z "},"₅":{"ha":861,"x_min":256,"x_max":595,"o":"m 572 191 l 572 118 l 367 118 l 352 35 q 448 55 396 55 q 556 24 517 55 q 595 -65 595 -6 q 550 -167 595 -133 q 424 -200 506 -200 q 256 -85 257 -200 l 342 -77 q 368 -117 347 -106 q 424 -129 389 -129 q 485 -114 464 -129 q 506 -64 506 -98 q 486 -17 506 -34 q 425 -1 466 -1 q 381 -8 402 -1 q 345 -28 360 -15 l 265 -18 l 296 191 l 572 191 z "},"₆":{"ha":861,"x_min":259,"x_max":603,"o":"m 442 197 q 550 170 512 197 q 593 89 588 143 l 510 81 q 489 117 506 106 q 440 128 472 128 q 376 101 397 128 q 353 2 355 73 q 471 39 404 39 q 568 13 532 39 q 603 -72 603 -13 q 559 -168 603 -136 q 435 -200 514 -200 q 306 -154 352 -200 q 259 -1 259 -108 q 307 151 259 105 q 442 197 354 197 m 356 -45 q 380 -110 360 -92 q 435 -129 400 -129 q 493 -115 472 -129 q 513 -72 513 -100 q 495 -33 513 -46 q 445 -20 477 -20 q 356 -45 398 -20 z "},"₇":{"ha":861,"x_min":274,"x_max":593,"o":"m 593 189 l 593 139 l 441 -197 l 349 -197 l 492 115 l 274 115 l 274 189 l 593 189 z "},"₈":{"ha":861,"x_min":256,"x_max":604,"o":"m 433 197 q 548 170 504 197 q 591 94 591 142 q 523 8 591 37 q 604 -86 604 -28 q 559 -172 604 -143 q 429 -200 515 -200 q 299 -174 342 -200 q 256 -92 256 -147 q 277 -38 256 -60 q 337 -1 299 -16 q 288 39 306 15 q 270 90 270 62 q 314 170 270 142 q 433 197 358 197 m 344 -83 q 433 -132 344 -132 q 490 -120 469 -132 q 510 -88 510 -108 q 482 -54 510 -68 q 399 -25 454 -40 q 358 -49 373 -36 q 344 -83 344 -62 m 358 90 q 446 33 358 56 q 493 54 476 42 q 510 88 510 66 q 488 120 510 110 q 428 131 467 131 q 376 122 394 131 q 358 90 358 113 z "},"₉":{"ha":861,"x_min":259,"x_max":603,"o":"m 420 -200 q 312 -173 351 -200 q 269 -92 274 -146 l 352 -83 q 373 -120 356 -108 q 422 -131 390 -131 q 485 -104 465 -131 q 508 -6 506 -76 q 392 -42 457 -42 q 295 -16 331 -42 q 259 69 259 10 q 303 165 259 133 q 427 197 348 197 q 603 -2 603 197 q 556 -154 603 -108 q 420 -200 508 -200 m 349 69 q 367 30 349 43 q 417 17 385 17 q 507 42 462 17 q 481 107 501 88 q 426 126 461 126 q 369 111 390 126 q 349 69 349 97 z "},"⁰":{"ha":861,"x_min":254,"x_max":607,"o":"m 607 957 q 561 808 607 858 q 431 758 516 758 q 300 808 345 758 q 254 957 254 858 q 299 1109 254 1061 q 431 1156 344 1156 q 562 1109 517 1156 q 607 957 607 1061 m 513 957 q 505 1030 513 1003 q 478 1068 497 1057 q 431 1080 460 1080 q 383 1068 401 1080 q 357 1030 365 1057 q 349 957 349 1003 q 357 883 349 910 q 383 845 365 856 q 431 833 401 833 q 478 845 460 833 q 505 883 497 856 q 513 957 513 910 m 431 913 q 459 924 449 913 q 469 954 469 935 q 459 985 469 974 q 431 995 449 995 q 402 984 412 995 q 392 954 392 974 q 402 924 392 935 q 431 913 412 913 z "},"¹":{"ha":861,"x_min":285,"x_max":595,"o":"m 296 1094 q 335 1101 313 1094 q 373 1120 356 1108 q 395 1149 390 1133 l 486 1149 l 486 837 l 595 837 l 595 764 l 285 764 l 285 837 l 395 837 l 395 1043 q 347 1014 372 1024 q 296 1003 321 1003 l 296 1094 z "},"²":{"ha":861,"x_min":256,"x_max":583,"o":"m 415 1156 q 530 1128 488 1156 q 572 1046 572 1101 q 551 980 572 1006 q 506 940 531 954 q 434 905 482 926 q 367 869 386 883 q 344 837 349 856 l 583 837 l 583 764 l 258 764 l 258 837 q 276 890 258 867 q 322 930 293 913 q 395 967 350 947 l 410 974 q 464 1003 447 990 q 481 1041 481 1017 q 466 1076 481 1065 q 418 1087 450 1087 q 363 1073 381 1087 q 341 1028 344 1060 l 258 1036 q 298 1124 256 1092 q 415 1156 340 1156 z "},"³":{"ha":861,"x_min":249,"x_max":588,"o":"m 421 1156 q 538 1129 497 1156 q 578 1050 578 1102 q 558 992 578 1015 q 505 958 538 969 q 566 930 544 950 q 588 872 588 910 q 543 785 588 813 q 419 758 499 758 q 293 784 336 758 q 249 873 250 811 l 333 882 q 359 841 339 853 q 419 828 379 828 q 478 840 460 828 q 496 875 496 852 q 471 911 496 899 q 392 924 446 924 l 374 924 l 374 983 l 393 983 q 466 998 442 983 q 491 1041 491 1013 q 419 1087 491 1087 q 365 1074 384 1087 q 342 1031 347 1062 l 261 1039 q 302 1125 261 1095 q 421 1156 342 1156 z "},"⁴":{"ha":861,"x_min":251,"x_max":599,"o":"m 458 764 l 458 851 l 251 851 l 251 924 l 451 1149 l 546 1149 l 546 924 l 599 924 l 599 851 l 546 851 l 546 764 l 458 764 m 458 917 l 458 1047 l 338 917 l 458 917 z "},"⁵":{"ha":861,"x_min":256,"x_max":595,"o":"m 572 1149 l 572 1076 l 367 1076 l 352 994 q 448 1013 396 1013 q 556 983 517 1013 q 595 893 595 952 q 550 792 595 825 q 424 758 506 758 q 256 873 257 758 l 342 881 q 368 841 347 853 q 424 829 389 829 q 485 845 464 829 q 506 894 506 860 q 486 941 506 924 q 425 958 466 958 q 381 951 402 958 q 345 931 360 944 l 265 940 l 296 1149 l 572 1149 z "},"⁶":{"ha":861,"x_min":259,"x_max":603,"o":"m 442 1156 q 550 1128 512 1156 q 593 1047 588 1101 l 510 1039 q 489 1076 506 1065 q 440 1087 472 1087 q 376 1059 397 1087 q 353 960 355 1031 q 471 997 404 997 q 568 971 532 997 q 603 886 603 945 q 559 790 603 822 q 435 758 514 758 q 306 805 352 758 q 259 958 259 851 q 307 1109 259 1063 q 442 1156 354 1156 m 356 913 q 380 848 360 867 q 435 829 400 829 q 493 844 472 829 q 513 887 513 858 q 495 925 513 913 q 445 938 477 938 q 356 913 398 938 z "},"⁷":{"ha":861,"x_min":274,"x_max":593,"o":"m 593 1147 l 593 1097 l 441 762 l 349 762 l 492 1074 l 274 1074 l 274 1147 l 593 1147 z "},"⁸":{"ha":861,"x_min":256,"x_max":604,"o":"m 433 1156 q 548 1128 504 1156 q 591 1052 591 1101 q 523 966 591 995 q 604 872 604 931 q 559 787 604 815 q 429 758 515 758 q 299 785 342 758 q 256 866 256 811 q 277 920 256 899 q 337 957 299 942 q 288 997 306 974 q 270 1049 270 1020 q 314 1128 270 1101 q 433 1156 358 1156 m 344 876 q 433 826 344 826 q 490 838 469 826 q 510 870 510 850 q 482 904 510 890 q 399 933 454 918 q 358 909 373 922 q 344 876 344 897 m 358 1049 q 446 991 358 1015 q 493 1013 476 1001 q 510 1046 510 1024 q 488 1079 510 1068 q 428 1090 467 1090 q 376 1080 394 1090 q 358 1049 358 1071 z "},"⁹":{"ha":861,"x_min":259,"x_max":603,"o":"m 420 758 q 312 785 351 758 q 269 867 274 813 l 352 875 q 373 839 356 850 q 422 827 390 827 q 485 855 465 827 q 508 952 506 882 q 392 916 457 916 q 295 942 331 916 q 259 1028 259 969 q 303 1124 259 1092 q 427 1156 348 1156 q 603 956 603 1156 q 556 805 603 851 q 420 758 508 758 m 349 1027 q 367 988 349 1001 q 417 975 385 975 q 507 1001 462 975 q 481 1066 501 1047 q 426 1085 461 1085 q 369 1070 390 1085 q 349 1027 349 1055 z "}," ":{"ha":861,"x_min":0,"x_max":0,"o":""}," ":{"ha":861,"x_min":0,"x_max":0,"o":""},"⁤":{"ha":861,"x_min":0,"x_max":0,"o":""},"⁣":{"ha":861,"x_min":0,"x_max":0,"o":""},"⁢":{"ha":861,"x_min":0,"x_max":0,"o":""},"⟦":{"ha":861,"x_min":227,"x_max":703,"o":"m 227 1113 l 703 1113 l 703 1043 l 506 1043 l 506 -208 l 703 -208 l 703 -278 l 227 -278 l 227 1113 m 419 -208 l 419 1043 l 315 1043 l 315 -208 l 419 -208 z "},"⟧":{"ha":861,"x_min":158,"x_max":634,"o":"m 634 1113 l 158 1113 l 158 1043 l 442 1043 l 442 1067 l 355 1067 l 355 -233 l 442 -233 l 442 -208 l 158 -208 l 158 -278 l 634 -278 l 634 1113 m 442 1043 l 547 1043 l 547 -208 l 442 -208 l 442 1043 z "},"⟨":{"ha":861,"x_min":181,"x_max":681,"o":"m 343 418 l 681 -226 l 547 -290 l 181 418 l 547 1126 l 681 1062 l 343 418 z "},"⟩":{"ha":861,"x_min":181,"x_max":680,"o":"m 314 1126 l 680 418 l 314 -290 l 181 -226 l 519 418 l 181 1062 l 314 1126 z "},"⟪":{"ha":861,"x_min":66,"x_max":795,"o":"m 210 417 l 538 -278 l 394 -278 l 66 417 l 394 1113 l 538 1113 l 210 417 m 468 417 l 795 -278 l 652 -278 l 324 417 l 652 1113 l 795 1113 l 468 417 z "},"⟫":{"ha":861,"x_min":66,"x_max":795,"o":"m 467 1113 l 795 417 l 467 -278 l 324 -278 l 651 417 l 324 1113 l 467 1113 m 210 1113 l 538 417 l 210 -278 l 66 -278 l 393 417 l 66 1113 l 210 1113 z "},".":{"ha":858,"x_min":292,"x_max":566,"o":"m 428 -25 q 359 -9 390 -25 q 310 38 328 8 q 292 109 292 69 q 310 180 292 150 q 359 226 328 210 q 428 242 390 242 q 498 226 467 242 q 548 180 530 210 q 566 109 566 150 q 548 38 566 69 q 498 -9 530 8 q 428 -25 467 -25 z "},",":{"ha":861,"x_min":274,"x_max":583,"o":"m 431 -26 q 359 -9 391 -26 q 309 38 327 8 q 291 109 291 69 q 309 180 291 150 q 359 226 327 210 q 430 242 390 242 q 508 223 474 242 q 563 162 542 203 q 583 62 583 122 q 517 -146 583 -49 q 349 -316 451 -243 l 274 -255 q 398 -139 350 -196 q 463 -23 445 -83 q 431 -26 449 -26 z "},":":{"ha":861,"x_min":296,"x_max":571,"o":"m 433 -21 q 364 -5 395 -21 q 314 42 333 12 q 296 113 296 73 q 314 184 296 154 q 364 231 333 215 q 433 247 395 247 q 503 231 472 247 q 552 184 534 215 q 571 113 571 154 q 552 42 571 73 q 503 -5 534 12 q 433 -21 472 -21 m 433 518 q 364 534 395 518 q 314 581 333 551 q 296 652 296 612 q 314 723 296 693 q 364 769 333 753 q 433 785 395 785 q 503 769 472 785 q 552 723 534 753 q 571 652 571 693 q 552 581 571 612 q 503 534 534 551 q 433 518 472 518 z "},";":{"ha":861,"x_min":274,"x_max":583,"o":"m 431 -26 q 359 -9 391 -26 q 309 38 327 8 q 291 109 291 69 q 309 180 291 150 q 359 226 327 210 q 430 242 390 242 q 508 223 474 242 q 563 162 542 203 q 583 62 583 122 q 517 -146 583 -49 q 349 -316 451 -243 l 274 -255 q 398 -139 350 -196 q 463 -23 445 -83 q 431 -26 449 -26 m 432 518 q 362 534 394 518 q 312 581 331 551 q 294 652 294 612 q 312 723 294 693 q 362 769 331 753 q 432 785 394 785 q 501 769 470 785 q 551 723 533 753 q 569 652 569 693 q 551 581 569 612 q 501 534 533 551 q 432 518 470 518 z "},"…":{"ha":861,"x_min":51,"x_max":814,"o":"m 150 -17 q 79 10 108 -17 q 51 82 51 37 q 79 154 51 128 q 150 181 108 181 q 221 154 192 181 q 249 82 249 128 q 221 10 249 37 q 150 -17 192 -17 m 433 -17 q 361 10 390 -17 q 333 82 333 37 q 361 154 333 128 q 433 181 390 181 q 503 154 475 181 q 531 82 531 127 q 503 10 531 37 q 433 -17 474 -17 m 715 -17 q 644 10 672 -17 q 615 82 615 37 q 644 154 615 128 q 715 181 672 181 q 785 154 757 181 q 814 82 814 128 q 785 10 814 37 q 715 -17 757 -17 z "},"!":{"ha":861,"x_min":315,"x_max":551,"o":"m 365 415 l 349 1014 l 513 1014 l 497 415 l 365 415 m 433 -18 q 373 -4 400 -18 q 330 35 346 10 q 315 95 315 61 q 348 177 315 147 q 433 207 382 207 q 517 177 483 207 q 551 95 551 147 q 535 35 551 61 q 492 -4 519 10 q 433 -18 465 -18 z "},"¡":{"ha":861,"x_min":310,"x_max":547,"o":"m 496 309 l 512 -291 l 349 -291 l 364 309 l 496 309 m 428 741 q 488 727 460 741 q 531 688 515 713 q 547 628 547 662 q 513 546 547 576 q 428 516 478 516 q 343 546 377 516 q 310 628 310 576 q 325 688 310 662 q 368 727 341 713 q 428 741 395 741 z "},"?":{"ha":861,"x_min":86,"x_max":732,"o":"m 433 -18 q 373 -4 400 -18 q 330 35 346 10 q 315 95 315 61 q 348 177 315 147 q 433 207 382 207 q 517 177 483 207 q 551 95 551 147 q 535 35 551 61 q 492 -4 519 10 q 433 -18 465 -18 m 86 746 q 175 959 87 888 q 415 1031 263 1031 q 647 963 562 1031 q 732 765 732 895 q 667 588 732 648 q 499 504 603 527 l 497 397 l 365 397 l 361 556 q 477 596 431 573 q 549 658 523 619 q 574 756 574 697 q 413 902 574 902 q 286 862 331 902 q 234 732 242 822 l 86 746 z "},"¿":{"ha":861,"x_min":129,"x_max":775,"o":"m 428 741 q 488 727 460 741 q 531 688 515 713 q 547 628 547 662 q 513 546 547 576 q 428 516 478 516 q 343 546 377 516 q 310 628 310 576 q 325 688 310 662 q 368 727 341 713 q 428 741 395 741 m 129 -41 q 194 136 129 76 q 362 219 258 197 l 364 326 l 496 326 l 500 168 q 384 127 431 151 q 313 65 338 104 q 287 -33 287 26 q 448 -179 287 -179 q 575 -139 531 -179 q 627 -8 619 -98 l 775 -23 q 686 -236 774 -165 q 447 -307 598 -307 q 214 -239 299 -307 q 129 -41 129 -172 z "},"·":{"ha":861,"x_min":293,"x_max":568,"o":"m 431 324 q 361 341 393 324 q 311 388 330 357 q 293 458 293 418 q 311 530 293 499 q 361 576 330 560 q 431 592 393 592 q 501 576 469 592 q 550 530 532 560 q 568 458 568 499 q 550 388 568 418 q 501 341 532 357 q 431 324 469 324 z "},"•":{"ha":861,"x_min":242,"x_max":625,"o":"m 434 272 q 337 294 381 272 q 267 359 293 317 q 242 458 242 401 q 267 557 242 515 q 337 622 293 599 q 434 644 381 644 q 531 622 488 644 q 600 557 574 599 q 625 458 625 515 q 600 359 625 401 q 531 294 574 317 q 434 272 488 272 z "},"*":{"ha":861,"x_min":62,"x_max":800,"o":"m 110 644 l 371 542 l 353 822 l 509 822 l 491 542 l 751 644 l 800 497 l 528 428 l 708 212 l 582 120 l 431 360 l 279 120 l 153 212 l 333 428 l 62 497 l 110 644 z "},"﹡":{"ha":861,"x_min":228,"x_max":633,"o":"m 266 574 l 386 511 l 369 649 l 493 649 l 475 511 l 596 574 l 633 457 l 501 428 l 594 336 l 495 262 l 431 376 l 367 262 l 268 336 l 360 429 l 228 457 l 266 574 z "},"⁅":{"ha":861,"x_min":238,"x_max":703,"o":"m 238 1113 l 703 1113 l 703 994 l 389 994 l 389 476 l 703 476 l 703 358 l 389 358 l 389 -160 l 703 -160 l 703 -278 l 238 -278 l 238 1113 z "},"⁆":{"ha":861,"x_min":158,"x_max":624,"o":"m 473 476 l 473 358 l 550 358 l 550 476 l 473 476 m 624 1113 l 158 1113 l 158 994 l 473 994 l 473 476 l 158 476 l 158 358 l 473 358 l 473 -160 l 158 -160 l 158 -278 l 624 -278 l 624 1113 z "},"⁀":{"ha":861,"x_min":-43,"x_max":904,"o":"m 13 1117 q 431 1253 179 1253 q 849 1117 683 1253 l 904 1178 q 431 1378 719 1378 q -43 1178 143 1378 l 13 1117 z "},"‖":{"ha":861,"x_min":206,"x_max":656,"o":"m 206 -278 l 206 1113 l 344 1113 l 344 -278 l 206 -278 m 517 -278 l 517 1113 l 656 1113 l 656 -278 l 517 -278 z "},"⁉":{"ha":861,"x_min":26,"x_max":832,"o":"m 76 415 l 61 1014 l 224 1014 l 209 415 l 76 415 m 144 -18 q 85 -4 112 -18 q 42 35 58 10 q 26 95 26 61 q 60 177 26 147 q 144 207 94 207 q 229 177 195 207 q 263 95 263 147 q 247 35 263 61 q 204 -4 231 10 q 144 -18 177 -18 m 588 -18 q 528 -4 556 -18 q 485 35 501 10 q 469 95 469 61 q 503 177 469 147 q 588 207 538 207 q 673 177 639 207 q 706 95 706 147 q 691 35 706 61 q 648 -4 675 10 q 588 -18 621 -18 m 309 746 q 380 959 310 888 q 570 1031 450 1031 q 764 965 696 1031 q 832 771 832 899 q 782 599 832 662 q 655 509 733 536 l 653 397 l 520 397 l 517 556 q 636 630 595 581 q 678 763 678 679 q 651 869 678 835 q 570 902 624 902 q 508 886 533 902 q 470 833 484 870 q 453 732 457 795 l 309 746 z "},"‼":{"ha":861,"x_min":97,"x_max":764,"o":"m 148 415 l 133 1014 l 295 1014 l 281 415 l 148 415 m 216 -18 q 156 -4 183 -18 q 113 35 129 10 q 97 95 97 61 q 131 177 97 147 q 216 207 165 207 q 300 177 267 207 q 334 95 334 147 q 318 35 334 61 q 276 -4 303 10 q 216 -18 249 -18 m 578 415 l 563 1014 l 725 1014 l 710 415 l 578 415 m 646 -18 q 586 -4 613 -18 q 543 35 559 10 q 527 95 527 61 q 561 177 527 147 q 646 207 595 207 q 730 177 697 207 q 764 95 764 147 q 748 35 764 61 q 706 -4 733 10 q 646 -18 678 -18 z "}}}
